<svg xmlns="http://www.w3.org/2000/svg" viewBox="0 0 10 14" width="10" height="14" shape-rendering="crispEdges">
  <!-- Child villager -->

  <!-- Hair -->
  <rect x="2" y="0" width="6" height="3" fill="#8D6E63"/>
  <rect x="3" y="0" width="4" height="1" fill="#A1887F"/>

  <!-- Head -->
  <rect x="2" y="2" width="6" height="4" fill="#FFCCBC"/>
  <rect x="3" y="3" width="4" height="2" fill="#FFE0B2"/>

  <!-- Face (big eyes for cute look) -->
  <rect x="3" y="3" width="1" height="1" fill="#5D4037"/>
  <rect x="6" y="3" width="1" height="1" fill="#5D4037"/>
  <rect x="4" y="4" width="2" height="1" fill="#FFAB91"/>

  <!-- Shirt -->
  <rect x="2" y="6" width="6" height="4" fill="#4CAF50"/>
  <rect x="3" y="7" width="4" height="2" fill="#66BB6A"/>

  <!-- Star decoration -->
  <rect x="4" y="7" width="2" height="2" fill="#FFEB3B"/>

  <!-- Arms -->
  <rect x="1" y="6" width="1" height="3" fill="#4CAF50"/>
  <rect x="8" y="6" width="1" height="3" fill="#4CAF50"/>
  <rect x="1" y="9" width="1" height="1" fill="#FFCCBC"/>
  <rect x="8" y="9" width="1" height="1" fill="#FFCCBC"/>

  <!-- Shorts -->
  <rect x="2" y="10" width="6" height="2" fill="#1565C0"/>

  <!-- Legs -->
  <rect x="3" y="12" width="1" height="2" fill="#FFCCBC"/>
  <rect x="6" y="12" width="1" height="2" fill="#FFCCBC"/>

  <!-- Shoes -->
  <rect x="2" y="13" width="2" height="1" fill="#E53935"/>
  <rect x="6" y="13" width="2" height="1" fill="#E53935"/>
</svg>
