<svg xmlns="http://www.w3.org/2000/svg" viewBox="0 0 12 18" width="12" height="18" shape-rendering="crispEdges">
  <!-- Baker -->

  <!-- Chef hat -->
  <rect x="3" y="0" width="6" height="4" fill="#FFFFFF"/>
  <rect x="4" y="0" width="4" height="1" fill="#F5F5F5"/>
  <rect x="2" y="3" width="8" height="1" fill="#EEEEEE"/>

  <!-- Head -->
  <rect x="3" y="4" width="6" height="4" fill="#FFCCBC"/>
  <rect x="4" y="5" width="4" height="2" fill="#FFE0B2"/>

  <!-- Face -->
  <rect x="4" y="5" width="1" height="1" fill="#5D4037"/>
  <rect x="7" y="5" width="1" height="1" fill="#5D4037"/>
  <rect x="5" y="6" width="2" height="1" fill="#FFAB91"/>
  <!-- Rosy cheeks -->
  <rect x="3" y="6" width="1" height="1" fill="#FFAB91"/>
  <rect x="8" y="6" width="1" height="1" fill="#FFAB91"/>

  <!-- Apron -->
  <rect x="2" y="8" width="8" height="6" fill="#FFFFFF"/>
  <rect x="3" y="9" width="6" height="4" fill="#F5F5F5"/>
  <rect x="5" y="8" width="2" height="1" fill="#E91E63"/>

  <!-- Shirt -->
  <rect x="2" y="8" width="1" height="3" fill="#E91E63"/>
  <rect x="9" y="8" width="1" height="3" fill="#E91E63"/>

  <!-- Arms -->
  <rect x="1" y="8" width="1" height="3" fill="#E91E63"/>
  <rect x="10" y="8" width="1" height="3" fill="#E91E63"/>
  <rect x="1" y="11" width="1" height="1" fill="#FFCCBC"/>
  <rect x="10" y="11" width="1" height="1" fill="#FFCCBC"/>

  <!-- Legs -->
  <rect x="3" y="14" width="2" height="4" fill="#424242"/>
  <rect x="7" y="14" width="2" height="4" fill="#424242"/>

  <!-- Shoes -->
  <rect x="3" y="17" width="2" height="1" fill="#212121"/>
  <rect x="7" y="17" width="2" height="1" fill="#212121"/>
</svg>
