<svg xmlns="http://www.w3.org/2000/svg" viewBox="0 0 16 16" width="16" height="16" shape-rendering="crispEdges">
  <!-- Wood boardwalk - center tile -->

  <!-- Base/gap -->
  <rect x="0" y="0" width="16" height="16" fill="#3E2723"/>

  <!-- Planks -->
  <rect x="0" y="0" width="16" height="3" fill="#8D6E63"/>
  <rect x="0" y="4" width="16" height="3" fill="#795548"/>
  <rect x="0" y="8" width="16" height="3" fill="#8D6E63"/>
  <rect x="0" y="12" width="16" height="3" fill="#795548"/>

  <!-- Wood grain -->
  <rect x="2" y="1" width="4" height="1" fill="#A1887F"/>
  <rect x="10" y="1" width="3" height="1" fill="#6D4C41"/>
  <rect x="1" y="5" width="3" height="1" fill="#6D4C41"/>
  <rect x="8" y="5" width="5" height="1" fill="#A1887F"/>
  <rect x="4" y="9" width="4" height="1" fill="#A1887F"/>
  <rect x="12" y="9" width="2" height="1" fill="#6D4C41"/>
  <rect x="2" y="13" width="5" height="1" fill="#6D4C41"/>
  <rect x="11" y="13" width="3" height="1" fill="#A1887F"/>

  <!-- Nails -->
  <rect x="1" y="1" width="1" height="1" fill="#424242"/>
  <rect x="14" y="1" width="1" height="1" fill="#424242"/>
  <rect x="1" y="5" width="1" height="1" fill="#424242"/>
  <rect x="14" y="5" width="1" height="1" fill="#424242"/>
  <rect x="1" y="9" width="1" height="1" fill="#424242"/>
  <rect x="14" y="9" width="1" height="1" fill="#424242"/>
  <rect x="1" y="13" width="1" height="1" fill="#424242"/>
  <rect x="14" y="13" width="1" height="1" fill="#424242"/>
</svg>
