<svg xmlns="http://www.w3.org/2000/svg" viewBox="0 0 32 32" width="32" height="32" shape-rendering="crispEdges">
  <!-- Rain Overlay (transparent background) -->

  <!-- Rain drops at various positions -->
  <!-- Row 1 -->
  <rect x="2" y="0" width="1" height="4" fill="#90CAF9" opacity="0.7"/>
  <rect x="8" y="2" width="1" height="4" fill="#64B5F6" opacity="0.6"/>
  <rect x="16" y="0" width="1" height="5" fill="#90CAF9" opacity="0.7"/>
  <rect x="22" y="1" width="1" height="4" fill="#64B5F6" opacity="0.6"/>
  <rect x="28" y="0" width="1" height="4" fill="#90CAF9" opacity="0.7"/>

  <!-- Row 2 -->
  <rect x="5" y="6" width="1" height="5" fill="#64B5F6" opacity="0.6"/>
  <rect x="12" y="5" width="1" height="4" fill="#90CAF9" opacity="0.7"/>
  <rect x="19" y="7" width="1" height="4" fill="#64B5F6" opacity="0.6"/>
  <rect x="26" y="5" width="1" height="5" fill="#90CAF9" opacity="0.7"/>
  <rect x="30" y="6" width="1" height="4" fill="#64B5F6" opacity="0.6"/>

  <!-- Row 3 -->
  <rect x="1" y="11" width="1" height="4" fill="#90CAF9" opacity="0.7"/>
  <rect x="9" y="10" width="1" height="5" fill="#64B5F6" opacity="0.6"/>
  <rect x="15" y="12" width="1" height="4" fill="#90CAF9" opacity="0.7"/>
  <rect x="23" y="10" width="1" height="4" fill="#64B5F6" opacity="0.6"/>
  <rect x="29" y="11" width="1" height="5" fill="#90CAF9" opacity="0.7"/>

  <!-- Row 4 -->
  <rect x="4" y="16" width="1" height="4" fill="#64B5F6" opacity="0.6"/>
  <rect x="11" y="15" width="1" height="5" fill="#90CAF9" opacity="0.7"/>
  <rect x="18" y="17" width="1" height="4" fill="#64B5F6" opacity="0.6"/>
  <rect x="25" y="15" width="1" height="4" fill="#90CAF9" opacity="0.7"/>

  <!-- Row 5 -->
  <rect x="7" y="20" width="1" height="5" fill="#90CAF9" opacity="0.7"/>
  <rect x="14" y="21" width="1" height="4" fill="#64B5F6" opacity="0.6"/>
  <rect x="21" y="20" width="1" height="5" fill="#90CAF9" opacity="0.7"/>
  <rect x="27" y="22" width="1" height="4" fill="#64B5F6" opacity="0.6"/>

  <!-- Row 6 -->
  <rect x="3" y="26" width="1" height="4" fill="#64B5F6" opacity="0.6"/>
  <rect x="10" y="25" width="1" height="5" fill="#90CAF9" opacity="0.7"/>
  <rect x="17" y="27" width="1" height="4" fill="#64B5F6" opacity="0.6"/>
  <rect x="24" y="26" width="1" height="4" fill="#90CAF9" opacity="0.7"/>
  <rect x="31" y="25" width="1" height="5" fill="#64B5F6" opacity="0.6"/>

  <!-- Splash effects at bottom -->
  <rect x="6" y="30" width="2" height="1" fill="#90CAF9" opacity="0.5"/>
  <rect x="14" y="31" width="2" height="1" fill="#64B5F6" opacity="0.4"/>
  <rect x="22" y="30" width="2" height="1" fill="#90CAF9" opacity="0.5"/>
</svg>
