<svg xmlns="http://www.w3.org/2000/svg" viewBox="0 0 32 32" width="32" height="32" shape-rendering="crispEdges">
  <!-- Snowfall Overlay (transparent background) -->

  <!-- Snowflakes at various positions and sizes -->
  <!-- Large flakes -->
  <rect x="4" y="2" width="2" height="2" fill="#FFFFFF" opacity="0.9"/>
  <rect x="18" y="6" width="2" height="2" fill="#FAFAFA" opacity="0.85"/>
  <rect x="8" y="14" width="2" height="2" fill="#FFFFFF" opacity="0.9"/>
  <rect x="26" y="10" width="2" height="2" fill="#FAFAFA" opacity="0.85"/>
  <rect x="12" y="24" width="2" height="2" fill="#FFFFFF" opacity="0.9"/>
  <rect x="22" y="20" width="2" height="2" fill="#FAFAFA" opacity="0.85"/>

  <!-- Medium flakes -->
  <rect x="14" y="0" width="1" height="2" fill="#FFFFFF" opacity="0.8"/>
  <rect x="2" y="10" width="1" height="2" fill="#ECEFF1" opacity="0.75"/>
  <rect x="24" y="4" width="1" height="2" fill="#FFFFFF" opacity="0.8"/>
  <rect x="6" y="20" width="1" height="2" fill="#ECEFF1" opacity="0.75"/>
  <rect x="28" y="16" width="1" height="2" fill="#FFFFFF" opacity="0.8"/>
  <rect x="16" y="28" width="1" height="2" fill="#ECEFF1" opacity="0.75"/>

  <!-- Small flakes -->
  <rect x="10" y="4" width="1" height="1" fill="#FFFFFF" opacity="0.7"/>
  <rect x="20" y="2" width="1" height="1" fill="#FAFAFA" opacity="0.65"/>
  <rect x="30" y="8" width="1" height="1" fill="#FFFFFF" opacity="0.7"/>
  <rect x="0" y="16" width="1" height="1" fill="#FAFAFA" opacity="0.65"/>
  <rect x="18" y="12" width="1" height="1" fill="#FFFFFF" opacity="0.7"/>
  <rect x="4" y="22" width="1" height="1" fill="#FAFAFA" opacity="0.65"/>
  <rect x="26" y="26" width="1" height="1" fill="#FFFFFF" opacity="0.7"/>
  <rect x="10" y="30" width="1" height="1" fill="#FAFAFA" opacity="0.65"/>

  <!-- Tiny sparkle flakes -->
  <rect x="7" y="8" width="1" height="1" fill="#FFFFFF" opacity="0.6"/>
  <rect x="23" y="14" width="1" height="1" fill="#FFFFFF" opacity="0.6"/>
  <rect x="15" y="18" width="1" height="1" fill="#FFFFFF" opacity="0.6"/>
  <rect x="29" y="22" width="1" height="1" fill="#FFFFFF" opacity="0.6"/>
  <rect x="3" y="28" width="1" height="1" fill="#FFFFFF" opacity="0.6"/>
  <rect x="21" y="30" width="1" height="1" fill="#FFFFFF" opacity="0.6"/>
</svg>
