<svg xmlns="http://www.w3.org/2000/svg" viewBox="0 0 32 32" width="32" height="32" shape-rendering="crispEdges">
  <!-- Cabbage - Stage 3 (mature head) -->

  <!-- Soil -->
  <rect x="0" y="24" width="32" height="8" fill="#5D4037"/>
  <rect x="4" y="26" width="8" height="3" fill="#4E342E"/>
  <rect x="20" y="25" width="6" height="2" fill="#6D4C41"/>

  <!-- Outer leaves -->
  <rect x="2" y="14" width="28" height="10" fill="#66BB6A"/>
  <rect x="4" y="12" width="24" height="4" fill="#81C784"/>
  <rect x="0" y="16" width="4" height="6" fill="#4CAF50"/>
  <rect x="28" y="16" width="4" height="6" fill="#4CAF50"/>
  <rect x="6" y="22" width="20" height="3" fill="#558B2F"/>

  <!-- Middle leaves -->
  <rect x="6" y="10" width="20" height="12" fill="#81C784"/>
  <rect x="8" y="8" width="16" height="4" fill="#A5D6A7"/>

  <!-- Inner head -->
  <rect x="10" y="10" width="12" height="10" fill="#C8E6C9"/>
  <rect x="12" y="8" width="8" height="4" fill="#E8F5E9"/>

  <!-- Leaf veins/details -->
  <rect x="14" y="12" width="4" height="6" fill="#A5D6A7"/>
  <rect x="15" y="10" width="2" height="4" fill="#C8E6C9"/>

  <!-- Highlights -->
  <rect x="11" y="11" width="2" height="3" fill="#E8F5E9"/>
  <rect x="19" y="12" width="2" height="2" fill="#E8F5E9"/>
</svg>
