<svg xmlns="http://www.w3.org/2000/svg" viewBox="0 0 32 32" width="32" height="32" shape-rendering="crispEdges">
  <!-- Carrots growing in soil -->

  <!-- Soil -->
  <rect x="0" y="16" width="32" height="16" fill="#5D4037"/>
  <rect x="2" y="18" width="6" height="4" fill="#4E342E"/>
  <rect x="12" y="20" width="8" height="4" fill="#6D4C41"/>
  <rect x="24" y="18" width="6" height="4" fill="#4E342E"/>

  <!-- Carrot tops (visible above ground) -->
  <rect x="4" y="8" width="4" height="8" fill="#4CAF50"/>
  <rect x="5" y="6" width="2" height="4" fill="#66BB6A"/>
  <rect x="3" y="10" width="2" height="4" fill="#81C784"/>
  <rect x="7" y="9" width="2" height="5" fill="#81C784"/>
  <rect x="4" y="4" width="1" height="4" fill="#8BC34A"/>
  <rect x="6" y="5" width="1" height="3" fill="#8BC34A"/>

  <rect x="14" y="10" width="4" height="6" fill="#4CAF50"/>
  <rect x="15" y="8" width="2" height="4" fill="#66BB6A"/>
  <rect x="13" y="12" width="2" height="3" fill="#81C784"/>
  <rect x="17" y="11" width="2" height="4" fill="#81C784"/>
  <rect x="14" y="6" width="1" height="4" fill="#8BC34A"/>
  <rect x="16" y="7" width="1" height="3" fill="#8BC34A"/>

  <rect x="24" y="9" width="4" height="7" fill="#4CAF50"/>
  <rect x="25" y="7" width="2" height="4" fill="#66BB6A"/>
  <rect x="23" y="11" width="2" height="4" fill="#81C784"/>
  <rect x="27" y="10" width="2" height="5" fill="#81C784"/>
  <rect x="24" y="5" width="1" height="4" fill="#8BC34A"/>
  <rect x="26" y="6" width="1" height="3" fill="#8BC34A"/>

  <!-- Carrots underground (peek) -->
  <rect x="5" y="16" width="2" height="6" fill="#FF9800"/>
  <rect x="5" y="16" width="1" height="4" fill="#FFB74D"/>
  <rect x="15" y="16" width="2" height="5" fill="#FF9800"/>
  <rect x="15" y="16" width="1" height="3" fill="#FFB74D"/>
  <rect x="25" y="16" width="2" height="7" fill="#FF9800"/>
  <rect x="25" y="16" width="1" height="5" fill="#FFB74D"/>
</svg>
