<svg xmlns="http://www.w3.org/2000/svg" viewBox="0 0 32 32" width="32" height="32" shape-rendering="crispEdges">
  <!-- Corn - Stage 2 (growing stalks) -->

  <!-- Soil -->
  <rect x="0" y="28" width="32" height="4" fill="#5D4037"/>

  <!-- Corn stalks -->
  <rect x="6" y="10" width="3" height="18" fill="#558B2F"/>
  <rect x="7" y="8" width="2" height="4" fill="#689F38"/>

  <!-- Leaves -->
  <rect x="3" y="12" width="4" height="2" fill="#7CB342"/>
  <rect x="2" y="13" width="2" height="3" fill="#8BC34A"/>
  <rect x="9" y="14" width="4" height="2" fill="#7CB342"/>
  <rect x="11" y="15" width="2" height="3" fill="#8BC34A"/>
  <rect x="4" y="18" width="3" height="2" fill="#689F38"/>
  <rect x="8" y="20" width="3" height="2" fill="#689F38"/>

  <rect x="20" y="8" width="3" height="20" fill="#558B2F"/>
  <rect x="21" y="6" width="2" height="4" fill="#689F38"/>

  <!-- Leaves -->
  <rect x="17" y="10" width="4" height="2" fill="#7CB342"/>
  <rect x="16" y="11" width="2" height="3" fill="#8BC34A"/>
  <rect x="23" y="12" width="4" height="2" fill="#7CB342"/>
  <rect x="25" y="13" width="2" height="3" fill="#8BC34A"/>
  <rect x="18" y="16" width="3" height="2" fill="#689F38"/>
  <rect x="22" y="18" width="3" height="2" fill="#689F38"/>
</svg>
