<svg xmlns="http://www.w3.org/2000/svg" viewBox="0 0 32 32" width="32" height="32" shape-rendering="crispEdges">
  <!-- Potato - Stage 3 (mature, ready to harvest) -->

  <!-- Soil -->
  <rect x="0" y="16" width="32" height="16" fill="#5D4037"/>
  <rect x="4" y="18" width="8" height="4" fill="#4E342E"/>
  <rect x="18" y="20" width="10" height="4" fill="#6D4C41"/>

  <!-- Above ground foliage -->
  <rect x="6" y="8" width="8" height="8" fill="#4CAF50"/>
  <rect x="8" y="6" width="4" height="4" fill="#66BB6A"/>
  <rect x="4" y="10" width="4" height="4" fill="#81C784"/>
  <rect x="12" y="9" width="4" height="5" fill="#81C784"/>
  <rect x="7" y="4" width="2" height="4" fill="#8BC34A"/>
  <rect x="10" y="5" width="2" height="3" fill="#8BC34A"/>

  <rect x="18" y="6" width="8" height="10" fill="#4CAF50"/>
  <rect x="20" y="4" width="4" height="4" fill="#66BB6A"/>
  <rect x="16" y="8" width="4" height="6" fill="#81C784"/>
  <rect x="24" y="7" width="4" height="7" fill="#81C784"/>
  <rect x="19" y="2" width="2" height="4" fill="#8BC34A"/>
  <rect x="22" y="3" width="2" height="3" fill="#8BC34A"/>

  <!-- Potatoes underground (visible through soil) -->
  <rect x="4" y="20" width="6" height="5" fill="#D4A574"/>
  <rect x="5" y="21" width="4" height="3" fill="#E0B98A"/>
  <rect x="5" y="21" width="2" height="1" fill="#ECC9A0"/>

  <rect x="12" y="22" width="5" height="4" fill="#C9956C"/>
  <rect x="13" y="23" width="3" height="2" fill="#D4A574"/>

  <rect x="20" y="19" width="7" height="6" fill="#D4A574"/>
  <rect x="21" y="20" width="5" height="4" fill="#E0B98A"/>
  <rect x="22" y="21" width="2" height="2" fill="#ECC9A0"/>

  <rect x="24" y="26" width="4" height="3" fill="#C9956C"/>
</svg>
