<svg xmlns="http://www.w3.org/2000/svg" viewBox="0 0 32 32" width="32" height="32" shape-rendering="crispEdges">
  <!-- Pumpkin patch -->

  <!-- Soil/ground -->
  <rect x="0" y="24" width="32" height="8" fill="#5D4037"/>
  <rect x="4" y="25" width="8" height="3" fill="#4E342E"/>
  <rect x="20" y="26" width="8" height="2" fill="#6D4C41"/>

  <!-- Vines -->
  <rect x="0" y="18" width="32" height="2" fill="#388E3C"/>
  <rect x="2" y="16" width="4" height="2" fill="#4CAF50"/>
  <rect x="14" y="15" width="6" height="3" fill="#4CAF50"/>
  <rect x="26" y="16" width="4" height="2" fill="#4CAF50"/>

  <!-- Leaves -->
  <rect x="0" y="14" width="4" height="4" fill="#66BB6A"/>
  <rect x="1" y="13" width="2" height="2" fill="#81C784"/>
  <rect x="10" y="12" width="5" height="5" fill="#4CAF50"/>
  <rect x="11" y="11" width="3" height="2" fill="#66BB6A"/>
  <rect x="22" y="13" width="5" height="4" fill="#66BB6A"/>
  <rect x="23" y="12" width="3" height="2" fill="#81C784"/>
  <rect x="28" y="14" width="4" height="4" fill="#4CAF50"/>

  <!-- Big pumpkin -->
  <rect x="4" y="16" width="10" height="8" fill="#FF9800"/>
  <rect x="6" y="14" width="6" height="2" fill="#FF9800"/>
  <rect x="6" y="24" width="6" height="2" fill="#E65100"/>
  <rect x="2" y="18" width="2" height="4" fill="#F57C00"/>
  <rect x="14" y="18" width="2" height="4" fill="#F57C00"/>

  <!-- Pumpkin segments -->
  <rect x="7" y="16" width="2" height="8" fill="#F57C00"/>
  <rect x="11" y="16" width="2" height="8" fill="#E65100"/>

  <!-- Pumpkin highlights -->
  <rect x="4" y="17" width="3" height="4" fill="#FFB74D"/>
  <rect x="5" y="18" width="1" height="2" fill="#FFCC80"/>

  <!-- Stem -->
  <rect x="8" y="12" width="2" height="3" fill="#5D4037"/>
  <rect x="8" y="12" width="1" height="2" fill="#6D4C41"/>

  <!-- Small pumpkin -->
  <rect x="22" y="20" width="6" height="5" fill="#FF9800"/>
  <rect x="23" y="19" width="4" height="1" fill="#FF9800"/>
  <rect x="21" y="21" width="1" height="3" fill="#F57C00"/>
  <rect x="28" y="21" width="1" height="3" fill="#F57C00"/>
  <rect x="24" y="20" width="1" height="5" fill="#F57C00"/>
  <rect x="22" y="21" width="2" height="2" fill="#FFB74D"/>
  <rect x="24" y="18" width="1" height="2" fill="#5D4037"/>
</svg>
