<svg xmlns="http://www.w3.org/2000/svg" viewBox="0 0 32 32" width="32" height="32" shape-rendering="crispEdges">
  <!-- Wheat - Stage 2 (growing) -->

  <!-- Soil -->
  <rect x="0" y="26" width="32" height="6" fill="#5D4037"/>
  <rect x="4" y="27" width="6" height="2" fill="#4E342E"/>
  <rect x="20" y="28" width="8" height="2" fill="#6D4C41"/>

  <!-- Growing stalks -->
  <rect x="4" y="14" width="2" height="12" fill="#7CB342"/>
  <rect x="4" y="12" width="1" height="4" fill="#8BC34A"/>
  <rect x="3" y="14" width="1" height="3" fill="#9CCC65"/>
  <rect x="6" y="15" width="1" height="2" fill="#AED581"/>

  <rect x="10" y="12" width="2" height="14" fill="#689F38"/>
  <rect x="10" y="10" width="1" height="4" fill="#7CB342"/>
  <rect x="9" y="12" width="1" height="3" fill="#8BC34A"/>
  <rect x="12" y="13" width="1" height="2" fill="#9CCC65"/>

  <rect x="16" y="14" width="2" height="12" fill="#7CB342"/>
  <rect x="16" y="12" width="1" height="4" fill="#8BC34A"/>
  <rect x="15" y="14" width="1" height="3" fill="#9CCC65"/>

  <rect x="22" y="13" width="2" height="13" fill="#689F38"/>
  <rect x="22" y="11" width="1" height="4" fill="#7CB342"/>
  <rect x="21" y="13" width="1" height="3" fill="#8BC34A"/>
  <rect x="24" y="14" width="1" height="2" fill="#9CCC65"/>

  <rect x="28" y="15" width="2" height="11" fill="#7CB342"/>
  <rect x="28" y="13" width="1" height="4" fill="#8BC34A"/>
</svg>
