<svg xmlns="http://www.w3.org/2000/svg" viewBox="0 0 32 32" width="32" height="32" shape-rendering="crispEdges">
  <!-- Wheat - Stage 3 (mature/golden) -->

  <!-- Soil -->
  <rect x="0" y="28" width="32" height="4" fill="#5D4037"/>

  <!-- Golden wheat stalks -->
  <rect x="2" y="8" width="2" height="20" fill="#FDD835"/>
  <rect x="2" y="6" width="1" height="4" fill="#FFEB3B"/>
  <rect x="1" y="8" width="1" height="3" fill="#FFF59D"/>

  <rect x="6" y="6" width="2" height="22" fill="#F9A825"/>
  <rect x="6" y="4" width="1" height="4" fill="#FDD835"/>
  <rect x="5" y="6" width="1" height="3" fill="#FFEB3B"/>
  <rect x="8" y="7" width="1" height="2" fill="#FFF59D"/>

  <rect x="11" y="7" width="2" height="21" fill="#FDD835"/>
  <rect x="11" y="5" width="1" height="4" fill="#FFEB3B"/>
  <rect x="10" y="7" width="1" height="3" fill="#FFF59D"/>

  <rect x="16" y="5" width="2" height="23" fill="#F9A825"/>
  <rect x="16" y="3" width="1" height="4" fill="#FDD835"/>
  <rect x="15" y="5" width="1" height="3" fill="#FFEB3B"/>
  <rect x="18" y="6" width="1" height="2" fill="#FFF59D"/>

  <rect x="21" y="7" width="2" height="21" fill="#FDD835"/>
  <rect x="21" y="5" width="1" height="4" fill="#FFEB3B"/>
  <rect x="20" y="7" width="1" height="3" fill="#FFF59D"/>

  <rect x="26" y="6" width="2" height="22" fill="#F9A825"/>
  <rect x="26" y="4" width="1" height="4" fill="#FDD835"/>
  <rect x="25" y="6" width="1" height="3" fill="#FFEB3B"/>
  <rect x="28" y="7" width="1" height="2" fill="#FFF59D"/>

  <!-- Wheat heads -->
  <rect x="1" y="2" width="3" height="5" fill="#FFB300"/>
  <rect x="2" y="1" width="1" height="2" fill="#FFC107"/>
  <rect x="5" y="0" width="3" height="5" fill="#FFA000"/>
  <rect x="6" y="0" width="1" height="1" fill="#FFB300"/>
  <rect x="10" y="1" width="3" height="5" fill="#FFB300"/>
  <rect x="15" y="0" width="3" height="4" fill="#FFA000"/>
  <rect x="16" y="0" width="1" height="1" fill="#FFB300"/>
  <rect x="20" y="1" width="3" height="5" fill="#FFB300"/>
  <rect x="25" y="0" width="3" height="5" fill="#FFA000"/>
  <rect x="26" y="0" width="1" height="1" fill="#FFB300"/>
</svg>
