<svg xmlns="http://www.w3.org/2000/svg" viewBox="0 0 32 32" width="32" height="32" shape-rendering="crispEdges">
  <!-- Wheat - Stage 1 (seedling) -->

  <!-- Soil -->
  <rect x="0" y="24" width="32" height="8" fill="#5D4037"/>
  <rect x="2" y="25" width="4" height="2" fill="#4E342E"/>
  <rect x="14" y="26" width="6" height="2" fill="#6D4C41"/>
  <rect x="26" y="25" width="4" height="2" fill="#4E342E"/>

  <!-- Small sprouts -->
  <rect x="6" y="20" width="2" height="4" fill="#8BC34A"/>
  <rect x="6" y="19" width="1" height="2" fill="#9CCC65"/>

  <rect x="14" y="21" width="2" height="3" fill="#7CB342"/>
  <rect x="14" y="20" width="1" height="2" fill="#8BC34A"/>

  <rect x="22" y="20" width="2" height="4" fill="#8BC34A"/>
  <rect x="23" y="19" width="1" height="2" fill="#9CCC65"/>

  <!-- Tiny leaves -->
  <rect x="5" y="20" width="1" height="1" fill="#AED581"/>
  <rect x="8" y="21" width="1" height="1" fill="#AED581"/>
  <rect x="13" y="21" width="1" height="1" fill="#AED581"/>
  <rect x="21" y="21" width="1" height="1" fill="#AED581"/>
  <rect x="24" y="20" width="1" height="1" fill="#AED581"/>
</svg>
