<svg xmlns="http://www.w3.org/2000/svg" viewBox="0 0 16 16" width="16" height="16" shape-rendering="crispEdges">
  <!-- Clothing: Leather Jacket - Black -->
  <rect x="3" y="3" width="10" height="12" fill="#212121"/>
  <rect x="4" y="4" width="8" height="10" fill="#424242"/>
  <!-- Collar (turned up) -->
  <rect x="4" y="2" width="3" height="3" fill="#212121"/>
  <rect x="9" y="2" width="3" height="3" fill="#212121"/>
  <rect x="6" y="3" width="4" height="2" fill="#424242"/>
  <!-- Lapels -->
  <rect x="4" y="4" width="2" height="4" fill="#212121"/>
  <rect x="10" y="4" width="2" height="4" fill="#212121"/>
  <!-- Zipper -->
  <rect x="7" y="5" width="2" height="8" fill="#9E9E9E"/>
  <rect x="7" y="5" width="1" height="8" fill="#757575"/>
  <!-- Sleeves -->
  <rect x="0" y="3" width="4" height="9" fill="#212121"/>
  <rect x="12" y="3" width="4" height="9" fill="#212121"/>
  <rect x="1" y="4" width="2" height="7" fill="#424242"/>
  <rect x="13" y="4" width="2" height="7" fill="#424242"/>
  <!-- Pockets -->
  <rect x="4" y="9" width="3" height="2" fill="#212121"/>
  <rect x="9" y="9" width="3" height="2" fill="#212121"/>
</svg>
