<svg xmlns="http://www.w3.org/2000/svg" viewBox="0 0 16 16" width="16" height="16" shape-rendering="crispEdges">
  <rect width="16" height="16" fill="#2E7D32"/>
  <!-- Flower 1 - pink -->
  <rect x="2" y="4" width="4" height="4" fill="#F48FB1"/>
  <rect x="3" y="3" width="2" height="2" fill="#F06292"/>
  <rect x="3" y="6" width="2" height="2" fill="#F06292"/>
  <rect x="1" y="5" width="2" height="2" fill="#F06292"/>
  <rect x="5" y="5" width="2" height="2" fill="#F06292"/>
  <rect x="3" y="5" width="2" height="2" fill="#FFE082"/>
  <rect x="3" y="8" width="1" height="4" fill="#4CAF50"/>
  <!-- Flower 2 - blue -->
  <rect x="10" y="6" width="4" height="4" fill="#90CAF9"/>
  <rect x="11" y="5" width="2" height="2" fill="#64B5F6"/>
  <rect x="11" y="8" width="2" height="2" fill="#64B5F6"/>
  <rect x="9" y="7" width="2" height="2" fill="#64B5F6"/>
  <rect x="13" y="7" width="2" height="2" fill="#64B5F6"/>
  <rect x="11" y="7" width="2" height="2" fill="#FFE082"/>
  <rect x="12" y="10" width="1" height="4" fill="#4CAF50"/>
  <!-- Sparkle -->
  <rect x="4" y="5" width="1" height="1" fill="#FFFFFF"/>
  <rect x="12" y="7" width="1" height="1" fill="#FFFFFF"/>
</svg>
