<svg xmlns="http://www.w3.org/2000/svg" viewBox="0 0 16 16" width="16" height="16" shape-rendering="crispEdges">
  <rect width="16" height="16" fill="#1B5E20"/>
  <!-- Branch -->
  <rect x="0" y="12" width="16" height="2" fill="#5D4037"/>
  <rect x="2" y="11" width="12" height="1" fill="#6D4C41"/>
  <!-- Body -->
  <rect x="5" y="6" width="6" height="6" fill="#8D6E63"/>
  <rect x="6" y="7" width="4" height="4" fill="#A1887F"/>
  <!-- Head -->
  <rect x="4" y="2" width="8" height="5" fill="#8D6E63"/>
  <rect x="5" y="3" width="6" height="3" fill="#A1887F"/>
  <!-- Ear tufts -->
  <rect x="4" y="1" width="2" height="2" fill="#6D4C41"/>
  <rect x="10" y="1" width="2" height="2" fill="#6D4C41"/>
  <!-- Eyes (big cute) -->
  <rect x="5" y="3" width="2" height="2" fill="#FFD54F"/>
  <rect x="9" y="3" width="2" height="2" fill="#FFD54F"/>
  <rect x="6" y="4" width="1" height="1" fill="#3E2723"/>
  <rect x="9" y="4" width="1" height="1" fill="#3E2723"/>
  <!-- Beak -->
  <rect x="7" y="5" width="2" height="1" fill="#FF8F00"/>
  <!-- Chest pattern -->
  <rect x="6" y="8" width="4" height="3" fill="#D7CCC8"/>
  <rect x="7" y="9" width="2" height="1" fill="#BCAAA4"/>
  <!-- Feet -->
  <rect x="6" y="11" width="2" height="1" fill="#FF8F00"/>
  <rect x="8" y="11" width="2" height="1" fill="#FF8F00"/>
</svg>
