<svg xmlns="http://www.w3.org/2000/svg" viewBox="0 0 16 16" width="16" height="16" shape-rendering="crispEdges">
  <rect width="16" height="16" fill="#1B5E20"/>
  <!-- Left wing -->
  <rect x="2" y="4" width="5" height="6" fill="#CE93D8"/>
  <rect x="3" y="3" width="3" height="2" fill="#E1BEE7"/>
  <rect x="3" y="9" width="3" height="2" fill="#E1BEE7"/>
  <rect x="4" y="5" width="2" height="3" fill="#F3E5F5"/>
  <!-- Right wing -->
  <rect x="9" y="4" width="5" height="6" fill="#CE93D8"/>
  <rect x="10" y="3" width="3" height="2" fill="#E1BEE7"/>
  <rect x="10" y="9" width="3" height="2" fill="#E1BEE7"/>
  <rect x="10" y="5" width="2" height="3" fill="#F3E5F5"/>
  <!-- Body -->
  <rect x="7" y="4" width="2" height="7" fill="#7B1FA2"/>
  <rect x="7" y="3" width="2" height="2" fill="#9C27B0"/>
  <!-- Antennae -->
  <rect x="6" y="2" width="1" height="2" fill="#5D4037"/>
  <rect x="9" y="2" width="1" height="2" fill="#5D4037"/>
  <rect x="5" y="1" width="1" height="1" fill="#CE93D8"/>
  <rect x="10" y="1" width="1" height="1" fill="#CE93D8"/>
  <!-- Wing sparkles -->
  <rect x="4" y="6" width="1" height="1" fill="#FFFFFF"/>
  <rect x="11" y="6" width="1" height="1" fill="#FFFFFF"/>
</svg>
