<svg xmlns="http://www.w3.org/2000/svg" viewBox="0 0 16 14" width="16" height="14" shape-rendering="crispEdges">
  <!-- Rain cloud -->

  <!-- Main body -->
  <rect x="2" y="2" width="12" height="4" fill="#90A4AE"/>
  <rect x="4" y="0" width="4" height="2" fill="#78909C"/>
  <rect x="9" y="1" width="4" height="1" fill="#78909C"/>

  <!-- Puffs -->
  <rect x="1" y="3" width="2" height="2" fill="#78909C"/>
  <rect x="13" y="3" width="2" height="2" fill="#78909C"/>
  <rect x="3" y="0" width="2" height="2" fill="#607D8B"/>
  <rect x="7" y="0" width="3" height="1" fill="#78909C"/>

  <!-- Shadow -->
  <rect x="3" y="5" width="10" height="1" fill="#607D8B"/>

  <!-- Rain drops -->
  <rect x="3" y="7" width="1" height="2" fill="#64B5F6"/>
  <rect x="6" y="8" width="1" height="2" fill="#64B5F6"/>
  <rect x="9" y="7" width="1" height="2" fill="#64B5F6"/>
  <rect x="12" y="8" width="1" height="2" fill="#64B5F6"/>
  <rect x="4" y="10" width="1" height="2" fill="#42A5F5"/>
  <rect x="8" y="11" width="1" height="2" fill="#42A5F5"/>
  <rect x="11" y="10" width="1" height="2" fill="#42A5F5"/>
</svg>
