<svg xmlns="http://www.w3.org/2000/svg" viewBox="0 0 16 14" width="16" height="14" shape-rendering="crispEdges">
  <!-- Snow cloud -->

  <!-- Main body -->
  <rect x="2" y="2" width="12" height="4" fill="#B0BEC5"/>
  <rect x="4" y="0" width="4" height="2" fill="#90A4AE"/>
  <rect x="9" y="1" width="4" height="1" fill="#90A4AE"/>

  <!-- Puffs -->
  <rect x="1" y="3" width="2" height="2" fill="#90A4AE"/>
  <rect x="13" y="3" width="2" height="2" fill="#90A4AE"/>
  <rect x="3" y="0" width="2" height="2" fill="#78909C"/>

  <!-- Shadow -->
  <rect x="3" y="5" width="10" height="1" fill="#78909C"/>

  <!-- Snowflakes -->
  <rect x="3" y="8" width="2" height="2" fill="#FFFFFF"/>
  <rect x="3" y="7" width="1" height="1" fill="#E3F2FD"/>
  <rect x="7" y="9" width="2" height="2" fill="#FFFFFF"/>
  <rect x="7" y="8" width="1" height="1" fill="#E3F2FD"/>
  <rect x="11" y="8" width="2" height="2" fill="#FFFFFF"/>
  <rect x="11" y="7" width="1" height="1" fill="#E3F2FD"/>
  <rect x="5" y="11" width="2" height="2" fill="#FFFFFF"/>
  <rect x="9" y="12" width="2" height="2" fill="#FFFFFF"/>
</svg>
