<svg xmlns="http://www.w3.org/2000/svg" viewBox="0 0 24 12" width="24" height="12" shape-rendering="crispEdges">
  <!-- Rainbow arc -->

  <!-- Red band -->
  <rect x="0" y="6" width="24" height="1" fill="#E53935"/>
  <rect x="2" y="5" width="20" height="1" fill="#E53935"/>
  <rect x="4" y="4" width="16" height="1" fill="#E53935"/>

  <!-- Orange band -->
  <rect x="1" y="7" width="22" height="1" fill="#FF9800"/>
  <rect x="3" y="6" width="18" height="1" fill="#FF9800"/>
  <rect x="5" y="5" width="14" height="1" fill="#FF9800"/>

  <!-- Yellow band -->
  <rect x="2" y="8" width="20" height="1" fill="#FFEB3B"/>
  <rect x="4" y="7" width="16" height="1" fill="#FFEB3B"/>
  <rect x="6" y="6" width="12" height="1" fill="#FFEB3B"/>

  <!-- Green band -->
  <rect x="3" y="9" width="18" height="1" fill="#4CAF50"/>
  <rect x="5" y="8" width="14" height="1" fill="#4CAF50"/>
  <rect x="7" y="7" width="10" height="1" fill="#4CAF50"/>

  <!-- Blue band -->
  <rect x="4" y="10" width="16" height="1" fill="#2196F3"/>
  <rect x="6" y="9" width="12" height="1" fill="#2196F3"/>
  <rect x="8" y="8" width="8" height="1" fill="#2196F3"/>

  <!-- Violet band -->
  <rect x="5" y="11" width="14" height="1" fill="#9C27B0"/>
  <rect x="7" y="10" width="10" height="1" fill="#9C27B0"/>
  <rect x="9" y="9" width="6" height="1" fill="#9C27B0"/>
</svg>
