<svg xmlns="http://www.w3.org/2000/svg" viewBox="0 0 14 10" width="14" height="10" shape-rendering="crispEdges">
  <!-- Flowering bush -->

  <!-- Main body -->
  <rect x="2" y="2" width="10" height="6" fill="#4CAF50"/>
  <rect x="0" y="4" width="2" height="4" fill="#388E3C"/>
  <rect x="12" y="4" width="2" height="4" fill="#388E3C"/>
  <rect x="4" y="0" width="6" height="2" fill="#4CAF50"/>
  <rect x="3" y="8" width="8" height="2" fill="#388E3C"/>

  <!-- Flowers -->
  <rect x="3" y="2" width="2" height="2" fill="#E91E63"/>
  <rect x="3" y="2" width="1" height="1" fill="#F8BBD9"/>
  <rect x="7" y="1" width="2" height="2" fill="#FFEB3B"/>
  <rect x="7" y="1" width="1" height="1" fill="#FFF9C4"/>
  <rect x="10" y="3" width="2" height="2" fill="#E91E63"/>
  <rect x="10" y="3" width="1" height="1" fill="#F8BBD9"/>
  <rect x="5" y="5" width="2" height="2" fill="#FFEB3B"/>
  <rect x="5" y="5" width="1" height="1" fill="#FFF9C4"/>
  <rect x="9" y="6" width="2" height="2" fill="#9C27B0"/>
  <rect x="9" y="6" width="1" height="1" fill="#E1BEE7"/>

  <!-- Shadows -->
  <rect x="3" y="7" width="2" height="1" fill="#2E7D32"/>
</svg>
