<svg xmlns="http://www.w3.org/2000/svg" viewBox="0 0 20 8" width="20" height="8" shape-rendering="crispEdges">
  <!-- Fallen log -->

  <!-- Log body -->
  <rect x="0" y="2" width="20" height="4" fill="#6D4C41"/>
  <rect x="0" y="2" width="20" height="1" fill="#8D6E63"/>
  <rect x="0" y="5" width="20" height="1" fill="#5D4037"/>

  <!-- Bark texture -->
  <rect x="3" y="3" width="1" height="2" fill="#5D4037"/>
  <rect x="7" y="3" width="1" height="2" fill="#5D4037"/>
  <rect x="12" y="3" width="1" height="2" fill="#5D4037"/>
  <rect x="16" y="3" width="1" height="2" fill="#5D4037"/>

  <!-- Cut end left -->
  <rect x="0" y="1" width="3" height="6" fill="#A1887F"/>
  <rect x="1" y="2" width="1" height="4" fill="#BCAAA4"/>
  <rect x="1" y="3" width="1" height="2" fill="#8D6E63"/>

  <!-- Cut end right -->
  <rect x="17" y="1" width="3" height="6" fill="#A1887F"/>
  <rect x="18" y="2" width="1" height="4" fill="#BCAAA4"/>
  <rect x="18" y="3" width="1" height="2" fill="#8D6E63"/>

  <!-- Moss -->
  <rect x="5" y="2" width="2" height="1" fill="#66BB6A"/>
  <rect x="14" y="2" width="2" height="1" fill="#4CAF50"/>
</svg>
