<svg xmlns="http://www.w3.org/2000/svg" viewBox="0 0 24 28" width="24" height="28" shape-rendering="crispEdges">
  <!-- Cherry blossom tree - Pink spring tree -->

  <!-- Blossoms -->
  <rect x="6" y="0" width="12" height="4" fill="#F48FB1"/>
  <rect x="4" y="2" width="16" height="6" fill="#F06292"/>
  <rect x="2" y="6" width="20" height="6" fill="#EC407A"/>
  <rect x="4" y="10" width="16" height="4" fill="#F06292"/>

  <!-- Blossom highlights -->
  <rect x="8" y="1" width="3" height="2" fill="#F8BBD9"/>
  <rect x="15" y="3" width="3" height="2" fill="#FCE4EC"/>
  <rect x="5" y="6" width="4" height="3" fill="#F8BBD9"/>
  <rect x="16" y="8" width="3" height="2" fill="#F8BBD9"/>
  <rect x="10" y="10" width="4" height="2" fill="#FCE4EC"/>

  <!-- Some green leaves showing -->
  <rect x="6" y="8" width="2" height="2" fill="#66BB6A"/>
  <rect x="14" y="6" width="2" height="2" fill="#4CAF50"/>

  <!-- Trunk -->
  <rect x="9" y="12" width="6" height="14" fill="#5D4037"/>
  <rect x="10" y="14" width="2" height="10" fill="#4E342E"/>
  <rect x="12" y="13" width="2" height="11" fill="#6D4C41"/>

  <!-- Branches visible -->
  <rect x="6" y="12" width="3" height="2" fill="#5D4037"/>
  <rect x="15" y="12" width="3" height="2" fill="#5D4037"/>

  <!-- Roots -->
  <rect x="8" y="26" width="8" height="2" fill="#4E342E"/>
</svg>
