<svg xmlns="http://www.w3.org/2000/svg" viewBox="0 0 22 28" width="22" height="28" shape-rendering="crispEdges">
  <!-- Apple tree with fruit -->

  <!-- Canopy -->
  <rect x="4" y="0" width="14" height="4" fill="#388E3C"/>
  <rect x="2" y="2" width="18" height="6" fill="#4CAF50"/>
  <rect x="0" y="6" width="22" height="6" fill="#66BB6A"/>
  <rect x="2" y="10" width="18" height="4" fill="#4CAF50"/>

  <!-- Highlights -->
  <rect x="6" y="2" width="4" height="2" fill="#81C784"/>
  <rect x="14" y="4" width="3" height="2" fill="#81C784"/>
  <rect x="4" y="8" width="4" height="3" fill="#A5D6A7"/>

  <!-- Apples! -->
  <rect x="5" y="4" width="2" height="2" fill="#E53935"/>
  <rect x="12" y="3" width="2" height="2" fill="#E53935"/>
  <rect x="3" y="8" width="2" height="2" fill="#C62828"/>
  <rect x="9" y="6" width="2" height="2" fill="#E53935"/>
  <rect x="15" y="8" width="2" height="2" fill="#C62828"/>
  <rect x="7" y="10" width="2" height="2" fill="#E53935"/>
  <rect x="13" y="11" width="2" height="2" fill="#E53935"/>

  <!-- Trunk -->
  <rect x="8" y="12" width="6" height="14" fill="#6D4C41"/>
  <rect x="9" y="14" width="2" height="10" fill="#5D4037"/>
  <rect x="11" y="13" width="2" height="11" fill="#8D6E63"/>

  <!-- Roots -->
  <rect x="7" y="26" width="8" height="2" fill="#4E342E"/>
</svg>
