<svg xmlns="http://www.w3.org/2000/svg" viewBox="0 0 24 32" width="24" height="32" shape-rendering="crispEdges">
  <!-- Oak tree - Large deciduous -->

  <!-- Canopy -->
  <rect x="4" y="0" width="16" height="6" fill="#388E3C"/>
  <rect x="2" y="4" width="20" height="8" fill="#4CAF50"/>
  <rect x="0" y="8" width="24" height="8" fill="#66BB6A"/>
  <rect x="2" y="14" width="20" height="4" fill="#4CAF50"/>

  <!-- Canopy highlights -->
  <rect x="6" y="2" width="4" height="3" fill="#81C784"/>
  <rect x="14" y="3" width="3" height="2" fill="#81C784"/>
  <rect x="4" y="8" width="5" height="4" fill="#81C784"/>
  <rect x="16" y="10" width="4" height="3" fill="#A5D6A7"/>

  <!-- Canopy shadows -->
  <rect x="10" y="6" width="6" height="3" fill="#2E7D32"/>
  <rect x="6" y="12" width="4" height="3" fill="#2E7D32"/>
  <rect x="14" y="14" width="4" height="2" fill="#2E7D32"/>

  <!-- Trunk -->
  <rect x="9" y="16" width="6" height="14" fill="#6D4C41"/>
  <rect x="10" y="18" width="2" height="10" fill="#5D4037"/>
  <rect x="12" y="17" width="2" height="11" fill="#8D6E63"/>

  <!-- Roots -->
  <rect x="7" y="28" width="3" height="2" fill="#5D4037"/>
  <rect x="14" y="28" width="3" height="2" fill="#5D4037"/>
  <rect x="8" y="30" width="8" height="2" fill="#4E342E"/>
</svg>
