<svg xmlns="http://www.w3.org/2000/svg" viewBox="0 0 24 32" width="24" height="32" shape-rendering="crispEdges">
  <!-- Palm tree - Tropical -->

  <!-- Fronds top -->
  <rect x="10" y="0" width="4" height="3" fill="#2E7D32"/>
  <rect x="8" y="1" width="8" height="2" fill="#388E3C"/>

  <!-- Fronds spreading -->
  <rect x="0" y="3" width="8" height="3" fill="#4CAF50"/>
  <rect x="16" y="3" width="8" height="3" fill="#4CAF50"/>
  <rect x="2" y="5" width="6" height="4" fill="#66BB6A"/>
  <rect x="16" y="5" width="6" height="4" fill="#66BB6A"/>

  <!-- Center fronds -->
  <rect x="6" y="4" width="12" height="4" fill="#388E3C"/>
  <rect x="8" y="6" width="8" height="3" fill="#4CAF50"/>

  <!-- Drooping frond tips -->
  <rect x="0" y="6" width="3" height="4" fill="#81C784"/>
  <rect x="21" y="6" width="3" height="4" fill="#81C784"/>
  <rect x="4" y="8" width="3" height="3" fill="#66BB6A"/>
  <rect x="17" y="8" width="3" height="3" fill="#66BB6A"/>

  <!-- Coconuts -->
  <rect x="9" y="8" width="2" height="2" fill="#795548"/>
  <rect x="11" y="9" width="2" height="2" fill="#6D4C41"/>
  <rect x="10" y="10" width="2" height="2" fill="#8D6E63"/>

  <!-- Trunk (curved look) -->
  <rect x="10" y="11" width="4" height="4" fill="#A1887F"/>
  <rect x="11" y="15" width="4" height="4" fill="#8D6E63"/>
  <rect x="10" y="19" width="4" height="4" fill="#A1887F"/>
  <rect x="11" y="23" width="4" height="4" fill="#8D6E63"/>
  <rect x="10" y="27" width="4" height="3" fill="#A1887F"/>

  <!-- Trunk texture -->
  <rect x="10" y="12" width="4" height="1" fill="#795548"/>
  <rect x="11" y="16" width="4" height="1" fill="#6D4C41"/>
  <rect x="10" y="20" width="4" height="1" fill="#795548"/>
  <rect x="11" y="24" width="4" height="1" fill="#6D4C41"/>

  <!-- Base -->
  <rect x="9" y="30" width="6" height="2" fill="#5D4037"/>
</svg>
