<svg xmlns="http://www.w3.org/2000/svg" viewBox="0 0 20 24" width="20" height="24" shape-rendering="crispEdges">
  <!-- Sailboat -->

  <!-- Sail -->
  <rect x="10" y="0" width="8" height="14" fill="#FFFFFF"/>
  <rect x="9" y="2" width="1" height="12" fill="#FAFAFA"/>
  <rect x="11" y="1" width="6" height="4" fill="#F5F5F5"/>
  <rect x="12" y="6" width="4" height="4" fill="#EEEEEE"/>

  <!-- Mast -->
  <rect x="9" y="0" width="1" height="16" fill="#795548"/>

  <!-- Flag -->
  <rect x="10" y="0" width="3" height="2" fill="#E53935"/>

  <!-- Hull -->
  <rect x="2" y="16" width="16" height="6" fill="#1565C0"/>
  <rect x="4" y="14" width="12" height="2" fill="#1976D2"/>
  <rect x="0" y="18" width="2" height="3" fill="#0D47A1"/>
  <rect x="18" y="18" width="2" height="3" fill="#1E88E5"/>
  <rect x="6" y="22" width="8" height="2" fill="#0D47A1"/>

  <!-- Deck -->
  <rect x="4" y="16" width="12" height="2" fill="#A1887F"/>
  <rect x="6" y="16" width="8" height="1" fill="#8D6E63"/>

  <!-- Cabin -->
  <rect x="3" y="14" width="4" height="3" fill="#795548"/>
  <rect x="4" y="15" width="2" height="1" fill="#81D4FA"/>

  <!-- Rim stripe -->
  <rect x="2" y="18" width="16" height="1" fill="#FFFFFF"/>
</svg>
