<svg xmlns="http://www.w3.org/2000/svg" viewBox="0 0 20 12" width="20" height="12" shape-rendering="crispEdges">
  <!-- Rowboat -->

  <!-- Hull -->
  <rect x="2" y="4" width="16" height="6" fill="#8D6E63"/>
  <rect x="4" y="2" width="12" height="2" fill="#8D6E63"/>
  <rect x="0" y="6" width="2" height="3" fill="#6D4C41"/>
  <rect x="18" y="6" width="2" height="3" fill="#795548"/>
  <rect x="6" y="10" width="8" height="2" fill="#6D4C41"/>

  <!-- Interior -->
  <rect x="4" y="4" width="12" height="4" fill="#A1887F"/>

  <!-- Seats -->
  <rect x="5" y="5" width="4" height="2" fill="#6D4C41"/>
  <rect x="11" y="5" width="4" height="2" fill="#6D4C41"/>

  <!-- Oar holders -->
  <rect x="3" y="4" width="1" height="3" fill="#5D4037"/>
  <rect x="16" y="4" width="1" height="3" fill="#5D4037"/>

  <!-- Oars -->
  <rect x="0" y="2" width="4" height="1" fill="#795548"/>
  <rect x="0" y="2" width="2" height="2" fill="#A1887F"/>
  <rect x="16" y="2" width="4" height="1" fill="#795548"/>
  <rect x="18" y="2" width="2" height="2" fill="#A1887F"/>

  <!-- Rim -->
  <rect x="4" y="2" width="12" height="1" fill="#6D4C41"/>
</svg>
