<svg xmlns="http://www.w3.org/2000/svg" viewBox="0 0 20 14" width="20" height="14" shape-rendering="crispEdges">
  <!-- Wooden cart -->

  <!-- Cart bed -->
  <rect x="2" y="2" width="14" height="6" fill="#8D6E63"/>
  <rect x="3" y="3" width="12" height="4" fill="#A1887F"/>
  <rect x="2" y="2" width="14" height="1" fill="#6D4C41"/>

  <!-- Side walls -->
  <rect x="2" y="2" width="1" height="6" fill="#6D4C41"/>
  <rect x="15" y="2" width="1" height="6" fill="#6D4C41"/>
  <rect x="2" y="0" width="14" height="2" fill="#795548"/>

  <!-- Handle -->
  <rect x="16" y="4" width="4" height="2" fill="#6D4C41"/>
  <rect x="18" y="3" width="2" height="1" fill="#5D4037"/>

  <!-- Wheels -->
  <rect x="3" y="8" width="4" height="4" fill="#5D4037"/>
  <rect x="4" y="9" width="2" height="2" fill="#4E342E"/>
  <rect x="4" y="9" width="1" height="1" fill="#6D4C41"/>

  <rect x="11" y="8" width="4" height="4" fill="#5D4037"/>
  <rect x="12" y="9" width="2" height="2" fill="#4E342E"/>
  <rect x="12" y="9" width="1" height="1" fill="#6D4C41"/>

  <!-- Axle -->
  <rect x="5" y="8" width="8" height="1" fill="#424242"/>
</svg>
