<svg xmlns="http://www.w3.org/2000/svg" viewBox="0 0 32 32" width="32" height="32" shape-rendering="crispEdges">
  <!-- Small Cabin (Starter Home) -->

  <!-- Foundation -->
  <rect x="4" y="26" width="24" height="4" fill="#5D4037"/>
  <rect x="3" y="27" width="1" height="3" fill="#4E342E"/>
  <rect x="28" y="27" width="1" height="3" fill="#3E2723"/>
  <rect x="4" y="30" width="24" height="2" fill="#3E2723"/>

  <!-- Walls -->
  <rect x="4" y="14" width="24" height="12" fill="#BCAAA4"/>
  <rect x="5" y="15" width="22" height="10" fill="#D7CCC8"/>

  <!-- Wall boards/siding -->
  <rect x="5" y="17" width="22" height="1" fill="#BCAAA4"/>
  <rect x="5" y="20" width="22" height="1" fill="#BCAAA4"/>
  <rect x="5" y="23" width="22" height="1" fill="#BCAAA4"/>

  <!-- Roof -->
  <rect x="2" y="10" width="28" height="5" fill="#8D6E63"/>
  <rect x="4" y="8" width="24" height="2" fill="#A1887F"/>
  <rect x="6" y="6" width="20" height="2" fill="#8D6E63"/>
  <rect x="8" y="4" width="16" height="2" fill="#6D4C41"/>
  <rect x="10" y="3" width="12" height="1" fill="#5D4037"/>

  <!-- Roof shingle lines -->
  <rect x="2" y="12" width="28" height="1" fill="#6D4C41"/>
  <rect x="4" y="9" width="24" height="1" fill="#6D4C41"/>
  <rect x="8" y="5" width="16" height="1" fill="#5D4037"/>

  <!-- Door -->
  <rect x="13" y="18" width="6" height="8" fill="#6D4C41"/>
  <rect x="14" y="19" width="4" height="6" fill="#5D4037"/>
  <rect x="14" y="19" width="2" height="3" fill="#4E342E"/>
  <rect x="16" y="22" width="2" height="3" fill="#4E342E"/>
  <rect x="17" y="22" width="1" height="1" fill="#F5A623"/>

  <!-- Windows -->
  <rect x="6" y="17" width="5" height="5" fill="#4E342E"/>
  <rect x="7" y="18" width="3" height="3" fill="#64B5F6"/>
  <rect x="8" y="19" width="1" height="1" fill="#BBDEFB"/>
  <rect x="8" y="18" width="1" height="3" fill="#42A5F5"/>

  <rect x="21" y="17" width="5" height="5" fill="#4E342E"/>
  <rect x="22" y="18" width="3" height="3" fill="#64B5F6"/>
  <rect x="23" y="19" width="1" height="1" fill="#BBDEFB"/>
  <rect x="23" y="18" width="1" height="3" fill="#42A5F5"/>

  <!-- Chimney -->
  <rect x="22" y="1" width="4" height="7" fill="#757575"/>
  <rect x="22" y="1" width="1" height="7" fill="#9E9E9E"/>
  <rect x="25" y="2" width="1" height="6" fill="#616161"/>
  <rect x="21" y="0" width="6" height="2" fill="#616161"/>

  <!-- Smoke puff -->
  <rect x="23" y="-2" width="2" height="2" fill="#BDBDBD"/>
</svg>
