<svg xmlns="http://www.w3.org/2000/svg" viewBox="0 0 48 64" width="48" height="64" shape-rendering="crispEdges">
  <!-- Windmill -->

  <!-- Foundation -->
  <rect x="12" y="56" width="24" height="6" fill="#5D4037"/>
  <rect x="12" y="62" width="24" height="2" fill="#3E2723"/>

  <!-- Main tower (tapered) -->
  <rect x="14" y="28" width="20" height="28" fill="#D7CCC8"/>
  <rect x="15" y="30" width="8" height="24" fill="#EFEBE9"/>
  <rect x="23" y="30" width="10" height="24" fill="#BCAAA4"/>

  <!-- Tower bands -->
  <rect x="14" y="36" width="20" height="2" fill="#A1887F"/>
  <rect x="14" y="46" width="20" height="2" fill="#A1887F"/>

  <!-- Tower base (wider) -->
  <rect x="12" y="50" width="24" height="6" fill="#BCAAA4"/>
  <rect x="12" y="50" width="12" height="6" fill="#D7CCC8"/>

  <!-- Roof (pointed) -->
  <rect x="12" y="22" width="24" height="7" fill="#8D6E63"/>
  <rect x="14" y="18" width="20" height="4" fill="#6D4C41"/>
  <rect x="16" y="14" width="16" height="4" fill="#8D6E63"/>
  <rect x="18" y="10" width="12" height="4" fill="#6D4C41"/>
  <rect x="20" y="6" width="8" height="4" fill="#5D4037"/>
  <rect x="22" y="4" width="4" height="2" fill="#4E342E"/>

  <!-- Blade hub -->
  <rect x="22" y="20" width="4" height="4" fill="#5D4037"/>
  <rect x="23" y="21" width="2" height="2" fill="#8D6E63"/>

  <!-- Windmill blades -->
  <!-- Top blade -->
  <rect x="23" y="2" width="2" height="18" fill="#A1887F"/>
  <rect x="21" y="2" width="6" height="3" fill="#D7CCC8"/>
  <rect x="22" y="5" width="4" height="4" fill="#BCAAA4"/>

  <!-- Right blade -->
  <rect x="26" y="21" width="18" height="2" fill="#A1887F"/>
  <rect x="41" y="19" width="3" height="6" fill="#D7CCC8"/>
  <rect x="38" y="20" width="4" height="4" fill="#BCAAA4"/>

  <!-- Bottom blade -->
  <rect x="23" y="24" width="2" height="18" fill="#8D6E63"/>
  <rect x="21" y="39" width="6" height="3" fill="#BCAAA4"/>
  <rect x="22" y="35" width="4" height="4" fill="#A1887F"/>

  <!-- Left blade -->
  <rect x="4" y="21" width="18" height="2" fill="#8D6E63"/>
  <rect x="4" y="19" width="3" height="6" fill="#BCAAA4"/>
  <rect x="6" y="20" width="4" height="4" fill="#A1887F"/>

  <!-- Door -->
  <rect x="19" y="48" width="10" height="8" fill="#5D4037"/>
  <rect x="20" y="49" width="8" height="6" fill="#4E342E"/>
  <rect x="26" y="51" width="1" height="2" fill="#F5A623"/>

  <!-- Windows -->
  <rect x="16" y="32" width="5" height="5" fill="#4E342E"/>
  <rect x="17" y="33" width="3" height="3" fill="#64B5F6"/>
  <rect x="17" y="33" width="1" height="1" fill="#BBDEFB"/>

  <rect x="27" y="32" width="5" height="5" fill="#4E342E"/>
  <rect x="28" y="33" width="3" height="3" fill="#64B5F6"/>
  <rect x="28" y="33" width="1" height="1" fill="#BBDEFB"/>

  <!-- Grain sacks at base -->
  <rect x="10" y="54" width="4" height="4" fill="#A1887F"/>
  <rect x="34" y="54" width="4" height="4" fill="#8D6E63"/>
</svg>
