<svg xmlns="http://www.w3.org/2000/svg" viewBox="0 0 24 24" width="24" height="24" shape-rendering="crispEdges">
  <!-- Garden Shed -->

  <!-- Foundation -->
  <rect x="2" y="20" width="20" height="3" fill="#5D4037"/>
  <rect x="2" y="23" width="20" height="1" fill="#3E2723"/>

  <!-- Walls -->
  <rect x="2" y="10" width="20" height="10" fill="#8D6E63"/>
  <rect x="3" y="11" width="18" height="8" fill="#A1887F"/>

  <!-- Wood plank lines -->
  <rect x="3" y="13" width="18" height="1" fill="#8D6E63"/>
  <rect x="3" y="16" width="18" height="1" fill="#8D6E63"/>

  <!-- Roof -->
  <rect x="1" y="6" width="22" height="5" fill="#6D4C41"/>
  <rect x="3" y="4" width="18" height="2" fill="#5D4037"/>
  <rect x="5" y="3" width="14" height="1" fill="#4E342E"/>

  <!-- Roof shingle lines -->
  <rect x="1" y="9" width="22" height="1" fill="#5D4037"/>

  <!-- Door -->
  <rect x="8" y="12" width="8" height="8" fill="#5D4037"/>
  <rect x="9" y="13" width="6" height="6" fill="#4E342E"/>
  <rect x="9" y="13" width="3" height="6" fill="#3E2723"/>
  <rect x="13" y="15" width="1" height="2" fill="#F5A623"/>

  <!-- Small window -->
  <rect x="3" y="12" width="4" height="4" fill="#4E342E"/>
  <rect x="4" y="13" width="2" height="2" fill="#64B5F6"/>
  <rect x="4" y="13" width="1" height="1" fill="#BBDEFB"/>

  <!-- Garden tools leaning outside -->
  <rect x="18" y="14" width="1" height="6" fill="#6D4C41"/>
  <rect x="18" y="13" width="2" height="2" fill="#9E9E9E"/>

  <!-- Flower pot -->
  <rect x="1" y="18" width="3" height="3" fill="#8D6E63"/>
  <rect x="1" y="17" width="3" height="1" fill="#66BB6A"/>
  <rect x="2" y="16" width="1" height="1" fill="#E91E63"/>
</svg>
