<svg xmlns="http://www.w3.org/2000/svg" viewBox="0 0 48 48" width="48" height="48" shape-rendering="crispEdges">
  <!-- Red Barn -->

  <!-- Foundation -->
  <rect x="4" y="40" width="40" height="6" fill="#5D4037"/>
  <rect x="4" y="46" width="40" height="2" fill="#3E2723"/>

  <!-- Barn walls (red) -->
  <rect x="4" y="20" width="40" height="20" fill="#C62828"/>
  <rect x="5" y="21" width="38" height="18" fill="#D32F2F"/>

  <!-- White trim -->
  <rect x="4" y="20" width="40" height="2" fill="#FAFAFA"/>
  <rect x="4" y="38" width="40" height="2" fill="#FAFAFA"/>
  <rect x="4" y="20" width="2" height="20" fill="#F5F5F5"/>
  <rect x="42" y="20" width="2" height="20" fill="#E0E0E0"/>

  <!-- Gambrel roof -->
  <rect x="2" y="14" width="44" height="7" fill="#C62828"/>
  <rect x="4" y="11" width="40" height="3" fill="#B71C1C"/>
  <rect x="8" y="8" width="32" height="3" fill="#C62828"/>
  <rect x="12" y="5" width="24" height="3" fill="#B71C1C"/>
  <rect x="16" y="3" width="16" height="2" fill="#C62828"/>
  <rect x="20" y="2" width="8" height="1" fill="#B71C1C"/>

  <!-- White X on barn -->
  <rect x="16" y="24" width="2" height="12" fill="#FAFAFA"/>
  <rect x="30" y="24" width="2" height="12" fill="#FAFAFA"/>
  <rect x="18" y="26" width="2" height="2" fill="#FAFAFA"/>
  <rect x="20" y="28" width="2" height="2" fill="#FAFAFA"/>
  <rect x="22" y="30" width="2" height="2" fill="#FAFAFA"/>
  <rect x="24" y="28" width="2" height="2" fill="#FAFAFA"/>
  <rect x="26" y="26" width="2" height="2" fill="#FAFAFA"/>
  <rect x="28" y="24" width="2" height="2" fill="#FAFAFA"/>
  <rect x="28" y="32" width="2" height="2" fill="#FAFAFA"/>
  <rect x="26" y="34" width="2" height="2" fill="#FAFAFA"/>
  <rect x="20" y="34" width="2" height="2" fill="#FAFAFA"/>
  <rect x="18" y="32" width="2" height="2" fill="#FAFAFA"/>

  <!-- Barn doors (large) -->
  <rect x="16" y="28" width="16" height="12" fill="#6D4C41"/>
  <rect x="17" y="29" width="7" height="10" fill="#5D4037"/>
  <rect x="24" y="29" width="7" height="10" fill="#4E342E"/>
  <rect x="22" y="32" width="2" height="4" fill="#F5A623"/>
  <rect x="24" y="32" width="2" height="4" fill="#D4900F"/>

  <!-- Hayloft door -->
  <rect x="19" y="10" width="10" height="6" fill="#6D4C41"/>
  <rect x="20" y="11" width="8" height="4" fill="#5D4037"/>
  <rect x="22" y="12" width="1" height="2" fill="#F5A623"/>

  <!-- Side windows -->
  <rect x="6" y="26" width="6" height="6" fill="#4E342E"/>
  <rect x="7" y="27" width="4" height="4" fill="#64B5F6"/>
  <rect x="9" y="27" width="1" height="4" fill="#1976D2"/>

  <rect x="36" y="26" width="6" height="6" fill="#4E342E"/>
  <rect x="37" y="27" width="4" height="4" fill="#64B5F6"/>
  <rect x="39" y="27" width="1" height="4" fill="#1976D2"/>

  <!-- Weathervane -->
  <rect x="23" y="0" width="2" height="3" fill="#757575"/>
  <rect x="21" y="0" width="6" height="1" fill="#F5A623"/>
  <rect x="25" y="0" width="2" height="1" fill="#D4900F"/>
</svg>
