<svg xmlns="http://www.w3.org/2000/svg" viewBox="0 0 48 48" width="48" height="48" shape-rendering="crispEdges">
  <!-- Library -->

  <!-- Foundation (stone) -->
  <rect x="4" y="42" width="40" height="4" fill="#757575"/>
  <rect x="4" y="46" width="40" height="2" fill="#616161"/>

  <!-- Main building (brick) -->
  <rect x="4" y="16" width="40" height="26" fill="#8D6E63"/>
  <rect x="5" y="17" width="38" height="24" fill="#A1887F"/>

  <!-- Brick pattern -->
  <rect x="5" y="19" width="4" height="2" fill="#8D6E63"/>
  <rect x="11" y="19" width="4" height="2" fill="#8D6E63"/>
  <rect x="7" y="23" width="4" height="2" fill="#8D6E63"/>
  <rect x="13" y="23" width="4" height="2" fill="#8D6E63"/>
  <rect x="31" y="19" width="4" height="2" fill="#8D6E63"/>
  <rect x="37" y="19" width="4" height="2" fill="#8D6E63"/>
  <rect x="33" y="23" width="4" height="2" fill="#8D6E63"/>
  <rect x="39" y="23" width="4" height="2" fill="#8D6E63"/>

  <!-- Columns (classical) -->
  <rect x="6" y="28" width="4" height="14" fill="#E0E0E0"/>
  <rect x="7" y="28" width="2" height="14" fill="#FAFAFA"/>
  <rect x="6" y="26" width="4" height="3" fill="#BDBDBD"/>

  <rect x="38" y="28" width="4" height="14" fill="#E0E0E0"/>
  <rect x="39" y="28" width="2" height="14" fill="#FAFAFA"/>
  <rect x="38" y="26" width="4" height="3" fill="#BDBDBD"/>

  <!-- Roof (triangular pediment) -->
  <rect x="2" y="12" width="44" height="5" fill="#757575"/>
  <rect x="6" y="9" width="36" height="3" fill="#9E9E9E"/>
  <rect x="10" y="6" width="28" height="3" fill="#757575"/>
  <rect x="14" y="4" width="20" height="2" fill="#616161"/>
  <rect x="20" y="2" width="8" height="2" fill="#757575"/>

  <!-- Pediment detail -->
  <rect x="20" y="8" width="8" height="3" fill="#BDBDBD"/>
  <rect x="21" y="9" width="6" height="2" fill="#9E9E9E"/>

  <!-- Large arched entrance -->
  <rect x="16" y="26" width="16" height="16" fill="#5D4037"/>
  <rect x="18" y="28" width="12" height="12" fill="#4E342E"/>
  <rect x="19" y="29" width="5" height="10" fill="#3E2723"/>
  <rect x="24" y="29" width="5" height="10" fill="#2E2E2E"/>
  <!-- Arch top -->
  <rect x="18" y="26" width="12" height="3" fill="#5D4037"/>
  <rect x="20" y="25" width="8" height="2" fill="#6D4C41"/>
  <!-- Door handles -->
  <rect x="22" y="33" width="1" height="2" fill="#F5A623"/>
  <rect x="25" y="33" width="1" height="2" fill="#D4900F"/>

  <!-- Large windows -->
  <rect x="6" y="18" width="8" height="6" fill="#4E342E"/>
  <rect x="7" y="19" width="6" height="4" fill="#64B5F6"/>
  <rect x="10" y="19" width="1" height="4" fill="#1976D2"/>
  <rect x="8" y="19" width="2" height="2" fill="#BBDEFB"/>

  <rect x="34" y="18" width="8" height="6" fill="#4E342E"/>
  <rect x="35" y="19" width="6" height="4" fill="#64B5F6"/>
  <rect x="38" y="19" width="1" height="4" fill="#1976D2"/>
  <rect x="36" y="19" width="2" height="2" fill="#BBDEFB"/>

  <!-- "LIBRARY" sign -->
  <rect x="16" y="14" width="16" height="4" fill="#5D4037"/>
  <rect x="17" y="15" width="14" height="2" fill="#FFFDE7"/>
  <!-- Book icon -->
  <rect x="22" y="15" width="4" height="2" fill="#9C27B0"/>
</svg>
