<svg xmlns="http://www.w3.org/2000/svg" viewBox="0 0 48 64" width="48" height="64" shape-rendering="crispEdges">
  <!-- Neon Apartment Block -->

  <!-- Foundation -->
  <rect x="4" y="58" width="40" height="4" fill="#212121"/>
  <rect x="4" y="62" width="40" height="2" fill="#1a1a1a"/>

  <!-- Main building (dark) -->
  <rect x="4" y="8" width="40" height="50" fill="#263238"/>
  <rect x="5" y="9" width="38" height="48" fill="#37474F"/>

  <!-- Neon trim (hot pink) -->
  <rect x="4" y="8" width="40" height="2" fill="#FF1D6C"/>
  <rect x="4" y="8" width="2" height="50" fill="#FF1D6C"/>
  <rect x="42" y="8" width="2" height="50" fill="#FF1D6C"/>

  <!-- Windows grid (blue glow) -->
  <!-- Row 1 -->
  <rect x="8" y="12" width="6" height="5" fill="#0D47A1"/>
  <rect x="9" y="13" width="4" height="3" fill="#2979FF"/>
  <rect x="10" y="13" width="2" height="1" fill="#82B1FF"/>

  <rect x="17" y="12" width="6" height="5" fill="#0D47A1"/>
  <rect x="18" y="13" width="4" height="3" fill="#2979FF"/>

  <rect x="26" y="12" width="6" height="5" fill="#0D47A1"/>
  <rect x="27" y="13" width="4" height="3" fill="#FFCA62"/>
  <rect x="28" y="13" width="2" height="1" fill="#FFDC96"/>

  <rect x="35" y="12" width="6" height="5" fill="#0D47A1"/>
  <rect x="36" y="13" width="4" height="3" fill="#2979FF"/>

  <!-- Row 2 -->
  <rect x="8" y="22" width="6" height="5" fill="#0D47A1"/>
  <rect x="9" y="23" width="4" height="3" fill="#9C27B0"/>
  <rect x="10" y="23" width="2" height="1" fill="#CE93D8"/>

  <rect x="17" y="22" width="6" height="5" fill="#0D47A1"/>
  <rect x="18" y="23" width="4" height="3" fill="#2979FF"/>

  <rect x="26" y="22" width="6" height="5" fill="#0D47A1"/>
  <rect x="27" y="23" width="4" height="3" fill="#2979FF"/>

  <rect x="35" y="22" width="6" height="5" fill="#0D47A1"/>
  <rect x="36" y="23" width="4" height="3" fill="#FF1D6C"/>
  <rect x="37" y="23" width="2" height="1" fill="#FF6B9D"/>

  <!-- Row 3 -->
  <rect x="8" y="32" width="6" height="5" fill="#0D47A1"/>
  <rect x="9" y="33" width="4" height="3" fill="#2979FF"/>

  <rect x="17" y="32" width="6" height="5" fill="#0D47A1"/>
  <rect x="18" y="33" width="4" height="3" fill="#FFCA62"/>

  <rect x="26" y="32" width="6" height="5" fill="#0D47A1"/>
  <rect x="27" y="33" width="4" height="3" fill="#1a1a1a"/>

  <rect x="35" y="32" width="6" height="5" fill="#0D47A1"/>
  <rect x="36" y="33" width="4" height="3" fill="#2979FF"/>

  <!-- Row 4 -->
  <rect x="8" y="42" width="6" height="5" fill="#0D47A1"/>
  <rect x="9" y="43" width="4" height="3" fill="#2979FF"/>

  <rect x="17" y="42" width="6" height="5" fill="#0D47A1"/>
  <rect x="18" y="43" width="4" height="3" fill="#2979FF"/>

  <rect x="26" y="42" width="6" height="5" fill="#0D47A1"/>
  <rect x="27" y="43" width="4" height="3" fill="#9C27B0"/>

  <rect x="35" y="42" width="6" height="5" fill="#0D47A1"/>
  <rect x="36" y="43" width="4" height="3" fill="#2979FF"/>

  <!-- Entrance -->
  <rect x="18" y="50" width="12" height="8" fill="#1a1a1a"/>
  <rect x="19" y="51" width="10" height="6" fill="#0D47A1"/>
  <rect x="20" y="52" width="4" height="5" fill="#263238"/>
  <rect x="24" y="52" width="4" height="5" fill="#212121"/>
  <!-- Neon door frame -->
  <rect x="19" y="50" width="10" height="1" fill="#2979FF"/>
  <rect x="19" y="51" width="1" height="6" fill="#2979FF"/>
  <rect x="28" y="51" width="1" height="6" fill="#2979FF"/>

  <!-- Roof equipment -->
  <rect x="8" y="4" width="8" height="5" fill="#455A64"/>
  <rect x="10" y="2" width="4" height="2" fill="#546E7A"/>
  <!-- Antenna -->
  <rect x="38" y="0" width="2" height="9" fill="#757575"/>
  <rect x="36" y="2" width="6" height="1" fill="#FF1D6C"/>
  <rect x="39" y="0" width="1" height="1" fill="#FF1D6C"/>

  <!-- Neon sign on side -->
  <rect x="6" y="6" width="8" height="2" fill="#FF1D6C"/>
</svg>
