<svg xmlns="http://www.w3.org/2000/svg" viewBox="0 0 48 48" width="48" height="48" shape-rendering="crispEdges">
  <!-- General Store -->

  <!-- Foundation -->
  <rect x="4" y="42" width="40" height="4" fill="#5D4037"/>
  <rect x="4" y="46" width="40" height="2" fill="#3E2723"/>

  <!-- Main building -->
  <rect x="4" y="18" width="40" height="24" fill="#FFF8E1"/>
  <rect x="5" y="19" width="38" height="22" fill="#FFFDE7"/>

  <!-- Roof -->
  <rect x="2" y="14" width="44" height="5" fill="#43A047"/>
  <rect x="4" y="12" width="40" height="2" fill="#388E3C"/>
  <rect x="6" y="10" width="36" height="2" fill="#2E7D32"/>

  <!-- Awning (striped) -->
  <rect x="4" y="24" width="40" height="4" fill="#C62828"/>
  <rect x="4" y="26" width="4" height="2" fill="#FAFAFA"/>
  <rect x="12" y="26" width="4" height="2" fill="#FAFAFA"/>
  <rect x="20" y="26" width="4" height="2" fill="#FAFAFA"/>
  <rect x="28" y="26" width="4" height="2" fill="#FAFAFA"/>
  <rect x="36" y="26" width="4" height="2" fill="#FAFAFA"/>
  <rect x="4" y="24" width="4" height="2" fill="#FAFAFA"/>
  <rect x="12" y="24" width="4" height="2" fill="#FAFAFA"/>
  <rect x="20" y="24" width="4" height="2" fill="#FAFAFA"/>
  <rect x="28" y="24" width="4" height="2" fill="#FAFAFA"/>
  <rect x="36" y="24" width="4" height="2" fill="#FAFAFA"/>

  <!-- Sign board -->
  <rect x="14" y="14" width="20" height="6" fill="#5D4037"/>
  <rect x="15" y="15" width="18" height="4" fill="#FFFDE7"/>
  <!-- "STORE" text hint -->
  <rect x="17" y="16" width="2" height="2" fill="#43A047"/>
  <rect x="21" y="16" width="2" height="2" fill="#43A047"/>
  <rect x="25" y="16" width="2" height="2" fill="#43A047"/>
  <rect x="29" y="16" width="2" height="2" fill="#43A047"/>

  <!-- Large display windows -->
  <rect x="6" y="28" width="12" height="12" fill="#4E342E"/>
  <rect x="7" y="29" width="10" height="10" fill="#64B5F6"/>
  <rect x="12" y="29" width="1" height="10" fill="#1976D2"/>
  <rect x="7" y="34" width="10" height="1" fill="#1976D2"/>
  <rect x="8" y="30" width="3" height="3" fill="#BBDEFB"/>

  <!-- Display items in window -->
  <rect x="9" y="35" width="2" height="3" fill="#F5A623"/>
  <rect x="12" y="36" width="2" height="2" fill="#E91E63"/>
  <rect x="14" y="35" width="2" height="3" fill="#9C27B0"/>

  <rect x="30" y="28" width="12" height="12" fill="#4E342E"/>
  <rect x="31" y="29" width="10" height="10" fill="#64B5F6"/>
  <rect x="36" y="29" width="1" height="10" fill="#1976D2"/>
  <rect x="31" y="34" width="10" height="1" fill="#1976D2"/>
  <rect x="32" y="30" width="3" height="3" fill="#BBDEFB"/>

  <!-- Display items -->
  <rect x="33" y="35" width="2" height="3" fill="#2979FF"/>
  <rect x="36" y="36" width="2" height="2" fill="#4CAF50"/>
  <rect x="38" y="35" width="2" height="3" fill="#FF1D6C"/>

  <!-- Door -->
  <rect x="20" y="30" width="8" height="12" fill="#5D4037"/>
  <rect x="21" y="31" width="6" height="10" fill="#6D4C41"/>
  <rect x="24" y="31" width="1" height="10" fill="#4E342E"/>
  <rect x="25" y="35" width="1" height="2" fill="#F5A623"/>

  <!-- Door glass -->
  <rect x="22" y="32" width="4" height="5" fill="#64B5F6"/>
  <rect x="22" y="32" width="2" height="3" fill="#BBDEFB"/>

  <!-- "OPEN" sign -->
  <rect x="22" y="38" width="4" height="2" fill="#4CAF50"/>
</svg>
