<svg xmlns="http://www.w3.org/2000/svg" viewBox="0 0 16 16" width="16" height="16" shape-rendering="crispEdges">
  <!-- Flowering Bush - Pink -->
  <rect x="4" y="4" width="8" height="2" fill="#388E3C"/>
  <rect x="2" y="6" width="12" height="4" fill="#43A047"/>
  <rect x="1" y="8" width="14" height="4" fill="#4CAF50"/>
  <rect x="2" y="12" width="12" height="2" fill="#388E3C"/>
  <rect x="4" y="14" width="8" height="1" fill="#2E7D32"/>

  <!-- Highlights -->
  <rect x="3" y="7" width="2" height="2" fill="#81C784"/>

  <!-- Flowers (pink) -->
  <rect x="5" y="4" width="2" height="2" fill="#F48FB1"/>
  <rect x="5" y="4" width="1" height="1" fill="#FCE4EC"/>
  <rect x="10" y="5" width="2" height="2" fill="#EC407A"/>
  <rect x="10" y="5" width="1" height="1" fill="#F8BBD9"/>
  <rect x="3" y="8" width="2" height="2" fill="#F48FB1"/>
  <rect x="3" y="8" width="1" height="1" fill="#FCE4EC"/>
  <rect x="8" y="7" width="2" height="2" fill="#EC407A"/>
  <rect x="8" y="7" width="1" height="1" fill="#F8BBD9"/>
  <rect x="12" y="9" width="2" height="2" fill="#F48FB1"/>
  <rect x="6" y="10" width="2" height="2" fill="#EC407A"/>

  <!-- Base shadow -->
  <rect x="3" y="15" width="10" height="1" fill="#1B5E20"/>
</svg>