<svg xmlns="http://www.w3.org/2000/svg" viewBox="0 0 16 16" width="16" height="16" shape-rendering="crispEdges">
  <!-- Flower Patch - Red -->

  <!-- Grass base -->
  <rect x="2" y="12" width="12" height="4" fill="#43A047"/>
  <rect x="3" y="11" width="10" height="1" fill="#4CAF50"/>
  <rect x="1" y="13" width="1" height="2" fill="#388E3C"/>
  <rect x="14" y="13" width="1" height="2" fill="#388E3C"/>

  <!-- Flower 1 (left) -->
  <rect x="3" y="8" width="1" height="3" fill="#2E7D32"/>
  <rect x="2" y="6" width="3" height="2" fill="#F44336"/>
  <rect x="3" y="5" width="1" height="1" fill="#EF5350"/>
  <rect x="3" y="7" width="1" height="1" fill="#FFEB3B"/>

  <!-- Flower 2 (center) -->
  <rect x="7" y="7" width="1" height="4" fill="#2E7D32"/>
  <rect x="6" y="4" width="3" height="3" fill="#E53935"/>
  <rect x="7" y="3" width="1" height="1" fill="#EF5350"/>
  <rect x="7" y="5" width="1" height="1" fill="#FFC107"/>

  <!-- Flower 3 (right) -->
  <rect x="11" y="9" width="1" height="2" fill="#2E7D32"/>
  <rect x="10" y="7" width="3" height="2" fill="#F44336"/>
  <rect x="11" y="6" width="1" height="1" fill="#FFCDD2"/>
  <rect x="11" y="8" width="1" height="1" fill="#FFEB3B"/>

  <!-- Small grass blades -->
  <rect x="5" y="10" width="1" height="2" fill="#66BB6A"/>
  <rect x="9" y="11" width="1" height="1" fill="#81C784"/>
  <rect x="13" y="11" width="1" height="1" fill="#66BB6A"/>
</svg>
