<svg xmlns="http://www.w3.org/2000/svg" viewBox="0 0 16 16" width="16" height="16" shape-rendering="crispEdges">
  <!-- Dirt Tile - Inner Corner NW (small grass corner at top-left) -->

  <!-- Main dirt base -->
  <rect x="0" y="0" width="16" height="16" fill="#8D6E63"/>

  <!-- Grass corner (small, at top-left) -->
  <rect x="0" y="0" width="4" height="4" fill="#4CAF50"/>
  <rect x="0" y="0" width="2" height="2" fill="#43A047"/>
  <rect x="2" y="1" width="1" height="1" fill="#66BB6A"/>

  <!-- Curved transition -->
  <rect x="4" y="0" width="2" height="4" fill="#6B8E4E"/>
  <rect x="0" y="4" width="4" height="2" fill="#6B8E4E"/>
  <rect x="4" y="4" width="2" height="2" fill="#7CB342"/>

  <!-- Dirt details -->
  <rect x="8" y="2" width="2" height="2" fill="#795548"/>
  <rect x="12" y="0" width="2" height="2" fill="#6D4C41"/>
  <rect x="2" y="8" width="3" height="2" fill="#795548"/>
  <rect x="0" y="12" width="2" height="2" fill="#6D4C41"/>
  <rect x="7" y="6" width="2" height="2" fill="#795548"/>
  <rect x="10" y="9" width="3" height="2" fill="#6D4C41"/>
  <rect x="6" y="12" width="2" height="2" fill="#795548"/>
  <rect x="12" y="13" width="2" height="2" fill="#6D4C41"/>

  <!-- Pebbles -->
  <rect x="10" y="1" width="1" height="1" fill="#5D4037"/>
  <rect x="14" y="5" width="1" height="1" fill="#4E342E"/>
  <rect x="1" y="10" width="1" height="1" fill="#5D4037"/>
  <rect x="9" y="11" width="1" height="1" fill="#4E342E"/>
  <rect x="4" y="14" width="1" height="1" fill="#5D4037"/>
  <rect x="14" y="14" width="1" height="1" fill="#4E342E"/>
</svg>