<svg xmlns="http://www.w3.org/2000/svg" viewBox="0 0 16 16" width="16" height="16" shape-rendering="crispEdges">
  <!-- Dirt Tile - Center -->

  <!-- Base dirt -->
  <rect x="0" y="0" width="16" height="16" fill="#8D6E63"/>

  <!-- Dirt variation (darker patches) -->
  <rect x="1" y="1" width="3" height="2" fill="#795548"/>
  <rect x="10" y="0" width="2" height="2" fill="#6D4C41"/>
  <rect x="5" y="3" width="2" height="2" fill="#795548"/>
  <rect x="13" y="4" width="2" height="2" fill="#6D4C41"/>
  <rect x="0" y="7" width="2" height="2" fill="#795548"/>
  <rect x="7" y="8" width="3" height="2" fill="#6D4C41"/>
  <rect x="12" y="9" width="2" height="1" fill="#795548"/>
  <rect x="2" y="11" width="2" height="2" fill="#6D4C41"/>
  <rect x="9" y="12" width="2" height="2" fill="#795548"/>
  <rect x="14" y="13" width="2" height="2" fill="#6D4C41"/>
  <rect x="5" y="14" width="2" height="2" fill="#795548"/>

  <!-- Lighter patches -->
  <rect x="7" y="1" width="2" height="1" fill="#A1887F"/>
  <rect x="2" y="5" width="1" height="1" fill="#BCAAA4"/>
  <rect x="11" y="6" width="1" height="1" fill="#A1887F"/>
  <rect x="4" y="9" width="1" height="1" fill="#BCAAA4"/>
  <rect x="0" y="12" width="1" height="1" fill="#A1887F"/>
  <rect x="6" y="11" width="1" height="1" fill="#BCAAA4"/>
  <rect x="13" y="1" width="1" height="1" fill="#A1887F"/>

  <!-- Small pebbles -->
  <rect x="3" y="7" width="1" height="1" fill="#5D4037"/>
  <rect x="10" y="3" width="1" height="1" fill="#4E342E"/>
  <rect x="1" y="14" width="1" height="1" fill="#5D4037"/>
  <rect x="12" y="14" width="1" height="1" fill="#4E342E"/>
</svg>