<svg xmlns="http://www.w3.org/2000/svg" viewBox="0 0 16 16" width="16" height="16" shape-rendering="crispEdges">
  <!-- Purple Carpet Floor - Seamless -->

  <!-- Base carpet -->
  <rect x="0" y="0" width="16" height="16" fill="#7B1FA2"/>

  <!-- Carpet texture (subtle pattern) -->
  <rect x="1" y="1" width="1" height="1" fill="#6A1B9A"/>
  <rect x="3" y="1" width="1" height="1" fill="#8E24AA"/>
  <rect x="5" y="1" width="1" height="1" fill="#6A1B9A"/>
  <rect x="7" y="1" width="1" height="1" fill="#8E24AA"/>
  <rect x="9" y="1" width="1" height="1" fill="#6A1B9A"/>
  <rect x="11" y="1" width="1" height="1" fill="#8E24AA"/>
  <rect x="13" y="1" width="1" height="1" fill="#6A1B9A"/>
  <rect x="15" y="1" width="1" height="1" fill="#8E24AA"/>

  <rect x="0" y="3" width="1" height="1" fill="#8E24AA"/>
  <rect x="2" y="3" width="1" height="1" fill="#6A1B9A"/>
  <rect x="4" y="3" width="1" height="1" fill="#8E24AA"/>
  <rect x="6" y="3" width="1" height="1" fill="#6A1B9A"/>
  <rect x="8" y="3" width="1" height="1" fill="#8E24AA"/>
  <rect x="10" y="3" width="1" height="1" fill="#6A1B9A"/>
  <rect x="12" y="3" width="1" height="1" fill="#8E24AA"/>
  <rect x="14" y="3" width="1" height="1" fill="#6A1B9A"/>

  <rect x="1" y="5" width="1" height="1" fill="#6A1B9A"/>
  <rect x="3" y="5" width="1" height="1" fill="#8E24AA"/>
  <rect x="5" y="5" width="1" height="1" fill="#6A1B9A"/>
  <rect x="7" y="5" width="1" height="1" fill="#8E24AA"/>
  <rect x="9" y="5" width="1" height="1" fill="#6A1B9A"/>
  <rect x="11" y="5" width="1" height="1" fill="#8E24AA"/>
  <rect x="13" y="5" width="1" height="1" fill="#6A1B9A"/>
  <rect x="15" y="5" width="1" height="1" fill="#8E24AA"/>

  <rect x="0" y="7" width="1" height="1" fill="#8E24AA"/>
  <rect x="2" y="7" width="1" height="1" fill="#6A1B9A"/>
  <rect x="4" y="7" width="1" height="1" fill="#8E24AA"/>
  <rect x="6" y="7" width="1" height="1" fill="#6A1B9A"/>
  <rect x="8" y="7" width="1" height="1" fill="#8E24AA"/>
  <rect x="10" y="7" width="1" height="1" fill="#6A1B9A"/>
  <rect x="12" y="7" width="1" height="1" fill="#8E24AA"/>
  <rect x="14" y="7" width="1" height="1" fill="#6A1B9A"/>

  <rect x="1" y="9" width="1" height="1" fill="#6A1B9A"/>
  <rect x="3" y="9" width="1" height="1" fill="#8E24AA"/>
  <rect x="5" y="9" width="1" height="1" fill="#6A1B9A"/>
  <rect x="7" y="9" width="1" height="1" fill="#8E24AA"/>
  <rect x="9" y="9" width="1" height="1" fill="#6A1B9A"/>
  <rect x="11" y="9" width="1" height="1" fill="#8E24AA"/>
  <rect x="13" y="9" width="1" height="1" fill="#6A1B9A"/>
  <rect x="15" y="9" width="1" height="1" fill="#8E24AA"/>

  <rect x="0" y="11" width="1" height="1" fill="#8E24AA"/>
  <rect x="2" y="11" width="1" height="1" fill="#6A1B9A"/>
  <rect x="4" y="11" width="1" height="1" fill="#8E24AA"/>
  <rect x="6" y="11" width="1" height="1" fill="#6A1B9A"/>
  <rect x="8" y="11" width="1" height="1" fill="#8E24AA"/>
  <rect x="10" y="11" width="1" height="1" fill="#6A1B9A"/>
  <rect x="12" y="11" width="1" height="1" fill="#8E24AA"/>
  <rect x="14" y="11" width="1" height="1" fill="#6A1B9A"/>

  <rect x="1" y="13" width="1" height="1" fill="#6A1B9A"/>
  <rect x="3" y="13" width="1" height="1" fill="#8E24AA"/>
  <rect x="5" y="13" width="1" height="1" fill="#6A1B9A"/>
  <rect x="7" y="13" width="1" height="1" fill="#8E24AA"/>
  <rect x="9" y="13" width="1" height="1" fill="#6A1B9A"/>
  <rect x="11" y="13" width="1" height="1" fill="#8E24AA"/>
  <rect x="13" y="13" width="1" height="1" fill="#6A1B9A"/>
  <rect x="15" y="13" width="1" height="1" fill="#8E24AA"/>

  <rect x="0" y="15" width="1" height="1" fill="#8E24AA"/>
  <rect x="2" y="15" width="1" height="1" fill="#6A1B9A"/>
  <rect x="4" y="15" width="1" height="1" fill="#8E24AA"/>
  <rect x="6" y="15" width="1" height="1" fill="#6A1B9A"/>
  <rect x="8" y="15" width="1" height="1" fill="#8E24AA"/>
  <rect x="10" y="15" width="1" height="1" fill="#6A1B9A"/>
  <rect x="12" y="15" width="1" height="1" fill="#8E24AA"/>
  <rect x="14" y="15" width="1" height="1" fill="#6A1B9A"/>
</svg>
