<svg xmlns="http://www.w3.org/2000/svg" viewBox="0 0 24 16" width="24" height="16" shape-rendering="crispEdges">
  <!-- Rectangle Rug with pattern -->

  <!-- Border -->
  <rect x="0" y="0" width="24" height="16" fill="#1565C0"/>

  <!-- Inner border -->
  <rect x="1" y="1" width="22" height="14" fill="#1976D2"/>

  <!-- Main field -->
  <rect x="2" y="2" width="20" height="12" fill="#2196F3"/>

  <!-- Corner designs -->
  <rect x="3" y="3" width="3" height="3" fill="#FFEB3B"/>
  <rect x="18" y="3" width="3" height="3" fill="#FFEB3B"/>
  <rect x="3" y="10" width="3" height="3" fill="#FFEB3B"/>
  <rect x="18" y="10" width="3" height="3" fill="#FFEB3B"/>

  <!-- Center medallion -->
  <rect x="9" y="5" width="6" height="6" fill="#1565C0"/>
  <rect x="10" y="6" width="4" height="4" fill="#FFEB3B"/>
  <rect x="11" y="7" width="2" height="2" fill="#C62828"/>

  <!-- Side patterns -->
  <rect x="7" y="7" width="2" height="2" fill="#90CAF9"/>
  <rect x="15" y="7" width="2" height="2" fill="#90CAF9"/>

  <!-- Fringe (top/bottom) -->
  <rect x="2" y="0" width="1" height="1" fill="#8D6E63"/>
  <rect x="5" y="0" width="1" height="1" fill="#8D6E63"/>
  <rect x="8" y="0" width="1" height="1" fill="#8D6E63"/>
  <rect x="11" y="0" width="1" height="1" fill="#8D6E63"/>
  <rect x="14" y="0" width="1" height="1" fill="#8D6E63"/>
  <rect x="17" y="0" width="1" height="1" fill="#8D6E63"/>
  <rect x="20" y="0" width="1" height="1" fill="#8D6E63"/>
  <rect x="2" y="15" width="1" height="1" fill="#8D6E63"/>
  <rect x="5" y="15" width="1" height="1" fill="#8D6E63"/>
  <rect x="8" y="15" width="1" height="1" fill="#8D6E63"/>
  <rect x="11" y="15" width="1" height="1" fill="#8D6E63"/>
  <rect x="14" y="15" width="1" height="1" fill="#8D6E63"/>
  <rect x="17" y="15" width="1" height="1" fill="#8D6E63"/>
  <rect x="20" y="15" width="1" height="1" fill="#8D6E63"/>
</svg>
