<svg xmlns="http://www.w3.org/2000/svg" viewBox="0 0 16 20" width="16" height="20" shape-rendering="crispEdges">
  <!-- Cabinet - Kitchen/storage -->

  <!-- Main body -->
  <rect x="0" y="0" width="16" height="20" fill="#6D4C41"/>

  <!-- Top -->
  <rect x="0" y="0" width="16" height="2" fill="#5D4037"/>
  <rect x="1" y="0" width="14" height="1" fill="#8D6E63"/>

  <!-- Upper doors -->
  <rect x="1" y="2" width="6" height="8" fill="#8D6E63"/>
  <rect x="2" y="3" width="4" height="6" fill="#6D4C41"/>
  <rect x="9" y="2" width="6" height="8" fill="#8D6E63"/>
  <rect x="10" y="3" width="4" height="6" fill="#6D4C41"/>

  <!-- Door handles -->
  <rect x="5" y="5" width="1" height="2" fill="#F5A623"/>
  <rect x="10" y="5" width="1" height="2" fill="#F5A623"/>

  <!-- Counter surface -->
  <rect x="0" y="10" width="16" height="2" fill="#BDBDBD"/>
  <rect x="1" y="10" width="14" height="1" fill="#E0E0E0"/>

  <!-- Lower doors -->
  <rect x="1" y="12" width="6" height="7" fill="#8D6E63"/>
  <rect x="2" y="13" width="4" height="5" fill="#6D4C41"/>
  <rect x="9" y="12" width="6" height="7" fill="#8D6E63"/>
  <rect x="10" y="13" width="4" height="5" fill="#6D4C41"/>

  <!-- Lower handles -->
  <rect x="5" y="15" width="1" height="2" fill="#F5A623"/>
  <rect x="10" y="15" width="1" height="2" fill="#F5A623"/>

  <!-- Base -->
  <rect x="0" y="19" width="16" height="1" fill="#4E342E"/>
</svg>
