<svg xmlns="http://www.w3.org/2000/svg" viewBox="0 0 14 16" width="14" height="16" shape-rendering="crispEdges">
  <!-- Sink -->

  <!-- Counter/vanity top -->
  <rect x="0" y="4" width="14" height="3" fill="#BDBDBD"/>
  <rect x="1" y="4" width="12" height="2" fill="#E0E0E0"/>

  <!-- Sink basin -->
  <rect x="2" y="5" width="10" height="4" fill="#ECEFF1"/>
  <rect x="3" y="6" width="8" height="2" fill="#64B5F6"/>
  <rect x="4" y="6" width="6" height="1" fill="#90CAF9"/>

  <!-- Drain -->
  <rect x="6" y="7" width="2" height="1" fill="#455A64"/>

  <!-- Faucet -->
  <rect x="5" y="0" width="4" height="1" fill="#78909C"/>
  <rect x="6" y="1" width="2" height="3" fill="#90A4AE"/>
  <rect x="5" y="3" width="4" height="1" fill="#78909C"/>

  <!-- Faucet handles -->
  <rect x="3" y="1" width="2" height="2" fill="#C62828"/>
  <rect x="9" y="1" width="2" height="2" fill="#1976D2"/>

  <!-- Vanity cabinet -->
  <rect x="0" y="9" width="14" height="7" fill="#6D4C41"/>
  <rect x="1" y="10" width="12" height="5" fill="#8D6E63"/>

  <!-- Cabinet doors -->
  <rect x="1" y="10" width="5" height="5" fill="#6D4C41"/>
  <rect x="8" y="10" width="5" height="5" fill="#6D4C41"/>

  <!-- Handles -->
  <rect x="5" y="12" width="1" height="2" fill="#F5A623"/>
  <rect x="8" y="12" width="1" height="2" fill="#F5A623"/>
</svg>
