<svg xmlns="http://www.w3.org/2000/svg" viewBox="0 0 14 22" width="14" height="22" shape-rendering="crispEdges">
  <!-- Office Chair -->

  <!-- Headrest -->
  <rect x="3" y="0" width="8" height="3" fill="#37474F"/>
  <rect x="4" y="1" width="6" height="1" fill="#455A64"/>

  <!-- Backrest -->
  <rect x="2" y="3" width="10" height="8" fill="#37474F"/>
  <rect x="3" y="4" width="8" height="6" fill="#455A64"/>
  <rect x="4" y="5" width="6" height="4" fill="#546E7A"/>

  <!-- Armrests -->
  <rect x="0" y="8" width="2" height="4" fill="#263238"/>
  <rect x="12" y="8" width="2" height="4" fill="#263238"/>

  <!-- Seat cushion -->
  <rect x="1" y="11" width="12" height="4" fill="#37474F"/>
  <rect x="2" y="12" width="10" height="2" fill="#455A64"/>

  <!-- Base/mechanism -->
  <rect x="5" y="15" width="4" height="2" fill="#212121"/>

  <!-- Center pole -->
  <rect x="6" y="17" width="2" height="3" fill="#424242"/>

  <!-- Wheels base (star pattern) -->
  <rect x="3" y="20" width="8" height="2" fill="#212121"/>
  <rect x="1" y="21" width="3" height="1" fill="#424242"/>
  <rect x="10" y="21" width="3" height="1" fill="#424242"/>
  <rect x="6" y="21" width="2" height="1" fill="#424242"/>
</svg>
