<svg xmlns="http://www.w3.org/2000/svg" viewBox="0 0 16 28" width="16" height="28" shape-rendering="crispEdges">
  <!-- Server Rack - Tech/Neon District -->

  <!-- Rack frame -->
  <rect x="0" y="0" width="16" height="28" fill="#263238"/>

  <!-- Server units -->
  <!-- Unit 1 -->
  <rect x="1" y="1" width="14" height="4" fill="#37474F"/>
  <rect x="2" y="2" width="3" height="2" fill="#2979FF"/>
  <rect x="6" y="2" width="1" height="1" fill="#4CAF50"/>
  <rect x="8" y="2" width="1" height="1" fill="#4CAF50"/>
  <rect x="10" y="2" width="4" height="2" fill="#455A64"/>

  <!-- Unit 2 -->
  <rect x="1" y="6" width="14" height="4" fill="#455A64"/>
  <rect x="2" y="7" width="3" height="2" fill="#FF1D6C"/>
  <rect x="6" y="7" width="1" height="1" fill="#4CAF50"/>
  <rect x="8" y="7" width="1" height="1" fill="#F5A623"/>
  <rect x="10" y="7" width="4" height="2" fill="#37474F"/>

  <!-- Unit 3 -->
  <rect x="1" y="11" width="14" height="4" fill="#37474F"/>
  <rect x="2" y="12" width="3" height="2" fill="#9C27B0"/>
  <rect x="6" y="12" width="1" height="1" fill="#4CAF50"/>
  <rect x="8" y="12" width="1" height="1" fill="#4CAF50"/>
  <rect x="10" y="12" width="4" height="2" fill="#455A64"/>

  <!-- Unit 4 -->
  <rect x="1" y="16" width="14" height="4" fill="#455A64"/>
  <rect x="2" y="17" width="3" height="2" fill="#2979FF"/>
  <rect x="6" y="17" width="1" height="1" fill="#C62828"/>
  <rect x="8" y="17" width="1" height="1" fill="#4CAF50"/>
  <rect x="10" y="17" width="4" height="2" fill="#37474F"/>

  <!-- Unit 5 -->
  <rect x="1" y="21" width="14" height="4" fill="#37474F"/>
  <rect x="2" y="22" width="3" height="2" fill="#FF1D6C"/>
  <rect x="6" y="22" width="1" height="1" fill="#4CAF50"/>
  <rect x="8" y="22" width="1" height="1" fill="#4CAF50"/>
  <rect x="10" y="22" width="4" height="2" fill="#455A64"/>

  <!-- Cables on side -->
  <rect x="0" y="2" width="1" height="24" fill="#1A1A1A"/>
  <rect x="0" y="4" width="1" height="2" fill="#2979FF"/>
  <rect x="0" y="10" width="1" height="2" fill="#4CAF50"/>
  <rect x="0" y="18" width="1" height="2" fill="#F5A623"/>

  <!-- Base -->
  <rect x="0" y="26" width="16" height="2" fill="#1A1A1A"/>
</svg>
