<svg xmlns="http://www.w3.org/2000/svg" viewBox="0 0 20 12" width="20" height="12" shape-rendering="crispEdges">
  <!-- Oval Rug -->

  <!-- Outer edge -->
  <rect x="4" y="0" width="12" height="1" fill="#C62828"/>
  <rect x="2" y="1" width="2" height="1" fill="#C62828"/>
  <rect x="16" y="1" width="2" height="1" fill="#C62828"/>
  <rect x="1" y="2" width="1" height="2" fill="#C62828"/>
  <rect x="18" y="2" width="1" height="2" fill="#C62828"/>
  <rect x="0" y="4" width="1" height="4" fill="#C62828"/>
  <rect x="19" y="4" width="1" height="4" fill="#C62828"/>
  <rect x="1" y="8" width="1" height="2" fill="#C62828"/>
  <rect x="18" y="8" width="1" height="2" fill="#C62828"/>
  <rect x="2" y="10" width="2" height="1" fill="#C62828"/>
  <rect x="16" y="10" width="2" height="1" fill="#C62828"/>
  <rect x="4" y="11" width="12" height="1" fill="#C62828"/>

  <!-- Main rug area -->
  <rect x="2" y="2" width="16" height="8" fill="#D32F2F"/>
  <rect x="4" y="1" width="12" height="1" fill="#D32F2F"/>
  <rect x="4" y="10" width="12" height="1" fill="#D32F2F"/>
  <rect x="1" y="4" width="1" height="4" fill="#D32F2F"/>
  <rect x="18" y="4" width="1" height="4" fill="#D32F2F"/>

  <!-- Inner design -->
  <rect x="4" y="3" width="12" height="6" fill="#E57373"/>
  <rect x="6" y="4" width="8" height="4" fill="#EF9A9A"/>

  <!-- Center pattern -->
  <rect x="8" y="5" width="4" height="2" fill="#FFEB3B"/>
  <rect x="9" y="5" width="2" height="2" fill="#FFF176"/>

  <!-- Fringe effect -->
  <rect x="2" y="0" width="1" height="1" fill="#8D6E63"/>
  <rect x="17" y="0" width="1" height="1" fill="#8D6E63"/>
  <rect x="2" y="11" width="1" height="1" fill="#8D6E63"/>
  <rect x="17" y="11" width="1" height="1" fill="#8D6E63"/>
</svg>
