<svg xmlns="http://www.w3.org/2000/svg" viewBox="0 0 16 16" width="16" height="16" shape-rendering="crispEdges">
  <!-- Grass Tile - Inner Corner NW (small dirt corner at top-left) -->

  <!-- Main grass base -->
  <rect x="0" y="0" width="16" height="16" fill="#4CAF50"/>

  <!-- Dirt corner (small, at top-left) -->
  <rect x="0" y="0" width="4" height="4" fill="#8D6E63"/>
  <rect x="0" y="0" width="2" height="2" fill="#795548"/>
  <rect x="2" y="1" width="1" height="1" fill="#A1887F"/>

  <!-- Curved transition -->
  <rect x="4" y="0" width="2" height="4" fill="#6B8E4E"/>
  <rect x="0" y="4" width="4" height="2" fill="#6B8E4E"/>
  <rect x="4" y="4" width="2" height="2" fill="#689F38"/>

  <!-- Grass details -->
  <rect x="8" y="2" width="2" height="1" fill="#43A047"/>
  <rect x="12" y="0" width="2" height="2" fill="#388E3C"/>
  <rect x="2" y="8" width="3" height="2" fill="#43A047"/>
  <rect x="0" y="12" width="2" height="2" fill="#388E3C"/>
  <rect x="7" y="6" width="2" height="1" fill="#43A047"/>
  <rect x="10" y="8" width="3" height="2" fill="#388E3C"/>
  <rect x="6" y="11" width="2" height="2" fill="#43A047"/>
  <rect x="12" y="13" width="2" height="2" fill="#388E3C"/>

  <!-- Grass blades -->
  <rect x="10" y="1" width="1" height="2" fill="#66BB6A"/>
  <rect x="14" y="4" width="1" height="2" fill="#81C784"/>
  <rect x="1" y="9" width="1" height="2" fill="#66BB6A"/>
  <rect x="8" y="10" width="1" height="1" fill="#81C784"/>
  <rect x="4" y="14" width="1" height="2" fill="#66BB6A"/>
  <rect x="14" y="12" width="1" height="2" fill="#81C784"/>

  <!-- Small flowers -->
  <rect x="9" y="4" width="1" height="1" fill="#F5A623"/>
  <rect x="3" y="13" width="1" height="1" fill="#FF1D6C"/>
</svg>