<svg xmlns="http://www.w3.org/2000/svg" viewBox="0 0 16 16" width="16" height="16" shape-rendering="crispEdges">
  <!-- Void Ore Node (Corrupted/Digital) -->

  <!-- Base rock (dark corrupted) -->
  <rect x="2" y="7" width="12" height="7" fill="#1a1a1a"/>
  <rect x="3" y="5" width="10" height="2" fill="#2c2c2c"/>
  <rect x="4" y="4" width="8" height="1" fill="#1a1a1a"/>
  <rect x="1" y="8" width="1" height="5" fill="#0d0d0d"/>
  <rect x="14" y="8" width="1" height="5" fill="#0d0d0d"/>
  <rect x="2" y="14" width="12" height="1" fill="#0d0d0d"/>

  <!-- Void veins (violet/magenta corruption) -->
  <rect x="4" y="6" width="3" height="2" fill="#9C27B0"/>
  <rect x="5" y="5" width="2" height="1" fill="#7B1FA2"/>
  <rect x="4" y="6" width="1" height="1" fill="#CE93D8"/>

  <rect x="9" y="8" width="3" height="2" fill="#7B1FA2"/>
  <rect x="10" y="7" width="2" height="1" fill="#4A148C"/>
  <rect x="9" y="8" width="1" height="1" fill="#E1BEE7"/>

  <rect x="5" y="10" width="2" height="2" fill="#9C27B0"/>
  <rect x="5" y="10" width="1" height="1" fill="#CE93D8"/>

  <rect x="10" y="11" width="2" height="2" fill="#4A148C"/>
  <rect x="10" y="11" width="1" height="1" fill="#7B1FA2"/>

  <!-- Glitch/corruption highlights (hot pink + blue) -->
  <rect x="5" y="5" width="1" height="1" fill="#FF1D6C"/>
  <rect x="10" y="8" width="1" height="1" fill="#2979FF"/>
  <rect x="6" y="11" width="1" height="1" fill="#FF1D6C"/>
  <rect x="11" y="12" width="1" height="1" fill="#2979FF"/>

  <!-- Pulsing glow effect -->
  <rect x="7" y="7" width="1" height="1" fill="#4A148C"/>
  <rect x="8" y="10" width="1" height="1" fill="#4A148C"/>

  <!-- Digital corruption particles -->
  <rect x="3" y="9" width="1" height="1" fill="#9C27B0"/>
  <rect x="12" y="9" width="1" height="1" fill="#7B1FA2"/>
</svg>
