<svg xmlns="http://www.w3.org/2000/svg" viewBox="0 0 16 16" width="16" height="16" shape-rendering="crispEdges">
  <!-- Gold Ore Node -->

  <!-- Base rock -->
  <rect x="2" y="7" width="12" height="7" fill="#616161"/>
  <rect x="3" y="5" width="10" height="2" fill="#757575"/>
  <rect x="4" y="4" width="8" height="1" fill="#546E7A"/>
  <rect x="1" y="8" width="1" height="5" fill="#546E7A"/>
  <rect x="14" y="8" width="1" height="5" fill="#424242"/>
  <rect x="2" y="14" width="12" height="1" fill="#424242"/>

  <!-- Gold veins (rich golden yellow) -->
  <rect x="4" y="6" width="3" height="2" fill="#F5A623"/>
  <rect x="5" y="5" width="2" height="1" fill="#FFCA62"/>
  <rect x="4" y="6" width="1" height="1" fill="#FFDC96"/>

  <rect x="9" y="8" width="3" height="2" fill="#F5A623"/>
  <rect x="10" y="7" width="2" height="1" fill="#D4900F"/>
  <rect x="9" y="8" width="1" height="1" fill="#FFDC96"/>

  <rect x="5" y="10" width="2" height="2" fill="#F5A623"/>
  <rect x="5" y="10" width="1" height="1" fill="#FFCA62"/>

  <rect x="10" y="11" width="2" height="2" fill="#D4900F"/>
  <rect x="10" y="11" width="1" height="1" fill="#F5A623"/>

  <!-- Sparkle shine -->
  <rect x="5" y="5" width="1" height="1" fill="#FFFFFF"/>
  <rect x="9" y="8" width="1" height="1" fill="#FFFFFF"/>
  <rect x="6" y="10" width="1" height="1" fill="#FFDC96"/>

  <!-- Rock highlights -->
  <rect x="3" y="6" width="1" height="1" fill="#9E9E9E"/>
  <rect x="7" y="9" width="1" height="1" fill="#9E9E9E"/>
</svg>
