<svg xmlns="http://www.w3.org/2000/svg" viewBox="0 0 16 16" width="16" height="16" shape-rendering="crispEdges">
  <!-- Copper Ore Node -->

  <!-- Base rock -->
  <rect x="2" y="7" width="12" height="7" fill="#616161"/>
  <rect x="3" y="5" width="10" height="2" fill="#757575"/>
  <rect x="4" y="4" width="8" height="1" fill="#546E7A"/>
  <rect x="1" y="8" width="1" height="5" fill="#546E7A"/>
  <rect x="14" y="8" width="1" height="5" fill="#424242"/>
  <rect x="2" y="14" width="12" height="1" fill="#424242"/>

  <!-- Copper veins (orange-brown metallic) -->
  <rect x="4" y="6" width="3" height="2" fill="#E65100"/>
  <rect x="5" y="5" width="2" height="1" fill="#FF6D00"/>
  <rect x="4" y="6" width="1" height="1" fill="#FF9100"/>

  <rect x="9" y="8" width="3" height="2" fill="#E65100"/>
  <rect x="10" y="7" width="2" height="1" fill="#BF360C"/>
  <rect x="9" y="8" width="1" height="1" fill="#FF9100"/>

  <rect x="5" y="10" width="2" height="2" fill="#E65100"/>
  <rect x="5" y="10" width="1" height="1" fill="#FF6D00"/>

  <rect x="10" y="11" width="2" height="2" fill="#BF360C"/>
  <rect x="10" y="11" width="1" height="1" fill="#E65100"/>

  <!-- Metallic shine -->
  <rect x="5" y="5" width="1" height="1" fill="#FFAB40"/>
  <rect x="9" y="8" width="1" height="1" fill="#FFAB40"/>

  <!-- Rock highlights -->
  <rect x="3" y="6" width="1" height="1" fill="#9E9E9E"/>
  <rect x="7" y="9" width="1" height="1" fill="#9E9E9E"/>
</svg>
