<svg xmlns="http://www.w3.org/2000/svg" viewBox="0 0 16 16" width="16" height="16" shape-rendering="crispEdges">
  <!-- Iron Ore Node -->

  <!-- Base rock -->
  <rect x="2" y="7" width="12" height="7" fill="#616161"/>
  <rect x="3" y="5" width="10" height="2" fill="#757575"/>
  <rect x="4" y="4" width="8" height="1" fill="#546E7A"/>
  <rect x="1" y="8" width="1" height="5" fill="#546E7A"/>
  <rect x="14" y="8" width="1" height="5" fill="#424242"/>
  <rect x="2" y="14" width="12" height="1" fill="#424242"/>

  <!-- Iron veins (silver-grey metallic) -->
  <rect x="4" y="6" width="3" height="2" fill="#78909C"/>
  <rect x="5" y="5" width="2" height="1" fill="#90A4AE"/>
  <rect x="4" y="6" width="1" height="1" fill="#B0BEC5"/>

  <rect x="9" y="8" width="3" height="2" fill="#78909C"/>
  <rect x="10" y="7" width="2" height="1" fill="#546E7A"/>
  <rect x="9" y="8" width="1" height="1" fill="#B0BEC5"/>

  <rect x="5" y="10" width="2" height="2" fill="#78909C"/>
  <rect x="5" y="10" width="1" height="1" fill="#90A4AE"/>

  <rect x="10" y="11" width="2" height="2" fill="#546E7A"/>
  <rect x="10" y="11" width="1" height="1" fill="#78909C"/>

  <!-- Metallic shine -->
  <rect x="5" y="5" width="1" height="1" fill="#CFD8DC"/>
  <rect x="9" y="8" width="1" height="1" fill="#ECEFF1"/>

  <!-- Rock texture -->
  <rect x="3" y="8" width="1" height="1" fill="#9E9E9E"/>
  <rect x="7" y="7" width="1" height="1" fill="#9E9E9E"/>
  <rect x="8" y="11" width="1" height="1" fill="#546E7A"/>
</svg>
