<svg xmlns="http://www.w3.org/2000/svg" viewBox="0 0 16 16" width="16" height="16" shape-rendering="crispEdges">
  <!-- Fern -->

  <!-- Central stem -->
  <rect x="7" y="4" width="2" height="12" fill="#2E7D32"/>

  <!-- Left fronds -->
  <rect x="4" y="5" width="3" height="1" fill="#43A047"/>
  <rect x="3" y="6" width="1" height="1" fill="#388E3C"/>
  <rect x="5" y="7" width="2" height="1" fill="#4CAF50"/>
  <rect x="4" y="8" width="1" height="1" fill="#43A047"/>
  <rect x="3" y="9" width="4" height="1" fill="#66BB6A"/>
  <rect x="2" y="10" width="1" height="1" fill="#4CAF50"/>
  <rect x="4" y="11" width="3" height="1" fill="#43A047"/>
  <rect x="3" y="12" width="1" height="1" fill="#388E3C"/>
  <rect x="5" y="13" width="2" height="1" fill="#4CAF50"/>

  <!-- Right fronds -->
  <rect x="9" y="5" width="3" height="1" fill="#43A047"/>
  <rect x="12" y="6" width="1" height="1" fill="#388E3C"/>
  <rect x="9" y="7" width="2" height="1" fill="#4CAF50"/>
  <rect x="11" y="8" width="1" height="1" fill="#43A047"/>
  <rect x="9" y="9" width="4" height="1" fill="#66BB6A"/>
  <rect x="13" y="10" width="1" height="1" fill="#4CAF50"/>
  <rect x="9" y="11" width="3" height="1" fill="#43A047"/>
  <rect x="12" y="12" width="1" height="1" fill="#388E3C"/>
  <rect x="9" y="13" width="2" height="1" fill="#4CAF50"/>

  <!-- Highlights -->
  <rect x="4" y="5" width="1" height="1" fill="#81C784"/>
  <rect x="3" y="9" width="1" height="1" fill="#A5D6A7"/>
  <rect x="11" y="5" width="1" height="1" fill="#81C784"/>
  <rect x="12" y="9" width="1" height="1" fill="#A5D6A7"/>
</svg>