<svg xmlns="http://www.w3.org/2000/svg" viewBox="0 0 16 16" width="16" height="16" shape-rendering="crispEdges">
  <!-- Corrupted Growth (Void/Wasteland) -->

  <!-- Base mass -->
  <rect x="3" y="8" width="10" height="6" fill="#1a1a1a"/>
  <rect x="4" y="6" width="8" height="2" fill="#2c2c2c"/>
  <rect x="5" y="14" width="6" height="2" fill="#0d0d0d"/>

  <!-- Tendrils -->
  <rect x="2" y="7" width="1" height="4" fill="#1a1a1a"/>
  <rect x="1" y="9" width="1" height="2" fill="#2c2c2c"/>
  <rect x="13" y="6" width="1" height="5" fill="#1a1a1a"/>
  <rect x="14" y="8" width="1" height="3" fill="#2c2c2c"/>
  <rect x="6" y="4" width="1" height="2" fill="#1a1a1a"/>
  <rect x="10" y="3" width="1" height="3" fill="#2c2c2c"/>

  <!-- Glitch/corruption spots -->
  <rect x="5" y="7" width="2" height="1" fill="#9C27B0"/>
  <rect x="9" y="9" width="2" height="2" fill="#7B1FA2"/>
  <rect x="4" y="11" width="1" height="1" fill="#FF1D6C"/>
  <rect x="11" y="10" width="1" height="1" fill="#2979FF"/>
  <rect x="7" y="12" width="1" height="1" fill="#9C27B0"/>

  <!-- Eye-like spots -->
  <rect x="6" y="9" width="2" height="2" fill="#4A148C"/>
  <rect x="6" y="9" width="1" height="1" fill="#E1BEE7"/>
  <rect x="10" y="7" width="2" height="2" fill="#4A148C"/>
  <rect x="10" y="7" width="1" height="1" fill="#F3E5F5"/>
</svg>