<svg xmlns="http://www.w3.org/2000/svg" viewBox="0 0 16 16" width="16" height="16" shape-rendering="crispEdges">
  <!-- Tall Grass -->
  <rect x="2" y="8" width="1" height="8" fill="#66BB6A"/>
  <rect x="3" y="6" width="1" height="10" fill="#4CAF50"/>
  <rect x="4" y="4" width="1" height="12" fill="#43A047"/>
  <rect x="5" y="7" width="1" height="9" fill="#66BB6A"/>
  <rect x="6" y="5" width="1" height="11" fill="#4CAF50"/>
  <rect x="7" y="3" width="1" height="13" fill="#388E3C"/>
  <rect x="8" y="6" width="1" height="10" fill="#43A047"/>
  <rect x="9" y="4" width="1" height="12" fill="#66BB6A"/>
  <rect x="10" y="7" width="1" height="9" fill="#4CAF50"/>
  <rect x="11" y="5" width="1" height="11" fill="#43A047"/>
  <rect x="12" y="8" width="1" height="8" fill="#388E3C"/>
  <rect x="13" y="6" width="1" height="10" fill="#66BB6A"/>

  <!-- Tips (lighter) -->
  <rect x="4" y="4" width="1" height="1" fill="#81C784"/>
  <rect x="7" y="3" width="1" height="1" fill="#A5D6A7"/>
  <rect x="9" y="4" width="1" height="1" fill="#81C784"/>
  <rect x="11" y="5" width="1" height="1" fill="#A5D6A7"/>
</svg>