<svg xmlns="http://www.w3.org/2000/svg" viewBox="0 0 16 16" width="16" height="16" shape-rendering="crispEdges">
  <!-- Mossy Rock -->

  <!-- Main body -->
  <rect x="3" y="8" width="10" height="6" fill="#757575"/>
  <rect x="4" y="6" width="8" height="2" fill="#616161"/>
  <rect x="5" y="5" width="6" height="1" fill="#546E7A"/>

  <!-- Side faces -->
  <rect x="2" y="9" width="1" height="4" fill="#616161"/>
  <rect x="13" y="9" width="1" height="4" fill="#424242"/>
  <rect x="3" y="14" width="10" height="1" fill="#424242"/>

  <!-- Moss patches (green) -->
  <rect x="4" y="6" width="3" height="1" fill="#388E3C"/>
  <rect x="5" y="5" width="2" height="1" fill="#4CAF50"/>
  <rect x="3" y="7" width="2" height="2" fill="#43A047"/>
  <rect x="4" y="8" width="1" height="1" fill="#66BB6A"/>
  <rect x="9" y="7" width="2" height="1" fill="#388E3C"/>
  <rect x="10" y="8" width="1" height="1" fill="#4CAF50"/>
  <rect x="5" y="10" width="1" height="2" fill="#43A047"/>
  <rect x="11" y="10" width="2" height="2" fill="#388E3C"/>
  <rect x="12" y="11" width="1" height="1" fill="#2E7D32"/>

  <!-- Stone highlights -->
  <rect x="7" y="6" width="2" height="1" fill="#9E9E9E"/>
  <rect x="6" y="9" width="2" height="1" fill="#9E9E9E"/>

  <!-- Cracks -->
  <rect x="8" y="11" width="1" height="1" fill="#546E7A"/>
</svg>
