<svg xmlns="http://www.w3.org/2000/svg" viewBox="0 0 16 16" width="16" height="16" shape-rendering="crispEdges">
  <!-- Stone Tile - Center -->

  <!-- Base stone -->
  <rect x="0" y="0" width="16" height="16" fill="#78909C"/>

  <!-- Stone blocks pattern -->
  <rect x="0" y="0" width="7" height="5" fill="#607D8B"/>
  <rect x="8" y="0" width="8" height="5" fill="#90A4AE"/>
  <rect x="0" y="6" width="5" height="4" fill="#90A4AE"/>
  <rect x="6" y="6" width="6" height="4" fill="#607D8B"/>
  <rect x="13" y="6" width="3" height="4" fill="#78909C"/>
  <rect x="0" y="11" width="8" height="5" fill="#78909C"/>
  <rect x="9" y="11" width="7" height="5" fill="#607D8B"/>

  <!-- Grout lines (darker) -->
  <rect x="7" y="0" width="1" height="5" fill="#455A64"/>
  <rect x="0" y="5" width="16" height="1" fill="#455A64"/>
  <rect x="5" y="6" width="1" height="4" fill="#455A64"/>
  <rect x="12" y="6" width="1" height="4" fill="#455A64"/>
  <rect x="0" y="10" width="16" height="1" fill="#455A64"/>
  <rect x="8" y="11" width="1" height="5" fill="#455A64"/>

  <!-- Highlights -->
  <rect x="1" y="1" width="2" height="1" fill="#B0BEC5"/>
  <rect x="10" y="1" width="2" height="1" fill="#CFD8DC"/>
  <rect x="1" y="7" width="1" height="1" fill="#B0BEC5"/>
  <rect x="8" y="7" width="2" height="1" fill="#CFD8DC"/>
  <rect x="2" y="12" width="2" height="1" fill="#B0BEC5"/>
  <rect x="11" y="13" width="2" height="1" fill="#CFD8DC"/>

  <!-- Cracks/details -->
  <rect x="4" y="2" width="1" height="2" fill="#546E7A"/>
  <rect x="14" y="3" width="1" height="1" fill="#546E7A"/>
  <rect x="3" y="8" width="1" height="1" fill="#546E7A"/>
  <rect x="10" y="8" width="1" height="1" fill="#546E7A"/>
  <rect x="5" y="13" width="1" height="2" fill="#546E7A"/>
  <rect x="13" y="14" width="1" height="1" fill="#546E7A"/>
</svg>