<svg xmlns="http://www.w3.org/2000/svg" viewBox="0 0 32 16" width="32" height="16" shape-rendering="crispEdges">
  <!-- Wooden Bridge -->

  <!-- Water underneath -->
  <rect x="0" y="12" width="32" height="4" fill="#1976D2"/>
  <rect x="4" y="13" width="4" height="1" fill="#42A5F5"/>
  <rect x="20" y="14" width="6" height="1" fill="#42A5F5"/>

  <!-- Support posts -->
  <rect x="2" y="4" width="3" height="12" fill="#5D4037"/>
  <rect x="3" y="6" width="1" height="8" fill="#6D4C41"/>

  <rect x="27" y="4" width="3" height="12" fill="#5D4037"/>
  <rect x="28" y="6" width="1" height="8" fill="#4E342E"/>

  <!-- Main deck -->
  <rect x="0" y="6" width="32" height="4" fill="#8D6E63"/>
  <rect x="0" y="7" width="32" height="2" fill="#A1887F"/>

  <!-- Plank lines -->
  <rect x="5" y="6" width="1" height="4" fill="#6D4C41"/>
  <rect x="10" y="6" width="1" height="4" fill="#6D4C41"/>
  <rect x="15" y="6" width="1" height="4" fill="#6D4C41"/>
  <rect x="20" y="6" width="1" height="4" fill="#6D4C41"/>
  <rect x="25" y="6" width="1" height="4" fill="#6D4C41"/>

  <!-- Railings -->
  <rect x="0" y="2" width="32" height="2" fill="#6D4C41"/>
  <rect x="0" y="3" width="32" height="1" fill="#8D6E63"/>

  <!-- Railing posts -->
  <rect x="6" y="2" width="2" height="5" fill="#5D4037"/>
  <rect x="14" y="2" width="2" height="5" fill="#5D4037"/>
  <rect x="22" y="2" width="2" height="5" fill="#5D4037"/>

  <!-- Post caps -->
  <rect x="5" y="1" width="4" height="2" fill="#4E342E"/>
  <rect x="13" y="1" width="4" height="2" fill="#4E342E"/>
  <rect x="21" y="1" width="4" height="2" fill="#4E342E"/>
</svg>
