<svg xmlns="http://www.w3.org/2000/svg" viewBox="0 0 12 32" width="12" height="32" shape-rendering="crispEdges">
  <!-- Ladder -->

  <!-- Side rails -->
  <rect x="1" y="0" width="2" height="32" fill="#6D4C41"/>
  <rect x="2" y="1" width="1" height="30" fill="#8D6E63"/>

  <rect x="9" y="0" width="2" height="32" fill="#6D4C41"/>
  <rect x="9" y="1" width="1" height="30" fill="#5D4037"/>

  <!-- Rungs -->
  <rect x="3" y="4" width="6" height="2" fill="#8D6E63"/>
  <rect x="3" y="5" width="6" height="1" fill="#A1887F"/>

  <rect x="3" y="10" width="6" height="2" fill="#8D6E63"/>
  <rect x="3" y="11" width="6" height="1" fill="#A1887F"/>

  <rect x="3" y="16" width="6" height="2" fill="#8D6E63"/>
  <rect x="3" y="17" width="6" height="1" fill="#A1887F"/>

  <rect x="3" y="22" width="6" height="2" fill="#8D6E63"/>
  <rect x="3" y="23" width="6" height="1" fill="#A1887F"/>

  <rect x="3" y="28" width="6" height="2" fill="#8D6E63"/>
  <rect x="3" y="29" width="6" height="1" fill="#A1887F"/>

  <!-- Rail caps -->
  <rect x="0" y="0" width="4" height="2" fill="#5D4037"/>
  <rect x="8" y="0" width="4" height="2" fill="#5D4037"/>

  <!-- Wood grain -->
  <rect x="2" y="8" width="1" height="2" fill="#5D4037"/>
  <rect x="9" y="20" width="1" height="2" fill="#4E342E"/>
</svg>
