<svg xmlns="http://www.w3.org/2000/svg" viewBox="0 0 16 32" width="16" height="32" shape-rendering="crispEdges">
  <!-- Oak Tree - Small (16x32) -->

  <!-- Canopy -->
  <rect x="4" y="0" width="8" height="2" fill="#2E7D32"/>
  <rect x="2" y="2" width="12" height="2" fill="#388E3C"/>
  <rect x="1" y="4" width="14" height="4" fill="#43A047"/>
  <rect x="0" y="8" width="16" height="4" fill="#4CAF50"/>
  <rect x="1" y="12" width="14" height="3" fill="#43A047"/>
  <rect x="2" y="15" width="12" height="2" fill="#388E3C"/>

  <!-- Canopy shadows -->
  <rect x="2" y="4" width="3" height="2" fill="#2E7D32"/>
  <rect x="10" y="6" width="4" height="3" fill="#2E7D32"/>
  <rect x="1" y="10" width="2" height="2" fill="#388E3C"/>
  <rect x="12" y="12" width="2" height="2" fill="#388E3C"/>

  <!-- Canopy highlights -->
  <rect x="5" y="2" width="2" height="1" fill="#66BB6A"/>
  <rect x="8" y="5" width="2" height="2" fill="#81C784"/>
  <rect x="3" y="8" width="2" height="1" fill="#A5D6A7"/>
  <rect x="6" y="11" width="3" height="1" fill="#66BB6A"/>

  <!-- Trunk -->
  <rect x="6" y="17" width="4" height="12" fill="#6D4C41"/>
  <rect x="7" y="17" width="2" height="12" fill="#8D6E63"/>

  <!-- Trunk details -->
  <rect x="6" y="19" width="1" height="2" fill="#5D4037"/>
  <rect x="9" y="22" width="1" height="3" fill="#5D4037"/>
  <rect x="7" y="25" width="1" height="2" fill="#4E342E"/>

  <!-- Trunk highlight -->
  <rect x="8" y="18" width="1" height="3" fill="#A1887F"/>

  <!-- Base shadow -->
  <rect x="5" y="29" width="6" height="1" fill="#5D4037"/>
  <rect x="4" y="30" width="8" height="1" fill="#4E342E"/>
  <rect x="3" y="31" width="10" height="1" fill="#3E2723"/>
</svg>