<svg xmlns="http://www.w3.org/2000/svg" viewBox="0 0 32 48" width="32" height="48" shape-rendering="crispEdges">
  <!-- Cherry Blossom Tree - Large (32x48) -->

  <!-- Canopy top -->
  <rect x="10" y="0" width="12" height="2" fill="#F48FB1"/>
  <rect x="6" y="2" width="20" height="3" fill="#F06292"/>
  <rect x="4" y="5" width="24" height="4" fill="#EC407A"/>
  <rect x="2" y="9" width="28" height="6" fill="#F48FB1"/>
  <rect x="1" y="15" width="30" height="5" fill="#F06292"/>
  <rect x="2" y="20" width="28" height="4" fill="#EC407A"/>
  <rect x="4" y="24" width="24" height="3" fill="#F48FB1"/>

  <!-- Flower clusters -->
  <rect x="12" y="1" width="3" height="1" fill="#FCE4EC"/>
  <rect x="7" y="4" width="3" height="2" fill="#F8BBD9"/>
  <rect x="20" y="3" width="4" height="2" fill="#FCE4EC"/>
  <rect x="4" y="7" width="3" height="2" fill="#F8BBD9"/>
  <rect x="14" y="6" width="4" height="3" fill="#FCE4EC"/>
  <rect x="24" y="8" width="3" height="2" fill="#F8BBD9"/>
  <rect x="3" y="12" width="3" height="2" fill="#FCE4EC"/>
  <rect x="10" y="11" width="4" height="2" fill="#F8BBD9"/>
  <rect x="18" y="13" width="3" height="2" fill="#FCE4EC"/>
  <rect x="26" y="14" width="3" height="2" fill="#F8BBD9"/>
  <rect x="6" y="17" width="2" height="2" fill="#FCE4EC"/>
  <rect x="14" y="19" width="4" height="2" fill="#F8BBD9"/>
  <rect x="22" y="18" width="3" height="2" fill="#FCE4EC"/>
  <rect x="8" y="22" width="3" height="2" fill="#F8BBD9"/>
  <rect x="18" y="24" width="4" height="1" fill="#FCE4EC"/>

  <!-- Shadows -->
  <rect x="16" y="7" width="4" height="3" fill="#AD1457"/>
  <rect x="6" y="14" width="3" height="3" fill="#C2185B"/>
  <rect x="24" y="17" width="4" height="3" fill="#AD1457"/>
  <rect x="12" y="21" width="3" height="2" fill="#C2185B"/>

  <!-- Falling petals -->
  <rect x="1" y="26" width="1" height="1" fill="#F8BBD9"/>
  <rect x="28" y="28" width="1" height="1" fill="#FCE4EC"/>
  <rect x="4" y="32" width="1" height="1" fill="#F8BBD9"/>
  <rect x="26" y="35" width="1" height="1" fill="#FCE4EC"/>
  <rect x="2" y="40" width="1" height="1" fill="#F8BBD9"/>
  <rect x="29" y="42" width="1" height="1" fill="#FCE4EC"/>

  <!-- Trunk -->
  <rect x="12" y="27" width="8" height="18" fill="#4E342E"/>
  <rect x="14" y="27" width="4" height="18" fill="#5D4037"/>

  <!-- Trunk details -->
  <rect x="12" y="30" width="2" height="3" fill="#3E2723"/>
  <rect x="18" y="34" width="2" height="4" fill="#3E2723"/>
  <rect x="13" y="39" width="2" height="3" fill="#3E2723"/>
  <rect x="15" y="28" width="2" height="5" fill="#6D4C41"/>

  <!-- Roots -->
  <rect x="10" y="43" width="2" height="2" fill="#4E342E"/>
  <rect x="20" y="43" width="2" height="2" fill="#4E342E"/>

  <!-- Base -->
  <rect x="10" y="45" width="12" height="1" fill="#4E342E"/>
  <rect x="8" y="46" width="16" height="1" fill="#3E2723"/>
  <rect x="6" y="47" width="20" height="1" fill="#3E2723"/>
</svg>