<svg xmlns="http://www.w3.org/2000/svg" viewBox="0 0 32 48" width="32" height="48" shape-rendering="crispEdges">
  <!-- Oak Tree - Large (32x48) -->

  <!-- Canopy top -->
  <rect x="10" y="0" width="12" height="2" fill="#2E7D32"/>
  <rect x="6" y="2" width="20" height="3" fill="#388E3C"/>
  <rect x="4" y="5" width="24" height="4" fill="#43A047"/>
  <rect x="2" y="9" width="28" height="6" fill="#4CAF50"/>
  <rect x="1" y="15" width="30" height="5" fill="#43A047"/>
  <rect x="2" y="20" width="28" height="4" fill="#388E3C"/>
  <rect x="4" y="24" width="24" height="3" fill="#2E7D32"/>

  <!-- Canopy shadows (depth) -->
  <rect x="4" y="5" width="6" height="4" fill="#2E7D32"/>
  <rect x="20" y="7" width="6" height="5" fill="#2E7D32"/>
  <rect x="2" y="12" width="4" height="4" fill="#388E3C"/>
  <rect x="26" y="14" width="3" height="4" fill="#388E3C"/>
  <rect x="8" y="18" width="4" height="3" fill="#2E7D32"/>
  <rect x="22" y="20" width="5" height="3" fill="#2E7D32"/>

  <!-- Canopy highlights -->
  <rect x="12" y="3" width="3" height="2" fill="#66BB6A"/>
  <rect x="18" y="6" width="4" height="2" fill="#81C784"/>
  <rect x="8" y="10" width="3" height="2" fill="#A5D6A7"/>
  <rect x="14" y="12" width="4" height="2" fill="#C8E6C9"/>
  <rect x="6" y="16" width="2" height="1" fill="#66BB6A"/>
  <rect x="24" y="17" width="2" height="1" fill="#81C784"/>
  <rect x="12" y="21" width="3" height="1" fill="#66BB6A"/>

  <!-- Trunk -->
  <rect x="12" y="27" width="8" height="18" fill="#6D4C41"/>
  <rect x="14" y="27" width="4" height="18" fill="#8D6E63"/>

  <!-- Trunk details -->
  <rect x="12" y="30" width="2" height="3" fill="#5D4037"/>
  <rect x="18" y="33" width="2" height="4" fill="#5D4037"/>
  <rect x="13" y="38" width="2" height="3" fill="#4E342E"/>
  <rect x="17" y="40" width="2" height="2" fill="#5D4037"/>

  <!-- Trunk highlight -->
  <rect x="15" y="28" width="2" height="5" fill="#A1887F"/>
  <rect x="16" y="35" width="1" height="4" fill="#BCAAA4"/>

  <!-- Roots -->
  <rect x="10" y="43" width="2" height="2" fill="#5D4037"/>
  <rect x="20" y="43" width="2" height="2" fill="#5D4037"/>

  <!-- Base shadow -->
  <rect x="10" y="45" width="12" height="1" fill="#5D4037"/>
  <rect x="8" y="46" width="16" height="1" fill="#4E342E"/>
  <rect x="6" y="47" width="20" height="1" fill="#3E2723"/>
</svg>