<svg xmlns="http://www.w3.org/2000/svg" viewBox="0 0 24 48" width="24" height="48" shape-rendering="crispEdges">
  <!-- Pine Tree - Large (24x48) -->

  <!-- Top point -->
  <rect x="11" y="0" width="2" height="2" fill="#1B5E20"/>

  <!-- Tier 1 -->
  <rect x="10" y="2" width="4" height="2" fill="#2E7D32"/>
  <rect x="9" y="4" width="6" height="2" fill="#388E3C"/>
  <rect x="8" y="6" width="8" height="2" fill="#43A047"/>

  <!-- Tier 2 -->
  <rect x="6" y="8" width="12" height="2" fill="#2E7D32"/>
  <rect x="5" y="10" width="14" height="2" fill="#388E3C"/>
  <rect x="4" y="12" width="16" height="2" fill="#43A047"/>

  <!-- Tier 3 -->
  <rect x="3" y="14" width="18" height="2" fill="#2E7D32"/>
  <rect x="2" y="16" width="20" height="3" fill="#388E3C"/>
  <rect x="1" y="19" width="22" height="2" fill="#43A047"/>

  <!-- Tier 4 (bottom) -->
  <rect x="0" y="21" width="24" height="3" fill="#2E7D32"/>
  <rect x="1" y="24" width="22" height="3" fill="#388E3C"/>
  <rect x="2" y="27" width="20" height="2" fill="#43A047"/>

  <!-- Highlights -->
  <rect x="11" y="0" width="1" height="1" fill="#A5D6A7"/>
  <rect x="9" y="4" width="2" height="1" fill="#81C784"/>
  <rect x="6" y="8" width="2" height="1" fill="#66BB6A"/>
  <rect x="13" y="11" width="3" height="1" fill="#81C784"/>
  <rect x="3" y="15" width="2" height="1" fill="#66BB6A"/>
  <rect x="16" y="17" width="3" height="1" fill="#81C784"/>
  <rect x="1" y="22" width="3" height="1" fill="#66BB6A"/>
  <rect x="10" y="25" width="4" height="1" fill="#81C784"/>

  <!-- Shadows -->
  <rect x="13" y="5" width="2" height="2" fill="#1B5E20"/>
  <rect x="15" y="11" width="3" height="2" fill="#1B5E20"/>
  <rect x="17" y="18" width="3" height="2" fill="#1B5E20"/>
  <rect x="19" y="23" width="3" height="3" fill="#1B5E20"/>

  <!-- Trunk -->
  <rect x="9" y="29" width="6" height="16" fill="#5D4037"/>
  <rect x="10" y="29" width="4" height="16" fill="#6D4C41"/>
  <rect x="11" y="29" width="2" height="16" fill="#8D6E63"/>

  <!-- Trunk details -->
  <rect x="9" y="32" width="1" height="3" fill="#4E342E"/>
  <rect x="14" y="36" width="1" height="3" fill="#4E342E"/>
  <rect x="10" y="40" width="1" height="2" fill="#4E342E"/>

  <!-- Roots -->
  <rect x="7" y="43" width="2" height="2" fill="#5D4037"/>
  <rect x="15" y="43" width="2" height="2" fill="#5D4037"/>

  <!-- Base -->
  <rect x="7" y="45" width="10" height="1" fill="#4E342E"/>
  <rect x="5" y="46" width="14" height="1" fill="#3E2723"/>
  <rect x="4" y="47" width="16" height="1" fill="#3E2723"/>
</svg>