<svg xmlns="http://www.w3.org/2000/svg" viewBox="0 0 16 16" width="16" height="16" shape-rendering="crispEdges">
  <!-- Water Tile - Center -->

  <!-- Base water -->
  <rect x="0" y="0" width="16" height="16" fill="#2979FF"/>

  <!-- Deeper water patches -->
  <rect x="2" y="2" width="4" height="2" fill="#1565C0"/>
  <rect x="10" y="1" width="3" height="2" fill="#0D47A1"/>
  <rect x="0" y="6" width="3" height="3" fill="#1565C0"/>
  <rect x="7" y="5" width="4" height="3" fill="#0D47A1"/>
  <rect x="12" y="7" width="4" height="2" fill="#1565C0"/>
  <rect x="3" y="10" width="3" height="2" fill="#0D47A1"/>
  <rect x="9" y="11" width="4" height="3" fill="#1565C0"/>
  <rect x="0" y="13" width="2" height="3" fill="#0D47A1"/>
  <rect x="14" y="12" width="2" height="4" fill="#1565C0"/>

  <!-- Wave highlights -->
  <rect x="1" y="0" width="3" height="1" fill="#64B5F6"/>
  <rect x="8" y="3" width="2" height="1" fill="#82B1FF"/>
  <rect x="14" y="2" width="2" height="1" fill="#64B5F6"/>
  <rect x="4" y="5" width="2" height="1" fill="#82B1FF"/>
  <rect x="0" y="9" width="2" height="1" fill="#64B5F6"/>
  <rect x="11" y="9" width="3" height="1" fill="#82B1FF"/>
  <rect x="5" y="13" width="2" height="1" fill="#64B5F6"/>
  <rect x="12" y="15" width="2" height="1" fill="#82B1FF"/>

  <!-- Sparkle highlights -->
  <rect x="5" y="1" width="1" height="1" fill="#E3F2FD"/>
  <rect x="13" y="5" width="1" height="1" fill="#FFFFFF"/>
  <rect x="2" y="8" width="1" height="1" fill="#E3F2FD"/>
  <rect x="8" y="12" width="1" height="1" fill="#FFFFFF"/>
  <rect x="0" y="15" width="1" height="1" fill="#E3F2FD"/>
</svg>