<svg xmlns="http://www.w3.org/2000/svg" viewBox="0 0 16 16" width="16" height="16" shape-rendering="crispEdges">
  <!-- Water Tile - Outer Corner NW (land at top-left) -->

  <!-- Land corner -->
  <rect x="0" y="0" width="6" height="6" fill="#4CAF50"/>
  <rect x="1" y="1" width="2" height="2" fill="#43A047"/>

  <!-- Land edges -->
  <rect x="6" y="0" width="10" height="3" fill="#4CAF50"/>
  <rect x="8" y="1" width="2" height="1" fill="#388E3C"/>
  <rect x="0" y="6" width="3" height="10" fill="#4CAF50"/>
  <rect x="0" y="10" width="2" height="2" fill="#388E3C"/>

  <!-- Shore curve -->
  <rect x="3" y="6" width="3" height="3" fill="#C9B896"/>
  <rect x="6" y="3" width="3" height="3" fill="#C9B896"/>
  <rect x="9" y="3" width="7" height="2" fill="#C9B896"/>
  <rect x="3" y="9" width="2" height="7" fill="#C9B896"/>
  <rect x="4" y="4" width="2" height="2" fill="#D4C9A8"/>

  <!-- Shallow water curve -->
  <rect x="5" y="9" width="2" height="2" fill="#64B5F6"/>
  <rect x="9" y="5" width="2" height="2" fill="#64B5F6"/>
  <rect x="11" y="5" width="5" height="2" fill="#64B5F6"/>
  <rect x="5" y="11" width="2" height="5" fill="#64B5F6"/>
  <rect x="7" y="7" width="2" height="2" fill="#90CAF9"/>

  <!-- Main water -->
  <rect x="7" y="9" width="9" height="7" fill="#2979FF"/>
  <rect x="9" y="7" width="7" height="2" fill="#2979FF"/>
  <rect x="8" y="10" width="3" height="2" fill="#1565C0"/>
  <rect x="12" y="12" width="3" height="3" fill="#0D47A1"/>

  <!-- Wave highlights -->
  <rect x="10" y="8" width="1" height="1" fill="#64B5F6"/>
  <rect x="14" y="10" width="1" height="1" fill="#FFFFFF"/>
  <rect x="8" y="14" width="1" height="1" fill="#E3F2FD"/>
</svg>