<svg xmlns="http://www.w3.org/2000/svg" viewBox="0 0 8 14" width="8" height="14" shape-rendering="crispEdges">
  <!-- Bluebell - Delicate blue flower -->

  <!-- Bell flowers -->
  <rect x="4" y="0" width="3" height="2" fill="#42A5F5"/>
  <rect x="5" y="2" width="2" height="1" fill="#1E88E5"/>
  <rect x="2" y="2" width="3" height="2" fill="#64B5F6"/>
  <rect x="3" y="4" width="2" height="1" fill="#1E88E5"/>
  <rect x="0" y="4" width="3" height="2" fill="#42A5F5"/>
  <rect x="1" y="6" width="2" height="1" fill="#1565C0"/>

  <!-- Highlights -->
  <rect x="4" y="0" width="1" height="1" fill="#90CAF9"/>
  <rect x="2" y="2" width="1" height="1" fill="#BBDEFB"/>
  <rect x="0" y="4" width="1" height="1" fill="#90CAF9"/>

  <!-- Stem -->
  <rect x="3" y="1" width="1" height="3" fill="#4CAF50"/>
  <rect x="2" y="4" width="1" height="3" fill="#388E3C"/>
  <rect x="3" y="7" width="1" height="7" fill="#4CAF50"/>
  <rect x="3" y="8" width="1" height="5" fill="#388E3C"/>

  <!-- Leaves -->
  <rect x="4" y="9" width="2" height="3" fill="#66BB6A"/>
  <rect x="1" y="11" width="2" height="3" fill="#66BB6A"/>
</svg>
