<svg xmlns="http://www.w3.org/2000/svg" viewBox="0 0 8 16" width="8" height="16" shape-rendering="crispEdges">
  <!-- Corn on the cob -->

  <!-- Husk top -->
  <rect x="2" y="0" width="4" height="3" fill="#8BC34A"/>
  <rect x="1" y="1" width="1" height="3" fill="#689F38"/>
  <rect x="6" y="1" width="1" height="3" fill="#689F38"/>
  <rect x="0" y="2" width="1" height="2" fill="#558B2F"/>
  <rect x="7" y="2" width="1" height="2" fill="#558B2F"/>

  <!-- Corn kernels -->
  <rect x="2" y="3" width="4" height="10" fill="#FDD835"/>
  <rect x="1" y="4" width="1" height="8" fill="#F9A825"/>
  <rect x="6" y="4" width="1" height="8" fill="#F9A825"/>

  <!-- Kernel rows -->
  <rect x="3" y="4" width="1" height="1" fill="#FFEB3B"/>
  <rect x="5" y="4" width="1" height="1" fill="#FFEB3B"/>
  <rect x="2" y="6" width="1" height="1" fill="#FFEB3B"/>
  <rect x="4" y="6" width="1" height="1" fill="#FFEB3B"/>
  <rect x="3" y="8" width="1" height="1" fill="#FFEB3B"/>
  <rect x="5" y="8" width="1" height="1" fill="#FFEB3B"/>
  <rect x="2" y="10" width="1" height="1" fill="#FFEB3B"/>
  <rect x="4" y="10" width="1" height="1" fill="#FFEB3B"/>

  <!-- Bottom -->
  <rect x="3" y="13" width="2" height="2" fill="#F9A825"/>
  <rect x="3" y="15" width="2" height="1" fill="#F57F17"/>
</svg>
