<svg xmlns="http://www.w3.org/2000/svg" viewBox="0 0 32 32" width="32" height="32" shape-rendering="crispEdges">
  <!-- Bookshelf -->

  <!-- Back panel -->
  <rect x="2" y="2" width="28" height="28" fill="#5D4037"/>

  <!-- Frame -->
  <rect x="2" y="2" width="2" height="28" fill="#6D4C41"/>
  <rect x="28" y="2" width="2" height="28" fill="#6D4C41"/>
  <rect x="2" y="2" width="28" height="2" fill="#6D4C41"/>
  <rect x="2" y="28" width="28" height="2" fill="#6D4C41"/>

  <!-- Shelves -->
  <rect x="4" y="10" width="24" height="2" fill="#8D6E63"/>
  <rect x="4" y="19" width="24" height="2" fill="#8D6E63"/>
  <rect x="4" y="28" width="24" height="2" fill="#8D6E63"/>

  <!-- Top shelf books -->
  <rect x="5" y="4" width="3" height="6" fill="#E53935"/>
  <rect x="6" y="5" width="1" height="4" fill="#EF5350"/>
  <rect x="8" y="5" width="4" height="5" fill="#1976D2"/>
  <rect x="9" y="6" width="2" height="3" fill="#2196F3"/>
  <rect x="12" y="4" width="3" height="6" fill="#4CAF50"/>
  <rect x="15" y="5" width="4" height="5" fill="#7B1FA2"/>
  <rect x="16" y="6" width="2" height="3" fill="#9C27B0"/>
  <rect x="19" y="4" width="3" height="6" fill="#FF9800"/>
  <rect x="22" y="5" width="4" height="5" fill="#795548"/>
  <rect x="23" y="6" width="2" height="3" fill="#8D6E63"/>

  <!-- Middle shelf books and items -->
  <rect x="5" y="12" width="4" height="7" fill="#3F51B5"/>
  <rect x="6" y="13" width="2" height="5" fill="#5C6BC0"/>
  <rect x="9" y="13" width="3" height="6" fill="#FFC107"/>
  <rect x="12" y="12" width="4" height="7" fill="#009688"/>
  <!-- Small plant -->
  <rect x="17" y="16" width="4" height="3" fill="#8D6E63"/>
  <rect x="18" y="13" width="2" height="4" fill="#4CAF50"/>
  <rect x="17" y="14" width="1" height="2" fill="#66BB6A"/>
  <rect x="20" y="14" width="1" height="2" fill="#66BB6A"/>
  <rect x="22" y="13" width="3" height="6" fill="#E91E63"/>
  <rect x="25" y="12" width="2" height="7" fill="#607D8B"/>

  <!-- Bottom shelf books -->
  <rect x="5" y="21" width="5" height="7" fill="#FF5722"/>
  <rect x="6" y="22" width="3" height="5" fill="#FF7043"/>
  <rect x="10" y="22" width="3" height="6" fill="#673AB7"/>
  <rect x="13" y="21" width="4" height="7" fill="#00BCD4"/>
  <rect x="14" y="22" width="2" height="5" fill="#26C6DA"/>
  <!-- Photo frame -->
  <rect x="18" y="23" width="4" height="5" fill="#8D6E63"/>
  <rect x="19" y="24" width="2" height="3" fill="#FFCCBC"/>
  <rect x="22" y="21" width="3" height="7" fill="#8BC34A"/>
  <rect x="25" y="22" width="2" height="6" fill="#455A64"/>
</svg>
