<svg xmlns="http://www.w3.org/2000/svg" viewBox="0 0 32 32" width="32" height="32" shape-rendering="crispEdges">
  <!-- Rug - Red Persian Style -->

  <!-- Rug base -->
  <rect x="2" y="8" width="28" height="16" fill="#C62828"/>

  <!-- Border -->
  <rect x="2" y="8" width="28" height="2" fill="#8D6E63"/>
  <rect x="2" y="22" width="28" height="2" fill="#8D6E63"/>
  <rect x="2" y="10" width="2" height="12" fill="#8D6E63"/>
  <rect x="28" y="10" width="2" height="12" fill="#8D6E63"/>

  <!-- Inner border -->
  <rect x="4" y="10" width="24" height="1" fill="#FFD54F"/>
  <rect x="4" y="21" width="24" height="1" fill="#FFD54F"/>
  <rect x="4" y="11" width="1" height="10" fill="#FFD54F"/>
  <rect x="27" y="11" width="1" height="10" fill="#FFD54F"/>

  <!-- Center medallion -->
  <rect x="12" y="12" width="8" height="8" fill="#1565C0"/>
  <rect x="13" y="13" width="6" height="6" fill="#FFD54F"/>
  <rect x="14" y="14" width="4" height="4" fill="#C62828"/>
  <rect x="15" y="15" width="2" height="2" fill="#FFD54F"/>

  <!-- Corner motifs -->
  <rect x="5" y="11" width="3" height="3" fill="#1565C0"/>
  <rect x="24" y="11" width="3" height="3" fill="#1565C0"/>
  <rect x="5" y="18" width="3" height="3" fill="#1565C0"/>
  <rect x="24" y="18" width="3" height="3" fill="#1565C0"/>

  <!-- Pattern details -->
  <rect x="9" y="14" width="2" height="2" fill="#FFD54F"/>
  <rect x="21" y="14" width="2" height="2" fill="#FFD54F"/>
  <rect x="9" y="16" width="2" height="2" fill="#FFD54F"/>
  <rect x="21" y="16" width="2" height="2" fill="#FFD54F"/>

  <!-- Fringe -->
  <rect x="4" y="8" width="1" height="1" fill="#D7CCC8"/>
  <rect x="6" y="8" width="1" height="1" fill="#D7CCC8"/>
  <rect x="8" y="8" width="1" height="1" fill="#D7CCC8"/>
  <rect x="10" y="8" width="1" height="1" fill="#D7CCC8"/>
  <rect x="12" y="8" width="1" height="1" fill="#D7CCC8"/>
  <rect x="14" y="8" width="1" height="1" fill="#D7CCC8"/>
  <rect x="16" y="8" width="1" height="1" fill="#D7CCC8"/>
  <rect x="18" y="8" width="1" height="1" fill="#D7CCC8"/>
  <rect x="20" y="8" width="1" height="1" fill="#D7CCC8"/>
  <rect x="22" y="8" width="1" height="1" fill="#D7CCC8"/>
  <rect x="24" y="8" width="1" height="1" fill="#D7CCC8"/>
  <rect x="26" y="8" width="1" height="1" fill="#D7CCC8"/>

  <rect x="4" y="23" width="1" height="1" fill="#D7CCC8"/>
  <rect x="6" y="23" width="1" height="1" fill="#D7CCC8"/>
  <rect x="8" y="23" width="1" height="1" fill="#D7CCC8"/>
  <rect x="10" y="23" width="1" height="1" fill="#D7CCC8"/>
  <rect x="12" y="23" width="1" height="1" fill="#D7CCC8"/>
  <rect x="14" y="23" width="1" height="1" fill="#D7CCC8"/>
  <rect x="16" y="23" width="1" height="1" fill="#D7CCC8"/>
  <rect x="18" y="23" width="1" height="1" fill="#D7CCC8"/>
  <rect x="20" y="23" width="1" height="1" fill="#D7CCC8"/>
  <rect x="22" y="23" width="1" height="1" fill="#D7CCC8"/>
  <rect x="24" y="23" width="1" height="1" fill="#D7CCC8"/>
  <rect x="26" y="23" width="1" height="1" fill="#D7CCC8"/>
</svg>
