<svg xmlns="http://www.w3.org/2000/svg" viewBox="0 0 32 32" width="32" height="32" shape-rendering="crispEdges">
  <!-- Rug - Blue Geometric Style -->

  <!-- Rug base -->
  <rect x="2" y="8" width="28" height="16" fill="#1565C0"/>

  <!-- Border -->
  <rect x="2" y="8" width="28" height="2" fill="#0D47A1"/>
  <rect x="2" y="22" width="28" height="2" fill="#0D47A1"/>
  <rect x="2" y="10" width="2" height="12" fill="#0D47A1"/>
  <rect x="28" y="10" width="2" height="12" fill="#0D47A1"/>

  <!-- White border -->
  <rect x="4" y="10" width="24" height="1" fill="#FAFAFA"/>
  <rect x="4" y="21" width="24" height="1" fill="#FAFAFA"/>
  <rect x="4" y="11" width="1" height="10" fill="#FAFAFA"/>
  <rect x="27" y="11" width="1" height="10" fill="#FAFAFA"/>

  <!-- Geometric pattern - diamonds -->
  <rect x="14" y="14" width="4" height="4" fill="#FAFAFA"/>
  <rect x="15" y="15" width="2" height="2" fill="#1565C0"/>

  <rect x="8" y="14" width="4" height="4" fill="#FAFAFA"/>
  <rect x="9" y="15" width="2" height="2" fill="#1565C0"/>

  <rect x="20" y="14" width="4" height="4" fill="#FAFAFA"/>
  <rect x="21" y="15" width="2" height="2" fill="#1565C0"/>

  <!-- Cross patterns -->
  <rect x="6" y="11" width="2" height="4" fill="#FAFAFA"/>
  <rect x="5" y="12" width="4" height="2" fill="#FAFAFA"/>

  <rect x="24" y="11" width="2" height="4" fill="#FAFAFA"/>
  <rect x="23" y="12" width="4" height="2" fill="#FAFAFA"/>

  <rect x="6" y="17" width="2" height="4" fill="#FAFAFA"/>
  <rect x="5" y="18" width="4" height="2" fill="#FAFAFA"/>

  <rect x="24" y="17" width="2" height="4" fill="#FAFAFA"/>
  <rect x="23" y="18" width="4" height="2" fill="#FAFAFA"/>

  <!-- Center stripe -->
  <rect x="12" y="11" width="8" height="1" fill="#2196F3"/>
  <rect x="12" y="20" width="8" height="1" fill="#2196F3"/>

  <!-- Fringe -->
  <rect x="4" y="8" width="1" height="1" fill="#E0E0E0"/>
  <rect x="6" y="8" width="1" height="1" fill="#E0E0E0"/>
  <rect x="8" y="8" width="1" height="1" fill="#E0E0E0"/>
  <rect x="10" y="8" width="1" height="1" fill="#E0E0E0"/>
  <rect x="12" y="8" width="1" height="1" fill="#E0E0E0"/>
  <rect x="14" y="8" width="1" height="1" fill="#E0E0E0"/>
  <rect x="16" y="8" width="1" height="1" fill="#E0E0E0"/>
  <rect x="18" y="8" width="1" height="1" fill="#E0E0E0"/>
  <rect x="20" y="8" width="1" height="1" fill="#E0E0E0"/>
  <rect x="22" y="8" width="1" height="1" fill="#E0E0E0"/>
  <rect x="24" y="8" width="1" height="1" fill="#E0E0E0"/>
  <rect x="26" y="8" width="1" height="1" fill="#E0E0E0"/>

  <rect x="4" y="23" width="1" height="1" fill="#E0E0E0"/>
  <rect x="6" y="23" width="1" height="1" fill="#E0E0E0"/>
  <rect x="8" y="23" width="1" height="1" fill="#E0E0E0"/>
  <rect x="10" y="23" width="1" height="1" fill="#E0E0E0"/>
  <rect x="12" y="23" width="1" height="1" fill="#E0E0E0"/>
  <rect x="14" y="23" width="1" height="1" fill="#E0E0E0"/>
  <rect x="16" y="23" width="1" height="1" fill="#E0E0E0"/>
  <rect x="18" y="23" width="1" height="1" fill="#E0E0E0"/>
  <rect x="20" y="23" width="1" height="1" fill="#E0E0E0"/>
  <rect x="22" y="23" width="1" height="1" fill="#E0E0E0"/>
  <rect x="24" y="23" width="1" height="1" fill="#E0E0E0"/>
  <rect x="26" y="23" width="1" height="1" fill="#E0E0E0"/>
</svg>
