<svg xmlns="http://www.w3.org/2000/svg" viewBox="0 0 16 12" width="16" height="12" shape-rendering="crispEdges">
  <!-- Wooden fence section -->

  <!-- Pickets -->
  <rect x="0" y="0" width="3" height="10" fill="#8D6E63"/>
  <rect x="0" y="0" width="3" height="1" fill="#A1887F"/>
  <rect x="1" y="1" width="1" height="8" fill="#795548"/>

  <rect x="4" y="1" width="3" height="9" fill="#8D6E63"/>
  <rect x="4" y="1" width="3" height="1" fill="#A1887F"/>
  <rect x="5" y="2" width="1" height="7" fill="#795548"/>

  <rect x="9" y="1" width="3" height="9" fill="#8D6E63"/>
  <rect x="9" y="1" width="3" height="1" fill="#A1887F"/>
  <rect x="10" y="2" width="1" height="7" fill="#795548"/>

  <rect x="13" y="0" width="3" height="10" fill="#8D6E63"/>
  <rect x="13" y="0" width="3" height="1" fill="#A1887F"/>
  <rect x="14" y="1" width="1" height="8" fill="#795548"/>

  <!-- Rails -->
  <rect x="0" y="3" width="16" height="2" fill="#6D4C41"/>
  <rect x="0" y="3" width="16" height="1" fill="#8D6E63"/>
  <rect x="0" y="7" width="16" height="2" fill="#6D4C41"/>
  <rect x="0" y="7" width="16" height="1" fill="#8D6E63"/>
</svg>
