<svg xmlns="http://www.w3.org/2000/svg" viewBox="0 0 24 24" width="24" height="24" shape-rendering="crispEdges">
  <!-- Town fountain -->

  <!-- Water spray -->
  <rect x="11" y="0" width="2" height="3" fill="#81D4FA"/>
  <rect x="10" y="2" width="1" height="2" fill="#4FC3F7"/>
  <rect x="13" y="2" width="1" height="2" fill="#4FC3F7"/>
  <rect x="9" y="3" width="1" height="1" fill="#B3E5FC"/>
  <rect x="14" y="3" width="1" height="1" fill="#B3E5FC"/>

  <!-- Top tier -->
  <rect x="9" y="4" width="6" height="3" fill="#90A4AE"/>
  <rect x="10" y="5" width="4" height="1" fill="#B0BEC5"/>

  <!-- Water in top tier -->
  <rect x="10" y="6" width="4" height="1" fill="#4FC3F7"/>

  <!-- Middle tier -->
  <rect x="6" y="8" width="12" height="3" fill="#78909C"/>
  <rect x="7" y="9" width="10" height="1" fill="#90A4AE"/>

  <!-- Water in middle tier -->
  <rect x="7" y="10" width="10" height="1" fill="#81D4FA"/>

  <!-- Pedestal -->
  <rect x="10" y="7" width="4" height="2" fill="#607D8B"/>

  <!-- Main basin -->
  <rect x="2" y="12" width="20" height="4" fill="#607D8B"/>
  <rect x="3" y="13" width="18" height="2" fill="#78909C"/>

  <!-- Water in basin -->
  <rect x="3" y="14" width="18" height="1" fill="#4FC3F7"/>
  <rect x="5" y="14" width="2" height="1" fill="#81D4FA"/>
  <rect x="17" y="14" width="2" height="1" fill="#81D4FA"/>

  <!-- Basin support -->
  <rect x="8" y="11" width="8" height="2" fill="#546E7A"/>

  <!-- Base -->
  <rect x="0" y="16" width="24" height="4" fill="#546E7A"/>
  <rect x="1" y="17" width="22" height="2" fill="#607D8B"/>

  <!-- Foundation -->
  <rect x="0" y="20" width="24" height="4" fill="#455A64"/>
  <rect x="2" y="21" width="20" height="2" fill="#546E7A"/>
</svg>
