<svg xmlns="http://www.w3.org/2000/svg" viewBox="0 0 24 14" width="24" height="14" shape-rendering="crispEdges">
  <!-- Picnic table -->

  <!-- Table top -->
  <rect x="2" y="2" width="20" height="3" fill="#8D6E63"/>
  <rect x="2" y="2" width="20" height="1" fill="#A1887F"/>
  <rect x="3" y="3" width="18" height="1" fill="#795548"/>

  <!-- Bench left -->
  <rect x="0" y="8" width="6" height="2" fill="#8D6E63"/>
  <rect x="0" y="8" width="6" height="1" fill="#A1887F"/>

  <!-- Bench right -->
  <rect x="18" y="8" width="6" height="2" fill="#8D6E63"/>
  <rect x="18" y="8" width="6" height="1" fill="#A1887F"/>

  <!-- Support structure -->
  <rect x="4" y="5" width="2" height="9" fill="#6D4C41"/>
  <rect x="4" y="5" width="1" height="9" fill="#795548"/>
  <rect x="18" y="5" width="2" height="9" fill="#6D4C41"/>
  <rect x="18" y="5" width="1" height="9" fill="#795548"/>

  <!-- Cross supports -->
  <rect x="6" y="7" width="12" height="1" fill="#5D4037"/>
  <rect x="6" y="10" width="12" height="1" fill="#5D4037"/>

  <!-- A-frame legs -->
  <rect x="2" y="10" width="2" height="4" fill="#5D4037"/>
  <rect x="6" y="10" width="2" height="4" fill="#5D4037"/>
  <rect x="16" y="10" width="2" height="4" fill="#5D4037"/>
  <rect x="20" y="10" width="2" height="4" fill="#5D4037"/>
</svg>
