<svg xmlns="http://www.w3.org/2000/svg" viewBox="0 0 16 14" width="16" height="14" shape-rendering="crispEdges">
  <!-- Flower planter box -->

  <!-- Flowers -->
  <rect x="2" y="0" width="2" height="2" fill="#E91E63"/>
  <rect x="2" y="0" width="1" height="1" fill="#F48FB1"/>
  <rect x="6" y="1" width="2" height="2" fill="#FFEB3B"/>
  <rect x="6" y="1" width="1" height="1" fill="#FFF9C4"/>
  <rect x="10" y="0" width="2" height="2" fill="#AB47BC"/>
  <rect x="10" y="0" width="1" height="1" fill="#CE93D8"/>
  <rect x="13" y="1" width="2" height="2" fill="#E53935"/>
  <rect x="13" y="1" width="1" height="1" fill="#EF9A9A"/>

  <!-- Leaves/stems -->
  <rect x="2" y="2" width="12" height="4" fill="#66BB6A"/>
  <rect x="3" y="3" width="2" height="2" fill="#4CAF50"/>
  <rect x="7" y="3" width="2" height="2" fill="#81C784"/>
  <rect x="11" y="3" width="2" height="2" fill="#4CAF50"/>

  <!-- Planter box -->
  <rect x="0" y="6" width="16" height="6" fill="#8D6E63"/>
  <rect x="1" y="7" width="14" height="4" fill="#795548"/>
  <rect x="0" y="6" width="16" height="1" fill="#A1887F"/>

  <!-- Soil visible -->
  <rect x="2" y="5" width="12" height="2" fill="#5D4037"/>

  <!-- Base -->
  <rect x="0" y="12" width="16" height="2" fill="#6D4C41"/>
</svg>
