<svg xmlns="http://www.w3.org/2000/svg" viewBox="0 0 32 32" width="32" height="32" shape-rendering="crispEdges">
  <!-- Child Boy NPC - 32bit (smaller proportions) -->

  <!-- Shadow -->
  <rect x="12" y="30" width="8" height="2" fill="#3E2723"/>

  <!-- Sneakers -->
  <rect x="11" y="26" width="4" height="4" fill="#1976D2"/>
  <rect x="17" y="26" width="4" height="4" fill="#1976D2"/>
  <rect x="12" y="27" width="2" height="2" fill="#2196F3"/>
  <rect x="18" y="27" width="2" height="2" fill="#2196F3"/>
  <rect x="12" y="28" width="1" height="1" fill="#FAFAFA"/>
  <rect x="18" y="28" width="1" height="1" fill="#FAFAFA"/>

  <!-- Shorts -->
  <rect x="11" y="18" width="4" height="8" fill="#5D4037"/>
  <rect x="17" y="18" width="4" height="8" fill="#5D4037"/>
  <rect x="12" y="19" width="2" height="4" fill="#6D4C41"/>
  <rect x="18" y="19" width="2" height="4" fill="#6D4C41"/>

  <!-- T-shirt -->
  <rect x="10" y="10" width="12" height="10" fill="#4CAF50"/>
  <rect x="11" y="11" width="10" height="6" fill="#66BB6A"/>

  <!-- Shirt design (stripe) -->
  <rect x="10" y="14" width="12" height="2" fill="#FDD835"/>

  <!-- Arms -->
  <rect x="7" y="10" width="4" height="6" fill="#4CAF50"/>
  <rect x="21" y="10" width="4" height="6" fill="#4CAF50"/>

  <!-- Hands -->
  <rect x="7" y="14" width="4" height="3" fill="#FFCCBC"/>
  <rect x="21" y="14" width="4" height="3" fill="#FFCCBC"/>

  <!-- Neck -->
  <rect x="14" y="6" width="4" height="4" fill="#FFCCBC"/>

  <!-- Head (rounder, child proportions) -->
  <rect x="10" y="0" width="12" height="8" fill="#FFCCBC"/>
  <rect x="11" y="-1" width="10" height="2" fill="#FFAB91"/>
  <rect x="11" y="7" width="10" height="2" fill="#FFAB91"/>

  <!-- Hair (messy) -->
  <rect x="9" y="-2" width="14" height="5" fill="#5D4037"/>
  <rect x="8" y="0" width="2" height="3" fill="#6D4C41"/>
  <rect x="22" y="0" width="2" height="3" fill="#6D4C41"/>
  <rect x="12" y="-3" width="2" height="2" fill="#6D4C41"/>
  <rect x="18" y="-3" width="2" height="2" fill="#6D4C41"/>

  <!-- Face (big eyes) -->
  <rect x="12" y="2" width="3" height="3" fill="#5D4037"/>
  <rect x="17" y="2" width="3" height="3" fill="#5D4037"/>
  <rect x="13" y="3" width="1" height="1" fill="#FAFAFA"/>
  <rect x="18" y="3" width="1" height="1" fill="#FAFAFA"/>
  <rect x="15" y="6" width="2" height="1" fill="#FFAB91"/>

  <!-- Freckles -->
  <rect x="11" y="4" width="1" height="1" fill="#D7CCC8"/>
  <rect x="20" y="4" width="1" height="1" fill="#D7CCC8"/>
</svg>
