<svg xmlns="http://www.w3.org/2000/svg" viewBox="0 0 32 32" width="32" height="32" shape-rendering="crispEdges">
  <!-- Farmer Male NPC - 32bit -->

  <!-- Shadow -->
  <rect x="10" y="30" width="12" height="2" fill="#3E2723"/>

  <!-- Boots -->
  <rect x="10" y="26" width="4" height="4" fill="#5D4037"/>
  <rect x="18" y="26" width="4" height="4" fill="#5D4037"/>
  <rect x="11" y="27" width="2" height="2" fill="#6D4C41"/>
  <rect x="19" y="27" width="2" height="2" fill="#6D4C41"/>

  <!-- Overalls (legs) -->
  <rect x="10" y="18" width="5" height="8" fill="#1565C0"/>
  <rect x="17" y="18" width="5" height="8" fill="#1565C0"/>
  <rect x="11" y="19" width="3" height="4" fill="#1976D2"/>
  <rect x="18" y="19" width="3" height="4" fill="#1976D2"/>

  <!-- Overalls (torso) -->
  <rect x="9" y="12" width="14" height="8" fill="#1565C0"/>
  <rect x="11" y="13" width="10" height="5" fill="#1976D2"/>

  <!-- Shirt underneath -->
  <rect x="10" y="14" width="12" height="4" fill="#E53935"/>
  <rect x="12" y="15" width="8" height="2" fill="#EF5350"/>

  <!-- Straps -->
  <rect x="11" y="12" width="2" height="6" fill="#0D47A1"/>
  <rect x="19" y="12" width="2" height="6" fill="#0D47A1"/>

  <!-- Arms -->
  <rect x="6" y="12" width="4" height="8" fill="#FFCCBC"/>
  <rect x="22" y="12" width="4" height="8" fill="#FFCCBC"/>
  <rect x="7" y="13" width="2" height="5" fill="#FFAB91"/>

  <!-- Hands -->
  <rect x="6" y="18" width="4" height="3" fill="#FFCCBC"/>
  <rect x="22" y="18" width="4" height="3" fill="#FFCCBC"/>

  <!-- Neck -->
  <rect x="14" y="8" width="4" height="4" fill="#FFCCBC"/>

  <!-- Head -->
  <rect x="10" y="2" width="12" height="8" fill="#FFCCBC"/>
  <rect x="11" y="1" width="10" height="2" fill="#FFAB91"/>
  <rect x="11" y="9" width="10" height="2" fill="#FFAB91"/>

  <!-- Hair (brown) -->
  <rect x="10" y="0" width="12" height="4" fill="#5D4037"/>
  <rect x="9" y="2" width="2" height="3" fill="#6D4C41"/>
  <rect x="21" y="2" width="2" height="3" fill="#6D4C41"/>

  <!-- Straw hat -->
  <rect x="6" y="0" width="20" height="3" fill="#FDD835"/>
  <rect x="8" y="-2" width="16" height="3" fill="#FFEB3B"/>
  <rect x="10" y="-2" width="12" height="1" fill="#FFF59D"/>

  <!-- Face -->
  <rect x="12" y="4" width="2" height="2" fill="#5D4037"/>
  <rect x="18" y="4" width="2" height="2" fill="#5D4037"/>
  <rect x="14" y="7" width="4" height="1" fill="#D7CCC8"/>
</svg>
