<svg xmlns="http://www.w3.org/2000/svg" viewBox="0 0 32 32" width="32" height="32" shape-rendering="crispEdges">
  <!-- Guard NPC - 32bit -->

  <!-- Shadow -->
  <rect x="8" y="30" width="16" height="2" fill="#3E2723"/>

  <!-- Boots -->
  <rect x="9" y="26" width="5" height="4" fill="#3E2723"/>
  <rect x="18" y="26" width="5" height="4" fill="#3E2723"/>
  <rect x="10" y="27" width="3" height="2" fill="#4E342E"/>
  <rect x="19" y="27" width="3" height="2" fill="#4E342E"/>

  <!-- Pants -->
  <rect x="9" y="18" width="6" height="8" fill="#37474F"/>
  <rect x="17" y="18" width="6" height="8" fill="#37474F"/>
  <rect x="10" y="19" width="4" height="5" fill="#455A64"/>
  <rect x="18" y="19" width="4" height="5" fill="#455A64"/>

  <!-- Armor tunic -->
  <rect x="7" y="8" width="18" height="12" fill="#607D8B"/>
  <rect x="9" y="9" width="14" height="8" fill="#78909C"/>

  <!-- Belt -->
  <rect x="7" y="16" width="18" height="2" fill="#5D4037"/>
  <rect x="14" y="15" width="4" height="4" fill="#FFC107"/>

  <!-- Chest emblem -->
  <rect x="13" y="10" width="6" height="6" fill="#FFC107"/>
  <rect x="14" y="11" width="4" height="4" fill="#FF9800"/>
  <rect x="15" y="12" width="2" height="2" fill="#FFEB3B"/>

  <!-- Shoulder guards -->
  <rect x="4" y="8" width="4" height="4" fill="#546E7A"/>
  <rect x="24" y="8" width="4" height="4" fill="#546E7A"/>

  <!-- Arms -->
  <rect x="4" y="10" width="4" height="8" fill="#607D8B"/>
  <rect x="24" y="10" width="4" height="8" fill="#607D8B"/>

  <!-- Gauntlets -->
  <rect x="3" y="16" width="5" height="4" fill="#455A64"/>
  <rect x="24" y="16" width="5" height="4" fill="#455A64"/>

  <!-- Spear -->
  <rect x="28" y="0" width="2" height="28" fill="#8D6E63"/>
  <rect x="27" y="0" width="4" height="6" fill="#B0BEC5"/>
  <rect x="28" y="0" width="2" height="4" fill="#CFD8DC"/>

  <!-- Neck -->
  <rect x="14" y="4" width="4" height="4" fill="#FFCCBC"/>

  <!-- Head -->
  <rect x="10" y="-2" width="12" height="8" fill="#FFCCBC"/>
  <rect x="11" y="-3" width="10" height="2" fill="#FFAB91"/>

  <!-- Helmet -->
  <rect x="8" y="-4" width="16" height="6" fill="#455A64"/>
  <rect x="10" y="-5" width="12" height="2" fill="#546E7A"/>
  <rect x="9" y="-2" width="14" height="2" fill="#607D8B"/>

  <!-- Helmet crest -->
  <rect x="14" y="-8" width="4" height="6" fill="#D32F2F"/>
  <rect x="15" y="-9" width="2" height="2" fill="#E53935"/>

  <!-- Face visible through helmet -->
  <rect x="12" y="0" width="2" height="2" fill="#5D4037"/>
  <rect x="18" y="0" width="2" height="2" fill="#5D4037"/>
  <rect x="14" y="4" width="4" height="1" fill="#BCAAA4"/>
</svg>
