<svg xmlns="http://www.w3.org/2000/svg" viewBox="0 0 32 32" width="32" height="32" shape-rendering="crispEdges">
  <!-- Mayor NPC - 32bit -->

  <!-- Shadow -->
  <rect x="10" y="30" width="12" height="2" fill="#3E2723"/>

  <!-- Dress shoes -->
  <rect x="10" y="27" width="5" height="3" fill="#212121"/>
  <rect x="17" y="27" width="5" height="3" fill="#212121"/>
  <rect x="11" y="28" width="3" height="1" fill="#424242"/>
  <rect x="18" y="28" width="3" height="1" fill="#424242"/>

  <!-- Pants -->
  <rect x="10" y="18" width="5" height="9" fill="#37474F"/>
  <rect x="17" y="18" width="5" height="9" fill="#37474F"/>
  <rect x="11" y="19" width="3" height="5" fill="#455A64"/>
  <rect x="18" y="19" width="3" height="5" fill="#455A64"/>

  <!-- Suit jacket -->
  <rect x="7" y="8" width="18" height="12" fill="#1A237E"/>
  <rect x="9" y="9" width="14" height="8" fill="#283593"/>

  <!-- Vest -->
  <rect x="11" y="10" width="10" height="8" fill="#BF360C"/>
  <rect x="12" y="11" width="8" height="5" fill="#D84315"/>

  <!-- Shirt collar -->
  <rect x="13" y="8" width="6" height="3" fill="#FAFAFA"/>

  <!-- Tie -->
  <rect x="15" y="10" width="2" height="8" fill="#FFC107"/>

  <!-- Lapels -->
  <rect x="9" y="8" width="3" height="8" fill="#1A237E"/>
  <rect x="20" y="8" width="3" height="8" fill="#1A237E"/>

  <!-- Arms -->
  <rect x="4" y="8" width="4" height="10" fill="#1A237E"/>
  <rect x="24" y="8" width="4" height="10" fill="#1A237E"/>
  <rect x="5" y="9" width="2" height="7" fill="#283593"/>
  <rect x="25" y="9" width="2" height="7" fill="#283593"/>

  <!-- Hands -->
  <rect x="4" y="16" width="4" height="3" fill="#FFCCBC"/>
  <rect x="24" y="16" width="4" height="3" fill="#FFCCBC"/>

  <!-- Neck -->
  <rect x="14" y="4" width="4" height="4" fill="#FFCCBC"/>

  <!-- Head -->
  <rect x="10" y="-2" width="12" height="8" fill="#FFCCBC"/>
  <rect x="11" y="-3" width="10" height="2" fill="#FFAB91"/>

  <!-- Hair (distinguished gray) -->
  <rect x="9" y="-3" width="14" height="4" fill="#9E9E9E"/>
  <rect x="8" y="-1" width="2" height="3" fill="#BDBDBD"/>
  <rect x="22" y="-1" width="2" height="3" fill="#BDBDBD"/>

  <!-- Face -->
  <rect x="12" y="0" width="2" height="2" fill="#5D4037"/>
  <rect x="18" y="0" width="2" height="2" fill="#5D4037"/>
  <rect x="14" y="4" width="4" height="1" fill="#FFAB91"/>

  <!-- Mustache -->
  <rect x="13" y="3" width="6" height="2" fill="#757575"/>

  <!-- Mayor sash -->
  <rect x="8" y="10" width="3" height="8" fill="#D32F2F"/>
  <rect x="21" y="10" width="3" height="8" fill="#D32F2F"/>
</svg>
