<svg xmlns="http://www.w3.org/2000/svg" viewBox="0 0 32 32" width="32" height="32" shape-rendering="crispEdges">
  <!-- Shopkeeper Female NPC - 32bit -->

  <!-- Shadow -->
  <rect x="10" y="30" width="12" height="2" fill="#3E2723"/>

  <!-- Shoes -->
  <rect x="11" y="27" width="4" height="3" fill="#6D4C41"/>
  <rect x="17" y="27" width="4" height="3" fill="#6D4C41"/>

  <!-- Skirt -->
  <rect x="8" y="18" width="16" height="9" fill="#7B1FA2"/>
  <rect x="10" y="19" width="12" height="5" fill="#9C27B0"/>

  <!-- Blouse -->
  <rect x="9" y="10" width="14" height="10" fill="#F8BBD9"/>
  <rect x="11" y="11" width="10" height="6" fill="#FCE4EC"/>

  <!-- Apron -->
  <rect x="11" y="14" width="10" height="8" fill="#FFFDE7"/>
  <rect x="13" y="18" width="6" height="3" fill="#FFF9C4"/>

  <!-- Arms -->
  <rect x="6" y="10" width="4" height="6" fill="#F8BBD9"/>
  <rect x="22" y="10" width="4" height="6" fill="#F8BBD9"/>

  <!-- Hands -->
  <rect x="6" y="15" width="4" height="3" fill="#FFCCBC"/>
  <rect x="22" y="15" width="4" height="3" fill="#FFCCBC"/>

  <!-- Neck -->
  <rect x="14" y="6" width="4" height="4" fill="#FFCCBC"/>

  <!-- Head -->
  <rect x="10" y="0" width="12" height="8" fill="#FFCCBC"/>
  <rect x="11" y="-1" width="10" height="2" fill="#FFAB91"/>

  <!-- Hair (blonde, styled) -->
  <rect x="9" y="-2" width="14" height="5" fill="#FDD835"/>
  <rect x="8" y="0" width="2" height="6" fill="#FFEB3B"/>
  <rect x="22" y="0" width="2" height="6" fill="#FFEB3B"/>
  <rect x="8" y="4" width="3" height="4" fill="#FDD835"/>
  <rect x="21" y="4" width="3" height="4" fill="#FDD835"/>

  <!-- Hair accessories -->
  <rect x="20" y="0" width="2" height="2" fill="#E91E63"/>

  <!-- Face -->
  <rect x="12" y="2" width="2" height="2" fill="#5D4037"/>
  <rect x="18" y="2" width="2" height="2" fill="#5D4037"/>
  <rect x="15" y="5" width="2" height="1" fill="#F48FB1"/>
  <rect x="13" y="3" width="1" height="1" fill="#FFAB91"/>
  <rect x="18" y="3" width="1" height="1" fill="#FFAB91"/>

  <!-- Earrings -->
  <rect x="9" y="3" width="1" height="2" fill="#FFC107"/>
  <rect x="22" y="3" width="1" height="2" fill="#FFC107"/>
</svg>
