<svg xmlns="http://www.w3.org/2000/svg" viewBox="0 0 16 16" width="16" height="16" shape-rendering="crispEdges">
  <!-- Glitch Entity - Digital corruption fragment -->

  <!-- Core body (fragmented) -->
  <rect x="5" y="4" width="6" height="8" fill="#9C27B0"/>
  <rect x="6" y="3" width="4" height="1" fill="#7B1FA2"/>
  <rect x="6" y="12" width="4" height="1" fill="#7B1FA2"/>

  <!-- Glitch artifacts (displaced pixels) -->
  <rect x="3" y="5" width="2" height="2" fill="#FF1D6C"/>
  <rect x="11" y="7" width="2" height="3" fill="#2979FF"/>
  <rect x="4" y="10" width="1" height="2" fill="#FF1D6C"/>
  <rect x="12" y="4" width="1" height="2" fill="#2979FF"/>

  <!-- Face area -->
  <rect x="6" y="5" width="4" height="4" fill="#6A1B9A"/>

  <!-- Eyes (flickering) -->
  <rect x="6" y="6" width="2" height="2" fill="#FFFFFF"/>
  <rect x="6" y="6" width="1" height="1" fill="#FF1D6C"/>
  <rect x="9" y="6" width="2" height="2" fill="#FFFFFF"/>
  <rect x="10" y="6" width="1" height="1" fill="#2979FF"/>

  <!-- Static/noise pattern -->
  <rect x="7" y="9" width="1" height="1" fill="#E1BEE7"/>
  <rect x="9" y="10" width="1" height="1" fill="#CE93D8"/>
  <rect x="6" y="11" width="1" height="1" fill="#BA68C8"/>

  <!-- Corruption trails -->
  <rect x="2" y="8" width="1" height="1" fill="#9C27B0"/>
  <rect x="1" y="9" width="1" height="1" fill="#7B1FA2"/>
  <rect x="13" y="6" width="1" height="1" fill="#9C27B0"/>
  <rect x="14" y="5" width="1" height="1" fill="#7B1FA2"/>

  <!-- Digital scanlines -->
  <rect x="5" y="4" width="6" height="1" fill="#AB47BC" opacity="0.5"/>
  <rect x="5" y="8" width="6" height="1" fill="#AB47BC" opacity="0.5"/>
</svg>
