<svg xmlns="http://www.w3.org/2000/svg" viewBox="0 0 16 16" width="16" height="16" shape-rendering="crispEdges">
  <!-- Pixel Swarm - Chaotic cluster of corrupted data -->

  <!-- Swarm cluster (scattered pixels) -->
  <!-- Core cluster -->
  <rect x="6" y="6" width="2" height="2" fill="#9C27B0"/>
  <rect x="8" y="7" width="2" height="2" fill="#7B1FA2"/>
  <rect x="5" y="8" width="2" height="2" fill="#6A1B9A"/>
  <rect x="7" y="5" width="2" height="1" fill="#AB47BC"/>
  <rect x="9" y="9" width="1" height="2" fill="#4A148C"/>

  <!-- Outer swarm particles -->
  <rect x="3" y="4" width="1" height="1" fill="#9C27B0"/>
  <rect x="4" y="5" width="1" height="1" fill="#7B1FA2"/>
  <rect x="2" y="7" width="1" height="1" fill="#6A1B9A"/>
  <rect x="3" y="9" width="1" height="1" fill="#9C27B0"/>
  <rect x="4" y="11" width="1" height="1" fill="#7B1FA2"/>

  <rect x="12" y="5" width="1" height="1" fill="#9C27B0"/>
  <rect x="11" y="4" width="1" height="1" fill="#7B1FA2"/>
  <rect x="13" y="7" width="1" height="1" fill="#6A1B9A"/>
  <rect x="12" y="10" width="1" height="1" fill="#9C27B0"/>
  <rect x="11" y="11" width="1" height="1" fill="#7B1FA2"/>

  <!-- Top scatter -->
  <rect x="5" y="2" width="1" height="1" fill="#AB47BC"/>
  <rect x="8" y="1" width="1" height="1" fill="#9C27B0"/>
  <rect x="10" y="3" width="1" height="1" fill="#7B1FA2"/>
  <rect x="6" y="3" width="1" height="1" fill="#BA68C8"/>

  <!-- Bottom scatter -->
  <rect x="5" y="13" width="1" height="1" fill="#6A1B9A"/>
  <rect x="8" y="14" width="1" height="1" fill="#4A148C"/>
  <rect x="10" y="12" width="1" height="1" fill="#7B1FA2"/>
  <rect x="7" y="12" width="1" height="1" fill="#9C27B0"/>

  <!-- Glitch color artifacts -->
  <rect x="1" y="6" width="1" height="1" fill="#FF1D6C"/>
  <rect x="14" y="8" width="1" height="1" fill="#FF1D6C"/>
  <rect x="4" y="3" width="1" height="1" fill="#2979FF"/>
  <rect x="11" y="13" width="1" height="1" fill="#2979FF"/>

  <!-- Bright core pixels -->
  <rect x="7" y="7" width="1" height="1" fill="#E1BEE7"/>
  <rect x="8" y="8" width="1" height="1" fill="#CE93D8"/>

  <!-- Edge particles -->
  <rect x="0" y="9" width="1" height="1" fill="#311B92"/>
  <rect x="15" y="6" width="1" height="1" fill="#311B92"/>
  <rect x="7" y="0" width="1" height="1" fill="#4A148C"/>
  <rect x="9" y="15" width="1" height="1" fill="#4A148C"/>

  <!-- Motion trail particles -->
  <rect x="2" y="5" width="1" height="1" fill="#4A148C"/>
  <rect x="13" y="9" width="1" height="1" fill="#4A148C"/>
  <rect x="3" y="12" width="1" height="1" fill="#311B92"/>
  <rect x="12" y="2" width="1" height="1" fill="#311B92"/>
</svg>
