<svg xmlns="http://www.w3.org/2000/svg" viewBox="0 0 32 32" width="32" height="32" shape-rendering="crispEdges">
  <!-- ARIA - The Interface (Electric Blue) -->
  <!-- Sleek, modern appearance with holographic elements -->

  <!-- Hair (sleek bob, dark with blue highlights) -->
  <rect x="10" y="3" width="12" height="1" fill="#0D47A1"/>
  <rect x="9" y="4" width="14" height="1" fill="#1565C0"/>
  <rect x="8" y="5" width="16" height="2" fill="#1976D2"/>
  <rect x="7" y="7" width="18" height="2" fill="#1E88E5"/>
  <rect x="6" y="9" width="4" height="3" fill="#2196F3"/>
  <rect x="22" y="9" width="4" height="3" fill="#2196F3"/>

  <!-- Face -->
  <rect x="10" y="9" width="12" height="1" fill="#fce4d6"/>
  <rect x="9" y="10" width="14" height="5" fill="#fce4d6"/>

  <!-- Eyes (bright, digital look) -->
  <rect x="11" y="11" width="2" height="2" fill="#2979FF"/>
  <rect x="19" y="11" width="2" height="2" fill="#2979FF"/>
  <rect x="11" y="11" width="1" height="1" fill="#82B1FF"/>
  <rect x="19" y="11" width="1" height="1" fill="#82B1FF"/>
  <rect x="12" y="12" width="1" height="1" fill="#0D47A1"/>
  <rect x="20" y="12" width="1" height="1" fill="#0D47A1"/>

  <!-- Sleek eyebrows -->
  <rect x="11" y="10" width="2" height="1" fill="#1565C0"/>
  <rect x="19" y="10" width="2" height="1" fill="#1565C0"/>

  <!-- Smile -->
  <rect x="14" y="13" width="4" height="1" fill="#e0b8a8"/>

  <!-- Neck with tech collar -->
  <rect x="12" y="15" width="8" height="1" fill="#fce4d6"/>
  <rect x="11" y="15" width="1" height="1" fill="#2979FF"/>
  <rect x="20" y="15" width="1" height="1" fill="#2979FF"/>

  <!-- Tech jacket (Blue) -->
  <rect x="8" y="16" width="16" height="1" fill="#1565C0"/>
  <rect x="7" y="17" width="18" height="6" fill="#2979FF"/>
  <rect x="6" y="18" width="2" height="4" fill="#2979FF"/>
  <rect x="24" y="18" width="2" height="4" fill="#2979FF"/>

  <!-- Jacket tech lines -->
  <rect x="9" y="17" width="1" height="6" fill="#82B1FF"/>
  <rect x="22" y="17" width="1" height="6" fill="#82B1FF"/>
  <rect x="14" y="17" width="4" height="1" fill="#E3F2FD"/>
  <rect x="15" y="18" width="2" height="1" fill="#E3F2FD"/>
  <rect x="12" y="20" width="8" height="1" fill="#1565C0"/>

  <!-- Arms -->
  <rect x="5" y="18" width="1" height="5" fill="#fce4d6"/>
  <rect x="26" y="18" width="1" height="5" fill="#fce4d6"/>

  <!-- Hands with tech bracelets -->
  <rect x="4" y="23" width="3" height="2" fill="#fce4d6"/>
  <rect x="25" y="23" width="3" height="2" fill="#fce4d6"/>
  <rect x="4" y="22" width="3" height="1" fill="#2979FF"/>
  <rect x="25" y="22" width="3" height="1" fill="#2979FF"/>

  <!-- Sleek pants -->
  <rect x="9" y="23" width="14" height="4" fill="#0D47A1"/>
  <rect x="15" y="25" width="2" height="2" fill="#1565C0"/>

  <!-- Boots (modern) -->
  <rect x="9" y="27" width="6" height="3" fill="#1565C0"/>
  <rect x="17" y="27" width="6" height="3" fill="#1565C0"/>
  <rect x="9" y="29" width="6" height="1" fill="#2979FF"/>
  <rect x="17" y="29" width="6" height="1" fill="#2979FF"/>
</svg>