<svg xmlns="http://www.w3.org/2000/svg" viewBox="0 0 32 32" width="32" height="32" shape-rendering="crispEdges">
  <!-- SHELLFISH - The Hacker (Red) -->
  <!-- Edgy, mysterious appearance with hood and tech gear -->

  <!-- Hood -->
  <rect x="10" y="2" width="12" height="1" fill="#b71c1c"/>
  <rect x="8" y="3" width="16" height="1" fill="#c62828"/>
  <rect x="6" y="4" width="20" height="2" fill="#d32f2f"/>
  <rect x="5" y="6" width="22" height="3" fill="#e53935"/>
  <rect x="5" y="9" width="6" height="3" fill="#d32f2f"/>
  <rect x="21" y="9" width="6" height="3" fill="#d32f2f"/>

  <!-- Face (in shadow) -->
  <rect x="10" y="9" width="12" height="1" fill="#c9b8a8"/>
  <rect x="9" y="10" width="14" height="5" fill="#c9b8a8"/>
  <rect x="9" y="9" width="1" height="1" fill="#8b7355"/>
  <rect x="22" y="9" width="1" height="1" fill="#8b7355"/>

  <!-- Eyes (intense, glowing) -->
  <rect x="11" y="11" width="2" height="2" fill="#F44336"/>
  <rect x="19" y="11" width="2" height="2" fill="#F44336"/>
  <rect x="11" y="11" width="1" height="1" fill="#FFCDD2"/>
  <rect x="19" y="11" width="1" height="1" fill="#FFCDD2"/>

  <!-- Smirk -->
  <rect x="14" y="13" width="5" height="1" fill="#a89080"/>
  <rect x="18" y="12" width="1" height="1" fill="#a89080"/>

  <!-- Neck/mask -->
  <rect x="11" y="15" width="10" height="1" fill="#1a1a1a"/>

  <!-- Hoodie body -->
  <rect x="7" y="16" width="18" height="1" fill="#c62828"/>
  <rect x="6" y="17" width="20" height="7" fill="#d32f2f"/>
  <rect x="5" y="18" width="2" height="5" fill="#d32f2f"/>
  <rect x="25" y="18" width="2" height="5" fill="#d32f2f"/>

  <!-- Hoodie details -->
  <rect x="14" y="17" width="4" height="1" fill="#b71c1c"/>
  <rect x="15" y="18" width="2" height="5" fill="#b71c1c"/>
  <rect x="8" y="19" width="2" height="1" fill="#F44336"/>
  <rect x="22" y="19" width="2" height="1" fill="#F44336"/>

  <!-- Pocket with device glow -->
  <rect x="10" y="20" width="4" height="3" fill="#b71c1c"/>
  <rect x="11" y="21" width="2" height="1" fill="#FF8A80"/>

  <!-- Arms (in sleeves) -->
  <rect x="4" y="18" width="1" height="5" fill="#d32f2f"/>
  <rect x="27" y="18" width="1" height="5" fill="#d32f2f"/>

  <!-- Hands (typing stance) -->
  <rect x="3" y="23" width="3" height="2" fill="#c9b8a8"/>
  <rect x="26" y="23" width="3" height="2" fill="#c9b8a8"/>

  <!-- Dark pants -->
  <rect x="9" y="24" width="14" height="4" fill="#1a1a1a"/>
  <rect x="15" y="26" width="2" height="2" fill="#0d0d0d"/>

  <!-- Sneakers (red accents) -->
  <rect x="8" y="28" width="7" height="2" fill="#2c2c2c"/>
  <rect x="17" y="28" width="7" height="2" fill="#2c2c2c"/>
  <rect x="8" y="28" width="2" height="1" fill="#F44336"/>
  <rect x="22" y="28" width="2" height="1" fill="#F44336"/>
  <rect x="8" y="30" width="7" height="1" fill="#F44336"/>
  <rect x="17" y="30" width="7" height="1" fill="#F44336"/>
</svg>