<svg xmlns="http://www.w3.org/2000/svg" viewBox="0 0 32 32" width="32" height="32" shape-rendering="crispEdges">
  <!-- ALICE - The Operator (Green) -->
  <!-- Practical, tactical appearance with utility gear -->

  <!-- Hair (short, practical, dark) -->
  <rect x="11" y="4" width="10" height="1" fill="#1b2631"/>
  <rect x="10" y="5" width="12" height="1" fill="#1b2631"/>
  <rect x="9" y="6" width="14" height="2" fill="#2c3e50"/>
  <rect x="9" y="8" width="3" height="2" fill="#2c3e50"/>
  <rect x="20" y="8" width="3" height="2" fill="#2c3e50"/>

  <!-- Headset -->
  <rect x="8" y="6" width="1" height="5" fill="#1a1a1a"/>
  <rect x="23" y="6" width="1" height="5" fill="#1a1a1a"/>
  <rect x="7" y="9" width="2" height="3" fill="#4CAF50"/>
  <rect x="23" y="9" width="2" height="3" fill="#4CAF50"/>

  <!-- Face -->
  <rect x="10" y="8" width="12" height="1" fill="#d4a574"/>
  <rect x="9" y="9" width="14" height="5" fill="#d4a574"/>

  <!-- Eyes (focused, alert) -->
  <rect x="11" y="10" width="2" height="2" fill="#2e7d32"/>
  <rect x="19" y="10" width="2" height="2" fill="#2e7d32"/>
  <rect x="11" y="10" width="1" height="1" fill="#ffffff"/>
  <rect x="19" y="10" width="1" height="1" fill="#ffffff"/>

  <!-- Determined expression -->
  <rect x="14" y="12" width="4" height="1" fill="#b8956b"/>

  <!-- Neck -->
  <rect x="13" y="14" width="6" height="1" fill="#d4a574"/>

  <!-- Tactical vest (Green) -->
  <rect x="8" y="15" width="16" height="1" fill="#2E7D32"/>
  <rect x="7" y="16" width="18" height="7" fill="#4CAF50"/>
  <rect x="6" y="17" width="2" height="5" fill="#388E3C"/>
  <rect x="24" y="17" width="2" height="5" fill="#388E3C"/>

  <!-- Vest pockets/details -->
  <rect x="9" y="17" width="4" height="3" fill="#2E7D32"/>
  <rect x="19" y="17" width="4" height="3" fill="#2E7D32"/>
  <rect x="10" y="18" width="2" height="1" fill="#1B5E20"/>
  <rect x="20" y="18" width="2" height="1" fill="#1B5E20"/>
  <rect x="14" y="17" width="4" height="1" fill="#81C784"/>
  <rect x="15" y="19" width="2" height="3" fill="#2E7D32"/>

  <!-- Arms -->
  <rect x="5" y="17" width="1" height="5" fill="#d4a574"/>
  <rect x="26" y="17" width="1" height="5" fill="#d4a574"/>

  <!-- Gloves -->
  <rect x="4" y="22" width="3" height="3" fill="#1a1a1a"/>
  <rect x="25" y="22" width="3" height="3" fill="#1a1a1a"/>

  <!-- Cargo pants -->
  <rect x="9" y="23" width="14" height="4" fill="#33691E"/>
  <rect x="15" y="25" width="2" height="2" fill="#1B5E20"/>
  <rect x="10" y="25" width="3" height="2" fill="#2E7D32"/>
  <rect x="19" y="25" width="3" height="2" fill="#2E7D32"/>

  <!-- Boots (tactical) -->
  <rect x="8" y="27" width="7" height="3" fill="#1a1a1a"/>
  <rect x="17" y="27" width="7" height="3" fill="#1a1a1a"/>
  <rect x="8" y="29" width="7" height="1" fill="#2c2c2c"/>
  <rect x="17" y="29" width="7" height="1" fill="#2c2c2c"/>
</svg>