<svg xmlns="http://www.w3.org/2000/svg" viewBox="0 0 32 28" width="32" height="28" shape-rendering="crispEdges">
  <!-- Medium two-story house -->

  <!-- Roof -->
  <rect x="2" y="4" width="28" height="2" fill="#795548"/>
  <rect x="4" y="2" width="24" height="2" fill="#8D6E63"/>
  <rect x="6" y="0" width="20" height="2" fill="#A1887F"/>

  <!-- Chimney -->
  <rect x="24" y="0" width="4" height="4" fill="#9E9E9E"/>
  <rect x="24" y="0" width="1" height="3" fill="#BDBDBD"/>

  <!-- Second floor -->
  <rect x="2" y="6" width="28" height="10" fill="#FFF3E0"/>

  <!-- Second floor windows -->
  <rect x="5" y="8" width="5" height="5" fill="#81D4FA"/>
  <rect x="7" y="8" width="1" height="5" fill="#29B6F6"/>
  <rect x="5" y="10" width="5" height="1" fill="#29B6F6"/>

  <rect x="13" y="8" width="5" height="5" fill="#81D4FA"/>
  <rect x="15" y="8" width="1" height="5" fill="#29B6F6"/>
  <rect x="13" y="10" width="5" height="1" fill="#29B6F6"/>

  <rect x="22" y="8" width="5" height="5" fill="#81D4FA"/>
  <rect x="24" y="8" width="1" height="5" fill="#29B6F6"/>
  <rect x="22" y="10" width="5" height="1" fill="#29B6F6"/>

  <!-- First floor -->
  <rect x="2" y="16" width="28" height="10" fill="#FFE0B2"/>

  <!-- Door -->
  <rect x="13" y="18" width="6" height="10" fill="#5D4037"/>
  <rect x="13" y="18" width="6" height="1" fill="#6D4C41"/>
  <rect x="13" y="18" width="1" height="10" fill="#6D4C41"/>
  <rect x="18" y="22" width="1" height="1" fill="#FDD835"/>

  <!-- First floor windows -->
  <rect x="4" y="19" width="5" height="5" fill="#81D4FA"/>
  <rect x="6" y="19" width="1" height="5" fill="#29B6F6"/>
  <rect x="4" y="21" width="5" height="1" fill="#29B6F6"/>

  <rect x="23" y="19" width="5" height="5" fill="#81D4FA"/>
  <rect x="25" y="19" width="1" height="5" fill="#29B6F6"/>
  <rect x="23" y="21" width="5" height="1" fill="#29B6F6"/>

  <!-- Foundation -->
  <rect x="0" y="26" width="32" height="2" fill="#616161"/>
</svg>
