<svg xmlns="http://www.w3.org/2000/svg" viewBox="0 0 32 28" width="32" height="28" shape-rendering="crispEdges">
  <!-- Library -->

  <!-- Roof -->
  <rect x="0" y="4" width="32" height="2" fill="#6D4C41"/>
  <rect x="2" y="2" width="28" height="2" fill="#795548"/>
  <rect x="4" y="0" width="24" height="2" fill="#8D6E63"/>

  <!-- Building -->
  <rect x="0" y="6" width="32" height="20" fill="#D7CCC8"/>

  <!-- Decorative frieze -->
  <rect x="0" y="6" width="32" height="2" fill="#BCAAA4"/>

  <!-- Arched windows (3) -->
  <rect x="2" y="10" width="6" height="8" fill="#81D4FA"/>
  <rect x="3" y="9" width="4" height="1" fill="#81D4FA"/>
  <rect x="5" y="10" width="1" height="8" fill="#4FC3F7"/>

  <rect x="13" y="10" width="6" height="8" fill="#81D4FA"/>
  <rect x="14" y="9" width="4" height="1" fill="#81D4FA"/>
  <rect x="16" y="10" width="1" height="8" fill="#4FC3F7"/>

  <rect x="24" y="10" width="6" height="8" fill="#81D4FA"/>
  <rect x="25" y="9" width="4" height="1" fill="#81D4FA"/>
  <rect x="27" y="10" width="1" height="8" fill="#4FC3F7"/>

  <!-- Grand door -->
  <rect x="12" y="20" width="8" height="8" fill="#5D4037"/>
  <rect x="12" y="20" width="8" height="1" fill="#4E342E"/>
  <rect x="16" y="20" width="1" height="8" fill="#4E342E"/>
  <rect x="13" y="24" width="1" height="1" fill="#FDD835"/>
  <rect x="18" y="24" width="1" height="1" fill="#FDD835"/>

  <!-- Book sign -->
  <rect x="2" y="20" width="6" height="4" fill="#8D6E63"/>
  <rect x="3" y="21" width="4" height="2" fill="#FFFFFF"/>
  <rect x="4" y="21" width="1" height="2" fill="#E0E0E0"/>

  <!-- Steps -->
  <rect x="10" y="26" width="12" height="2" fill="#9E9E9E"/>
</svg>
