<svg xmlns="http://www.w3.org/2000/svg" viewBox="0 0 32 28" width="32" height="28" shape-rendering="crispEdges">
  <!-- Bakery -->

  <!-- Roof -->
  <rect x="0" y="4" width="32" height="2" fill="#FFAB91"/>
  <rect x="2" y="2" width="28" height="2" fill="#FFCCBC"/>
  <rect x="4" y="0" width="24" height="2" fill="#FFE0B2"/>

  <!-- Pretzel sign -->
  <rect x="12" y="0" width="8" height="4" fill="#8D6E63"/>
  <rect x="14" y="1" width="4" height="2" fill="#D7A574"/>

  <!-- Building -->
  <rect x="0" y="6" width="32" height="20" fill="#FFF3E0"/>

  <!-- Pink awning -->
  <rect x="0" y="6" width="32" height="4" fill="#F48FB1"/>
  <rect x="0" y="8" width="4" height="2" fill="#EC407A"/>
  <rect x="8" y="8" width="4" height="2" fill="#EC407A"/>
  <rect x="16" y="8" width="4" height="2" fill="#EC407A"/>
  <rect x="24" y="8" width="4" height="2" fill="#EC407A"/>

  <!-- Display window with pastries -->
  <rect x="2" y="11" width="12" height="10" fill="#81D4FA"/>
  <rect x="2" y="11" width="12" height="1" fill="#E1F5FE"/>
  <!-- Bread in window -->
  <rect x="4" y="16" width="3" height="2" fill="#D4A574"/>
  <rect x="8" y="15" width="4" height="3" fill="#FFCC80"/>
  <rect x="10" y="17" width="2" height="2" fill="#8D6E63"/>

  <!-- Door -->
  <rect x="16" y="14" width="6" height="12" fill="#5D4037"/>
  <rect x="16" y="14" width="6" height="1" fill="#6D4C41"/>
  <rect x="17" y="16" width="4" height="6" fill="#81D4FA"/>
  <rect x="21" y="20" width="1" height="1" fill="#FDD835"/>

  <!-- Right window -->
  <rect x="24" y="14" width="6" height="7" fill="#81D4FA"/>
  <rect x="24" y="14" width="6" height="1" fill="#E1F5FE"/>
  <!-- Cupcake in window -->
  <rect x="26" y="17" width="2" height="2" fill="#F8BBD9"/>
  <rect x="26" y="19" width="2" height="1" fill="#FFAB91"/>

  <!-- Foundation -->
  <rect x="0" y="26" width="32" height="2" fill="#757575"/>
</svg>
