<svg xmlns="http://www.w3.org/2000/svg" viewBox="0 0 40 36" width="40" height="36" shape-rendering="crispEdges">
  <!-- Town Hall - Civic building -->

  <!-- Clock tower top -->
  <rect x="17" y="0" width="6" height="2" fill="#455A64"/>
  <rect x="16" y="2" width="8" height="4" fill="#546E7A"/>

  <!-- Clock -->
  <rect x="17" y="2" width="6" height="4" fill="#FFFFFF"/>
  <rect x="19" y="3" width="2" height="1" fill="#212121"/>
  <rect x="20" y="4" width="1" height="1" fill="#212121"/>

  <!-- Tower -->
  <rect x="14" y="6" width="12" height="10" fill="#ECEFF1"/>
  <rect x="16" y="8" width="8" height="6" fill="#81D4FA"/>
  <rect x="20" y="8" width="1" height="6" fill="#4FC3F7"/>

  <!-- Main roof -->
  <rect x="2" y="14" width="36" height="2" fill="#455A64"/>
  <rect x="4" y="12" width="32" height="2" fill="#546E7A"/>

  <!-- Main building -->
  <rect x="2" y="16" width="36" height="18" fill="#ECEFF1"/>

  <!-- Columns -->
  <rect x="4" y="16" width="3" height="16" fill="#CFD8DC"/>
  <rect x="4" y="16" width="1" height="16" fill="#FFFFFF"/>
  <rect x="12" y="16" width="3" height="16" fill="#CFD8DC"/>
  <rect x="12" y="16" width="1" height="16" fill="#FFFFFF"/>
  <rect x="25" y="16" width="3" height="16" fill="#CFD8DC"/>
  <rect x="25" y="16" width="1" height="16" fill="#FFFFFF"/>
  <rect x="33" y="16" width="3" height="16" fill="#CFD8DC"/>
  <rect x="33" y="16" width="1" height="16" fill="#FFFFFF"/>

  <!-- Grand entrance -->
  <rect x="16" y="22" width="8" height="12" fill="#5D4037"/>
  <rect x="16" y="22" width="8" height="1" fill="#4E342E"/>
  <rect x="20" y="22" width="1" height="12" fill="#4E342E"/>
  <rect x="17" y="27" width="1" height="1" fill="#FDD835"/>
  <rect x="22" y="27" width="1" height="1" fill="#FDD835"/>

  <!-- Steps -->
  <rect x="14" y="32" width="12" height="2" fill="#90A4AE"/>
  <rect x="12" y="34" width="16" height="2" fill="#78909C"/>

  <!-- Side windows -->
  <rect x="7" y="20" width="4" height="6" fill="#81D4FA"/>
  <rect x="9" y="20" width="1" height="6" fill="#4FC3F7"/>
  <rect x="29" y="20" width="4" height="6" fill="#81D4FA"/>
  <rect x="31" y="20" width="1" height="6" fill="#4FC3F7"/>
</svg>
