<svg xmlns="http://www.w3.org/2000/svg" viewBox="0 0 16 16" width="16" height="16" shape-rendering="crispEdges">
  <!-- Beach sand tile -->

  <!-- Sand base -->
  <rect x="0" y="0" width="16" height="16" fill="#FFE082"/>

  <!-- Sand texture -->
  <rect x="2" y="1" width="3" height="1" fill="#FFCA28"/>
  <rect x="10" y="2" width="4" height="1" fill="#FFF59D"/>
  <rect x="1" y="5" width="2" height="1" fill="#FFD54F"/>
  <rect x="7" y="4" width="3" height="1" fill="#FFCA28"/>
  <rect x="12" y="6" width="3" height="1" fill="#FFF59D"/>
  <rect x="3" y="8" width="4" height="1" fill="#FFD54F"/>
  <rect x="9" y="9" width="2" height="1" fill="#FFCA28"/>
  <rect x="1" y="11" width="3" height="1" fill="#FFF59D"/>
  <rect x="6" y="12" width="4" height="1" fill="#FFD54F"/>
  <rect x="12" y="14" width="2" height="1" fill="#FFCA28"/>

  <!-- Shells -->
  <rect x="5" y="3" width="1" height="1" fill="#FFCCBC"/>
  <rect x="13" y="8" width="1" height="1" fill="#F8BBD9"/>
  <rect x="2" y="13" width="1" height="1" fill="#FFCCBC"/>

  <!-- Pebbles -->
  <rect x="8" y="7" width="1" height="1" fill="#BDBDBD"/>
  <rect x="4" y="10" width="1" height="1" fill="#9E9E9E"/>
</svg>
