<svg xmlns="http://www.w3.org/2000/svg" viewBox="0 0 24 18" width="24" height="18" shape-rendering="crispEdges">
  <!-- Double bed -->

  <!-- Headboard -->
  <rect x="0" y="0" width="24" height="6" fill="#8D6E63"/>
  <rect x="1" y="1" width="22" height="4" fill="#795548"/>
  <rect x="2" y="2" width="20" height="2" fill="#6D4C41"/>

  <!-- Mattress -->
  <rect x="1" y="6" width="22" height="8" fill="#FFFFFF"/>
  <rect x="2" y="7" width="20" height="6" fill="#F5F5F5"/>

  <!-- Pillows -->
  <rect x="2" y="6" width="8" height="3" fill="#ECEFF1"/>
  <rect x="3" y="7" width="6" height="1" fill="#FFFFFF"/>
  <rect x="14" y="6" width="8" height="3" fill="#ECEFF1"/>
  <rect x="15" y="7" width="6" height="1" fill="#FFFFFF"/>

  <!-- Blanket -->
  <rect x="2" y="9" width="20" height="5" fill="#7986CB"/>
  <rect x="3" y="10" width="18" height="3" fill="#9FA8DA"/>
  <rect x="4" y="11" width="16" height="1" fill="#C5CAE9"/>

  <!-- Footboard -->
  <rect x="0" y="14" width="24" height="4" fill="#8D6E63"/>
  <rect x="1" y="15" width="22" height="2" fill="#6D4C41"/>

  <!-- Posts -->
  <rect x="0" y="0" width="2" height="18" fill="#5D4037"/>
  <rect x="22" y="0" width="2" height="18" fill="#5D4037"/>
</svg>
