<svg xmlns="http://www.w3.org/2000/svg" viewBox="0 0 18 24" width="18" height="24" shape-rendering="crispEdges">
  <!-- Bookshelf with books -->

  <!-- Frame -->
  <rect x="0" y="0" width="18" height="24" fill="#8D6E63"/>
  <rect x="1" y="1" width="16" height="22" fill="#795548"/>

  <!-- Shelf 1 -->
  <rect x="1" y="6" width="16" height="1" fill="#6D4C41"/>
  <!-- Books -->
  <rect x="2" y="1" width="2" height="5" fill="#C62828"/>
  <rect x="4" y="2" width="3" height="4" fill="#1565C0"/>
  <rect x="7" y="1" width="2" height="5" fill="#388E3C"/>
  <rect x="10" y="2" width="2" height="4" fill="#7B1FA2"/>
  <rect x="12" y="1" width="3" height="5" fill="#F57C00"/>

  <!-- Shelf 2 -->
  <rect x="1" y="12" width="16" height="1" fill="#6D4C41"/>
  <!-- Books -->
  <rect x="2" y="7" width="3" height="5" fill="#0097A7"/>
  <rect x="5" y="8" width="2" height="4" fill="#D32F2F"/>
  <rect x="8" y="7" width="2" height="5" fill="#FBC02D"/>
  <rect x="10" y="8" width="3" height="4" fill="#512DA8"/>
  <rect x="14" y="7" width="2" height="5" fill="#455A64"/>

  <!-- Shelf 3 -->
  <rect x="1" y="18" width="16" height="1" fill="#6D4C41"/>
  <!-- Books -->
  <rect x="2" y="13" width="2" height="5" fill="#E91E63"/>
  <rect x="5" y="14" width="3" height="4" fill="#2196F3"/>
  <rect x="9" y="13" width="2" height="5" fill="#4CAF50"/>
  <rect x="12" y="14" width="3" height="4" fill="#FF5722"/>

  <!-- Bottom shelf - decorations -->
  <rect x="3" y="19" width="3" height="3" fill="#FFEB3B"/>
  <rect x="8" y="20" width="4" height="2" fill="#9E9E9E"/>
  <rect x="13" y="19" width="2" height="3" fill="#4CAF50"/>
</svg>
