<svg xmlns="http://www.w3.org/2000/svg" viewBox="0 0 16 16" width="16" height="16" shape-rendering="crispEdges">
  <!-- Gem Collectible - Violet -->

  <!-- Top facet -->
  <rect x="6" y="2" width="4" height="1" fill="#E1BEE7"/>
  <rect x="5" y="3" width="6" height="1" fill="#CE93D8"/>
  <rect x="4" y="4" width="8" height="1" fill="#BA68C8"/>

  <!-- Upper body -->
  <rect x="3" y="5" width="10" height="2" fill="#9C27B0"/>
  <rect x="4" y="5" width="3" height="2" fill="#AB47BC"/>
  <rect x="10" y="5" width="2" height="2" fill="#7B1FA2"/>

  <!-- Middle -->
  <rect x="3" y="7" width="10" height="2" fill="#8E24AA"/>
  <rect x="4" y="7" width="2" height="2" fill="#9C27B0"/>
  <rect x="10" y="7" width="2" height="2" fill="#6A1B9A"/>

  <!-- Lower body -->
  <rect x="4" y="9" width="8" height="2" fill="#7B1FA2"/>
  <rect x="5" y="9" width="2" height="2" fill="#8E24AA"/>
  <rect x="9" y="9" width="2" height="2" fill="#6A1B9A"/>

  <!-- Bottom point -->
  <rect x="5" y="11" width="6" height="1" fill="#6A1B9A"/>
  <rect x="6" y="12" width="4" height="1" fill="#4A148C"/>
  <rect x="7" y="13" width="2" height="1" fill="#4A148C"/>

  <!-- Shine -->
  <rect x="5" y="4" width="1" height="1" fill="#F3E5F5"/>
  <rect x="4" y="5" width="1" height="1" fill="#E1BEE7"/>
  <rect x="5" y="5" width="1" height="1" fill="#FFFFFF"/>
  <rect x="6" y="6" width="1" height="1" fill="#F3E5F5"/>

  <!-- Outline -->
  <rect x="6" y="1" width="4" height="1" fill="#4A148C"/>
  <rect x="5" y="2" width="1" height="1" fill="#4A148C"/>
  <rect x="10" y="2" width="1" height="1" fill="#4A148C"/>
  <rect x="4" y="3" width="1" height="1" fill="#4A148C"/>
  <rect x="11" y="3" width="1" height="1" fill="#4A148C"/>
  <rect x="3" y="4" width="1" height="1" fill="#4A148C"/>
  <rect x="12" y="4" width="1" height="1" fill="#4A148C"/>
  <rect x="2" y="5" width="1" height="4" fill="#4A148C"/>
  <rect x="13" y="5" width="1" height="4" fill="#4A148C"/>
  <rect x="3" y="9" width="1" height="2" fill="#4A148C"/>
  <rect x="12" y="9" width="1" height="2" fill="#4A148C"/>
  <rect x="4" y="11" width="1" height="1" fill="#4A148C"/>
  <rect x="11" y="11" width="1" height="1" fill="#4A148C"/>
  <rect x="5" y="12" width="1" height="1" fill="#4A148C"/>
  <rect x="10" y="12" width="1" height="1" fill="#4A148C"/>
  <rect x="6" y="13" width="1" height="1" fill="#4A148C"/>
  <rect x="9" y="13" width="1" height="1" fill="#4A148C"/>
  <rect x="7" y="14" width="2" height="1" fill="#4A148C"/>
</svg>