<svg xmlns="http://www.w3.org/2000/svg" viewBox="0 0 16 16" width="16" height="16" shape-rendering="crispEdges">
  <!-- Coin Collectible (Amber/Gold) -->

  <!-- Outer ring shadow -->
  <rect x="5" y="13" width="6" height="1" fill="#8B6914"/>
  <rect x="4" y="12" width="1" height="1" fill="#8B6914"/>
  <rect x="11" y="12" width="1" height="1" fill="#8B6914"/>

  <!-- Outline -->
  <rect x="5" y="1" width="6" height="1" fill="#B87D1A"/>
  <rect x="3" y="2" width="2" height="1" fill="#B87D1A"/>
  <rect x="11" y="2" width="2" height="1" fill="#B87D1A"/>
  <rect x="2" y="3" width="1" height="2" fill="#B87D1A"/>
  <rect x="13" y="3" width="1" height="2" fill="#B87D1A"/>
  <rect x="1" y="5" width="1" height="6" fill="#B87D1A"/>
  <rect x="14" y="5" width="1" height="6" fill="#B87D1A"/>
  <rect x="2" y="11" width="1" height="2" fill="#B87D1A"/>
  <rect x="13" y="11" width="1" height="2" fill="#B87D1A"/>
  <rect x="3" y="13" width="2" height="1" fill="#B87D1A"/>
  <rect x="11" y="13" width="2" height="1" fill="#B87D1A"/>
  <rect x="5" y="14" width="6" height="1" fill="#B87D1A"/>

  <!-- Coin face -->
  <rect x="3" y="3" width="10" height="10" fill="#F5A623"/>
  <rect x="5" y="2" width="6" height="1" fill="#F5A623"/>
  <rect x="2" y="5" width="1" height="6" fill="#F5A623"/>
  <rect x="5" y="13" width="6" height="1" fill="#F5A623"/>
  <rect x="13" y="5" width="1" height="6" fill="#F5A623"/>

  <!-- Highlight -->
  <rect x="4" y="3" width="4" height="1" fill="#FFDC96"/>
  <rect x="3" y="4" width="3" height="2" fill="#FFCA62"/>
  <rect x="3" y="6" width="2" height="2" fill="#FFDC96"/>

  <!-- BlackRoad "B" symbol -->
  <rect x="6" y="4" width="1" height="8" fill="#D4900F"/>
  <rect x="7" y="4" width="3" height="1" fill="#D4900F"/>
  <rect x="7" y="7" width="3" height="1" fill="#D4900F"/>
  <rect x="7" y="11" width="3" height="1" fill="#D4900F"/>
  <rect x="10" y="5" width="1" height="2" fill="#D4900F"/>
  <rect x="10" y="8" width="1" height="3" fill="#D4900F"/>

  <!-- Symbol shadow -->
  <rect x="7" y="5" width="3" height="1" fill="#B87D1A"/>
  <rect x="7" y="8" width="3" height="1" fill="#B87D1A"/>

  <!-- Edge shadow -->
  <rect x="11" y="4" width="2" height="8" fill="#D4900F"/>
  <rect x="4" y="11" width="7" height="2" fill="#D4900F"/>
</svg>