<svg xmlns="http://www.w3.org/2000/svg" viewBox="0 0 16 16" width="16" height="16" shape-rendering="crispEdges">
  <!-- Pickaxe Tool -->

  <!-- Handle -->
  <rect x="3" y="10" width="2" height="1" fill="#8D6E63"/>
  <rect x="4" y="9" width="2" height="1" fill="#8D6E63"/>
  <rect x="5" y="8" width="2" height="1" fill="#A1887F"/>
  <rect x="6" y="7" width="2" height="1" fill="#A1887F"/>
  <rect x="7" y="6" width="2" height="1" fill="#8D6E63"/>
  <rect x="8" y="5" width="2" height="1" fill="#8D6E63"/>

  <!-- Handle end -->
  <rect x="2" y="11" width="2" height="2" fill="#6D4C41"/>
  <rect x="1" y="12" width="2" height="2" fill="#5D4037"/>
  <rect x="0" y="13" width="2" height="2" fill="#4E342E"/>

  <!-- Pickaxe head (amber metal) -->
  <rect x="9" y="2" width="2" height="1" fill="#F5A623"/>
  <rect x="10" y="3" width="3" height="1" fill="#F5A623"/>
  <rect x="11" y="4" width="4" height="1" fill="#D4900F"/>
  <rect x="12" y="5" width="3" height="1" fill="#F5A623"/>
  <rect x="9" y="4" width="2" height="2" fill="#FFCA62"/>
  <rect x="10" y="5" width="1" height="1" fill="#F5A623"/>

  <!-- Head detail/shine -->
  <rect x="10" y="2" width="1" height="1" fill="#FFDC96"/>
  <rect x="12" y="4" width="1" height="1" fill="#FFCA62"/>
  <rect x="14" y="4" width="1" height="1" fill="#B87D1A"/>
  <rect x="14" y="5" width="1" height="1" fill="#8B6914"/>

  <!-- Binding -->
  <rect x="8" y="4" width="1" height="2" fill="#4E342E"/>
  <rect x="9" y="3" width="1" height="1" fill="#4E342E"/>
</svg>