<svg xmlns="http://www.w3.org/2000/svg" viewBox="0 0 16 16" width="16" height="16" shape-rendering="crispEdges">
  <!-- Hair: Braids - Pink -->
  <rect x="4" y="0" width="8" height="4" fill="#EC407A"/>
  <rect x="3" y="2" width="2" height="3" fill="#F06292"/>
  <rect x="11" y="2" width="2" height="3" fill="#F06292"/>
  <!-- Left braid -->
  <rect x="1" y="4" width="3" height="10" fill="#EC407A"/>
  <rect x="2" y="5" width="1" height="2" fill="#F48FB1"/>
  <rect x="2" y="8" width="1" height="2" fill="#F48FB1"/>
  <rect x="2" y="11" width="1" height="2" fill="#F48FB1"/>
  <!-- Right braid -->
  <rect x="12" y="4" width="3" height="10" fill="#EC407A"/>
  <rect x="13" y="5" width="1" height="2" fill="#F48FB1"/>
  <rect x="13" y="8" width="1" height="2" fill="#F48FB1"/>
  <rect x="13" y="11" width="1" height="2" fill="#F48FB1"/>
  <!-- Hair ties -->
  <rect x="1" y="13" width="3" height="1" fill="#FFEB3B"/>
  <rect x="12" y="13" width="3" height="1" fill="#FFEB3B"/>
  <!-- Bangs -->
  <rect x="5" y="4" width="6" height="2" fill="#F06292"/>
  <!-- Highlight -->
  <rect x="6" y="1" width="2" height="1" fill="#F8BBD9"/>
</svg>
