<svg xmlns="http://www.w3.org/2000/svg" viewBox="0 0 16 16" width="16" height="16" shape-rendering="crispEdges">
  <!-- Hair: Curly - Purple -->
  <rect x="2" y="0" width="12" height="6" fill="#7B1FA2"/>
  <rect x="1" y="2" width="2" height="8" fill="#9C27B0"/>
  <rect x="13" y="2" width="2" height="8" fill="#9C27B0"/>
  <!-- Curls -->
  <rect x="0" y="4" width="2" height="4" fill="#7B1FA2"/>
  <rect x="14" y="4" width="2" height="4" fill="#7B1FA2"/>
  <rect x="0" y="8" width="3" height="4" fill="#9C27B0"/>
  <rect x="13" y="8" width="3" height="4" fill="#9C27B0"/>
  <!-- Curl details -->
  <rect x="1" y="5" width="1" height="1" fill="#AB47BC"/>
  <rect x="14" y="5" width="1" height="1" fill="#AB47BC"/>
  <rect x="2" y="9" width="1" height="1" fill="#BA68C8"/>
  <rect x="13" y="9" width="1" height="1" fill="#BA68C8"/>
  <!-- Top curls -->
  <rect x="4" y="-1" width="2" height="2" fill="#9C27B0"/>
  <rect x="10" y="-1" width="2" height="2" fill="#9C27B0"/>
  <!-- Bangs -->
  <rect x="4" y="4" width="8" height="2" fill="#7B1FA2"/>
  <!-- Highlights -->
  <rect x="5" y="1" width="2" height="2" fill="#CE93D8"/>
</svg>
