<svg xmlns="http://www.w3.org/2000/svg" viewBox="0 0 32 32" width="32" height="32" shape-rendering="crispEdges">
  <!-- Sprinkler -->

  <!-- Ground -->
  <rect x="0" y="24" width="32" height="8" fill="#5D4037"/>
  <rect x="4" y="26" width="8" height="3" fill="#4E342E"/>

  <!-- Base plate -->
  <rect x="10" y="22" width="12" height="3" fill="#607D8B"/>
  <rect x="11" y="22" width="10" height="1" fill="#78909C"/>

  <!-- Main pole -->
  <rect x="14" y="10" width="4" height="12" fill="#455A64"/>
  <rect x="15" y="10" width="2" height="12" fill="#546E7A"/>

  <!-- Sprinkler head -->
  <rect x="10" y="6" width="12" height="5" fill="#546E7A"/>
  <rect x="8" y="8" width="2" height="3" fill="#607D8B"/>
  <rect x="22" y="8" width="2" height="3" fill="#607D8B"/>
  <rect x="12" y="4" width="8" height="3" fill="#78909C"/>

  <!-- Nozzles -->
  <rect x="6" y="8" width="3" height="2" fill="#455A64"/>
  <rect x="23" y="8" width="3" height="2" fill="#455A64"/>

  <!-- Water spray (left) -->
  <rect x="2" y="10" width="2" height="1" fill="#64B5F6"/>
  <rect x="0" y="12" width="2" height="1" fill="#90CAF9"/>
  <rect x="4" y="12" width="1" height="1" fill="#64B5F6"/>
  <rect x="2" y="14" width="2" height="1" fill="#BBDEFB"/>
  <rect x="6" y="14" width="1" height="1" fill="#90CAF9"/>

  <!-- Water spray (right) -->
  <rect x="28" y="10" width="2" height="1" fill="#64B5F6"/>
  <rect x="30" y="12" width="2" height="1" fill="#90CAF9"/>
  <rect x="27" y="12" width="1" height="1" fill="#64B5F6"/>
  <rect x="28" y="14" width="2" height="1" fill="#BBDEFB"/>
  <rect x="25" y="14" width="1" height="1" fill="#90CAF9"/>

  <!-- Water drops -->
  <rect x="4" y="18" width="1" height="2" fill="#64B5F6"/>
  <rect x="8" y="16" width="1" height="2" fill="#90CAF9"/>
  <rect x="23" y="16" width="1" height="2" fill="#90CAF9"/>
  <rect x="27" y="18" width="1" height="2" fill="#64B5F6"/>
</svg>
