<svg xmlns="http://www.w3.org/2000/svg" viewBox="0 0 32 32" width="32" height="32" shape-rendering="crispEdges">
  <!-- Rake Tool -->

  <!-- Handle (long) -->
  <rect x="14" y="0" width="4" height="20" fill="#8D6E63"/>
  <rect x="15" y="2" width="2" height="16" fill="#A1887F"/>
  <rect x="15" y="4" width="1" height="12" fill="#BCAAA4"/>

  <!-- Rake head base -->
  <rect x="4" y="18" width="24" height="4" fill="#78909C"/>
  <rect x="6" y="16" width="20" height="4" fill="#90A4AE"/>

  <!-- Socket -->
  <rect x="12" y="16" width="8" height="4" fill="#607D8B"/>
  <rect x="13" y="17" width="6" height="2" fill="#546E7A"/>

  <!-- Tines (prongs) -->
  <rect x="4" y="22" width="2" height="8" fill="#607D8B"/>
  <rect x="5" y="24" width="1" height="4" fill="#78909C"/>

  <rect x="8" y="22" width="2" height="8" fill="#607D8B"/>
  <rect x="9" y="24" width="1" height="4" fill="#78909C"/>

  <rect x="12" y="22" width="2" height="8" fill="#607D8B"/>
  <rect x="13" y="24" width="1" height="4" fill="#78909C"/>

  <rect x="16" y="22" width="2" height="8" fill="#607D8B"/>
  <rect x="17" y="24" width="1" height="4" fill="#78909C"/>

  <rect x="20" y="22" width="2" height="8" fill="#607D8B"/>
  <rect x="21" y="24" width="1" height="4" fill="#78909C"/>

  <rect x="24" y="22" width="2" height="8" fill="#607D8B"/>
  <rect x="25" y="24" width="1" height="4" fill="#78909C"/>

  <!-- Tine tips -->
  <rect x="4" y="28" width="2" height="2" fill="#B0BEC5"/>
  <rect x="8" y="28" width="2" height="2" fill="#B0BEC5"/>
  <rect x="12" y="28" width="2" height="2" fill="#B0BEC5"/>
  <rect x="16" y="28" width="2" height="2" fill="#B0BEC5"/>
  <rect x="20" y="28" width="2" height="2" fill="#B0BEC5"/>
  <rect x="24" y="28" width="2" height="2" fill="#B0BEC5"/>

  <!-- Metal shine on head -->
  <rect x="6" y="16" width="4" height="2" fill="#B0BEC5"/>
  <rect x="22" y="16" width="4" height="2" fill="#B0BEC5"/>
</svg>
